%TF.GenerationSoftware,KiCad,Pcbnew,(5.1.10)-1*%
%TF.CreationDate,2021-09-08T17:33:34-04:00*%
%TF.ProjectId,BreadboardPowerSupplyLee,42726561-6462-46f6-9172-64506f776572,0.0.1*%
%TF.SameCoordinates,Original*%
%TF.FileFunction,Copper,L2,Bot*%
%TF.FilePolarity,Positive*%
%FSLAX46Y46*%
G04 Gerber Fmt 4.6, Leading zero omitted, Abs format (unit mm)*
G04 Created by KiCad (PCBNEW (5.1.10)-1) date 2021-09-08 17:33:34*
%MOMM*%
%LPD*%
G01*
G04 APERTURE LIST*
%TA.AperFunction,ComponentPad*%
%ADD10C,2.000000*%
%TD*%
%TA.AperFunction,ComponentPad*%
%ADD11R,2.000000X2.000000*%
%TD*%
%TA.AperFunction,ComponentPad*%
%ADD12C,1.600000*%
%TD*%
%TA.AperFunction,ComponentPad*%
%ADD13R,1.600000X1.600000*%
%TD*%
%TA.AperFunction,ComponentPad*%
%ADD14O,2.200000X2.200000*%
%TD*%
%TA.AperFunction,ComponentPad*%
%ADD15R,2.200000X2.200000*%
%TD*%
%TA.AperFunction,ComponentPad*%
%ADD16C,1.800000*%
%TD*%
%TA.AperFunction,ComponentPad*%
%ADD17R,1.800000X1.800000*%
%TD*%
%TA.AperFunction,ComponentPad*%
%ADD18R,3.500000X3.500000*%
%TD*%
%TA.AperFunction,ComponentPad*%
%ADD19O,1.700000X1.700000*%
%TD*%
%TA.AperFunction,ComponentPad*%
%ADD20R,1.700000X1.700000*%
%TD*%
%TA.AperFunction,ComponentPad*%
%ADD21O,1.600000X1.600000*%
%TD*%
%TA.AperFunction,ComponentPad*%
%ADD22C,1.900000*%
%TD*%
%TA.AperFunction,ComponentPad*%
%ADD23R,1.900000X1.900000*%
%TD*%
%TA.AperFunction,ComponentPad*%
%ADD24O,2.000000X1.905000*%
%TD*%
%TA.AperFunction,ComponentPad*%
%ADD25R,2.000000X1.905000*%
%TD*%
%TA.AperFunction,ComponentPad*%
%ADD26R,2.500000X2.500000*%
%TD*%
%TA.AperFunction,Conductor*%
%ADD27C,1.016000*%
%TD*%
%TA.AperFunction,Conductor*%
%ADD28C,1.270000*%
%TD*%
%TA.AperFunction,Conductor*%
%ADD29C,0.254000*%
%TD*%
%TA.AperFunction,Conductor*%
%ADD30C,0.100000*%
%TD*%
G04 APERTURE END LIST*
D10*
%TO.P,C1,2*%
%TO.N,GND*%
X141525000Y-106045000D03*
D11*
%TO.P,C1,1*%
%TO.N,/VDCraw*%
X136525000Y-106045000D03*
%TD*%
D12*
%TO.P,C2,2*%
%TO.N,GND*%
X146010000Y-97790000D03*
D13*
%TO.P,C2,1*%
%TO.N,/Vout*%
X143510000Y-97790000D03*
%TD*%
D14*
%TO.P,D1,2*%
%TO.N,/VSwitched*%
X145415000Y-125730000D03*
D15*
%TO.P,D1,1*%
%TO.N,/VDCraw*%
X135255000Y-125730000D03*
%TD*%
D14*
%TO.P,D2,2*%
%TO.N,GND*%
X145415000Y-121920000D03*
D15*
%TO.P,D2,1*%
%TO.N,/VSwitched*%
X135255000Y-121920000D03*
%TD*%
D14*
%TO.P,D3,2*%
%TO.N,/VinReference*%
X145415000Y-118110000D03*
D15*
%TO.P,D3,1*%
%TO.N,/VDCraw*%
X135255000Y-118110000D03*
%TD*%
D14*
%TO.P,D4,2*%
%TO.N,GND*%
X145415000Y-114300000D03*
D15*
%TO.P,D4,1*%
%TO.N,/VinReference*%
X135255000Y-114300000D03*
%TD*%
D16*
%TO.P,D5,2*%
%TO.N,/PowerOn*%
X146685000Y-105410000D03*
D17*
%TO.P,D5,1*%
%TO.N,GND*%
X149225000Y-105410000D03*
%TD*%
D16*
%TO.P,D6,2*%
%TO.N,/RegOn*%
X153670000Y-92075000D03*
D17*
%TO.P,D6,1*%
%TO.N,GND*%
X156210000Y-92075000D03*
%TD*%
%TO.P,J1,3*%
%TO.N,Net-(J1-Pad3)*%
%TA.AperFunction,ComponentPad*%
G36*
G01*
X138760000Y-138290000D02*
X138760000Y-136540000D01*
G75*
G02*
X139635000Y-135665000I875000J0D01*
G01*
X141385000Y-135665000D01*
G75*
G02*
X142260000Y-136540000I0J-875000D01*
G01*
X142260000Y-138290000D01*
G75*
G02*
X141385000Y-139165000I-875000J0D01*
G01*
X139635000Y-139165000D01*
G75*
G02*
X138760000Y-138290000I0J875000D01*
G01*
G37*
%TD.AperFunction*%
%TO.P,J1,2*%
%TO.N,/VinReference*%
%TA.AperFunction,ComponentPad*%
G36*
G01*
X136010000Y-133715000D02*
X136010000Y-131715000D01*
G75*
G02*
X136760000Y-130965000I750000J0D01*
G01*
X138260000Y-130965000D01*
G75*
G02*
X139010000Y-131715000I0J-750000D01*
G01*
X139010000Y-133715000D01*
G75*
G02*
X138260000Y-134465000I-750000J0D01*
G01*
X136760000Y-134465000D01*
G75*
G02*
X136010000Y-133715000I0J750000D01*
G01*
G37*
%TD.AperFunction*%
D18*
%TO.P,J1,1*%
%TO.N,/Vin*%
X143510000Y-132715000D03*
%TD*%
D19*
%TO.P,J2,4*%
%TO.N,GND*%
X163195000Y-93345000D03*
%TO.P,J2,3*%
X160655000Y-93345000D03*
%TO.P,J2,2*%
%TO.N,/Vout*%
X163195000Y-90805000D03*
D20*
%TO.P,J2,1*%
X160655000Y-90805000D03*
%TD*%
D19*
%TO.P,J3,4*%
%TO.N,GND*%
X163195000Y-137795000D03*
%TO.P,J3,3*%
X160655000Y-137795000D03*
%TO.P,J3,2*%
%TO.N,/Vout*%
X163195000Y-135255000D03*
D20*
%TO.P,J3,1*%
X160655000Y-135255000D03*
%TD*%
D21*
%TO.P,R1,2*%
%TO.N,/PowerOn*%
X149225000Y-111760000D03*
D12*
%TO.P,R1,1*%
%TO.N,/VDCraw*%
X149225000Y-119380000D03*
%TD*%
D21*
%TO.P,R2,2*%
%TO.N,/RegOn*%
X149860000Y-91440000D03*
D12*
%TO.P,R2,1*%
%TO.N,/Vout*%
X142240000Y-91440000D03*
%TD*%
D22*
%TO.P,SW1,3*%
%TO.N,Net-(SW1-Pad3)*%
X154860000Y-136525000D03*
%TO.P,SW1,2*%
%TO.N,/Vin*%
X152360000Y-136525000D03*
D23*
%TO.P,SW1,1*%
%TO.N,/VSwitched*%
X149860000Y-136525000D03*
%TD*%
D24*
%TO.P,U1,3*%
%TO.N,/Vout*%
X137795000Y-92710000D03*
%TO.P,U1,2*%
%TO.N,GND*%
X137795000Y-95250000D03*
D25*
%TO.P,U1,1*%
%TO.N,/VDCraw*%
X137795000Y-97790000D03*
%TD*%
D26*
%TO.P,GND1,1*%
%TO.N,GND*%
X148590000Y-130175000D03*
%TD*%
%TO.P,Vcc1,1*%
%TO.N,/Vout*%
X145415000Y-110490000D03*
%TD*%
D27*
%TO.N,/VDCraw*%
X135255000Y-118110000D02*
X136525000Y-118110000D01*
X136525000Y-118110000D02*
X137795000Y-119380000D01*
X137795000Y-123190000D02*
X135255000Y-125730000D01*
X137795000Y-119380000D02*
X137795000Y-123190000D01*
D28*
%TO.N,GND*%
X163195000Y-93345000D02*
X160655000Y-93345000D01*
X160655000Y-93345000D02*
X157480000Y-93345000D01*
X157480000Y-93345000D02*
X156210000Y-92075000D01*
X146032605Y-97767395D02*
X146010000Y-97790000D01*
X149225000Y-97767395D02*
X146032605Y-97767395D01*
X151409010Y-95605990D02*
X151386405Y-95605990D01*
X151765000Y-95250000D02*
X151409010Y-95605990D01*
X155575000Y-95250000D02*
X151765000Y-95250000D01*
X151386405Y-95605990D02*
X149225000Y-97767395D01*
X157480000Y-93345000D02*
X155575000Y-95250000D01*
X146010000Y-96658630D02*
X146010000Y-97790000D01*
X143966370Y-94615000D02*
X146010000Y-96658630D01*
X141605000Y-94615000D02*
X143966370Y-94615000D01*
X140970000Y-95250000D02*
X141605000Y-94615000D01*
X137795000Y-95250000D02*
X140970000Y-95250000D01*
X149225000Y-105410000D02*
X149225000Y-97767395D01*
X163195000Y-137795000D02*
X160655000Y-137795000D01*
X149860000Y-133350000D02*
X149860000Y-121920000D01*
X156210000Y-133350000D02*
X149860000Y-133350000D01*
X157480000Y-134620000D02*
X156210000Y-133350000D01*
X158750000Y-137795000D02*
X157480000Y-136525000D01*
X157480000Y-136525000D02*
X157480000Y-134620000D01*
X160655000Y-137795000D02*
X158750000Y-137795000D01*
X147404001Y-121835999D02*
X147320000Y-121920000D01*
X147404001Y-115019001D02*
X147404001Y-121835999D01*
X146685000Y-114300000D02*
X147404001Y-115019001D01*
X145415000Y-114300000D02*
X146685000Y-114300000D01*
X147320000Y-121920000D02*
X145415000Y-121920000D01*
X149860000Y-121920000D02*
X147320000Y-121920000D01*
X149225000Y-107315000D02*
X149225000Y-105410000D01*
D27*
%TO.N,/VinReference*%
X137510000Y-132715000D02*
X137510000Y-130460000D01*
X137510000Y-130460000D02*
X140335000Y-127635000D01*
X140335000Y-127635000D02*
X140335000Y-120650000D01*
X142875000Y-118110000D02*
X145415000Y-118110000D01*
X135255000Y-114300000D02*
X137160000Y-114300000D01*
X137160000Y-114300000D02*
X141922500Y-119062500D01*
X141922500Y-119062500D02*
X142875000Y-118110000D01*
X140335000Y-120650000D02*
X141922500Y-119062500D01*
%TD*%
D29*
%TO.N,GND*%
X159215498Y-89710820D02*
X159179188Y-89830518D01*
X159166928Y-89955000D01*
X159166928Y-91655000D01*
X159179188Y-91779482D01*
X159215498Y-91899180D01*
X159274463Y-92009494D01*
X159353815Y-92106185D01*
X159450506Y-92185537D01*
X159560820Y-92244502D01*
X159641466Y-92268966D01*
X159557412Y-92344731D01*
X159383359Y-92578080D01*
X159258175Y-92840901D01*
X159213524Y-92988110D01*
X159334845Y-93218000D01*
X160528000Y-93218000D01*
X160528000Y-93198000D01*
X160782000Y-93198000D01*
X160782000Y-93218000D01*
X163068000Y-93218000D01*
X163068000Y-93198000D01*
X163322000Y-93198000D01*
X163322000Y-93218000D01*
X163342000Y-93218000D01*
X163342000Y-93472000D01*
X163322000Y-93472000D01*
X163322000Y-94665814D01*
X163551891Y-94786481D01*
X163826252Y-94689157D01*
X164076355Y-94540178D01*
X164292588Y-94345269D01*
X164338000Y-94284386D01*
X164338000Y-95758000D01*
X151130000Y-95758000D01*
X151105224Y-95760440D01*
X151081399Y-95767667D01*
X151059443Y-95779403D01*
X151040197Y-95795197D01*
X151024403Y-95814443D01*
X151012667Y-95836399D01*
X151005440Y-95860224D01*
X151003000Y-95885000D01*
X151003000Y-132715000D01*
X151005440Y-132739776D01*
X151012667Y-132763601D01*
X151024403Y-132785557D01*
X151040197Y-132804803D01*
X151059443Y-132820597D01*
X151081399Y-132832333D01*
X151105224Y-132839560D01*
X151130000Y-132842000D01*
X164338000Y-132842000D01*
X164338000Y-134297893D01*
X164141632Y-134101525D01*
X163898411Y-133939010D01*
X163628158Y-133827068D01*
X163341260Y-133770000D01*
X163048740Y-133770000D01*
X162761842Y-133827068D01*
X162491589Y-133939010D01*
X162248368Y-134101525D01*
X162116513Y-134233380D01*
X162094502Y-134160820D01*
X162035537Y-134050506D01*
X161956185Y-133953815D01*
X161859494Y-133874463D01*
X161749180Y-133815498D01*
X161629482Y-133779188D01*
X161505000Y-133766928D01*
X159805000Y-133766928D01*
X159680518Y-133779188D01*
X159560820Y-133815498D01*
X159450506Y-133874463D01*
X159353815Y-133953815D01*
X159274463Y-134050506D01*
X159215498Y-134160820D01*
X159179188Y-134280518D01*
X159166928Y-134405000D01*
X159166928Y-136105000D01*
X159179188Y-136229482D01*
X159215498Y-136349180D01*
X159274463Y-136459494D01*
X159353815Y-136556185D01*
X159450506Y-136635537D01*
X159560820Y-136694502D01*
X159641466Y-136718966D01*
X159557412Y-136794731D01*
X159383359Y-137028080D01*
X159258175Y-137290901D01*
X159213524Y-137438110D01*
X159334845Y-137668000D01*
X160528000Y-137668000D01*
X160528000Y-137648000D01*
X160782000Y-137648000D01*
X160782000Y-137668000D01*
X163068000Y-137668000D01*
X163068000Y-137648000D01*
X163322000Y-137648000D01*
X163322000Y-137668000D01*
X163342000Y-137668000D01*
X163342000Y-137922000D01*
X163322000Y-137922000D01*
X163322000Y-137942000D01*
X163068000Y-137942000D01*
X163068000Y-137922000D01*
X160782000Y-137922000D01*
X160782000Y-137942000D01*
X160528000Y-137942000D01*
X160528000Y-137922000D01*
X159334845Y-137922000D01*
X159213524Y-138151890D01*
X159258175Y-138299099D01*
X159383359Y-138561920D01*
X159557412Y-138795269D01*
X159715758Y-138938000D01*
X142746029Y-138938000D01*
X142782896Y-138869028D01*
X142868999Y-138585186D01*
X142898072Y-138290000D01*
X142898072Y-136540000D01*
X142868999Y-136244814D01*
X142782896Y-135960972D01*
X142643073Y-135699382D01*
X142540995Y-135575000D01*
X148271928Y-135575000D01*
X148271928Y-137475000D01*
X148284188Y-137599482D01*
X148320498Y-137719180D01*
X148379463Y-137829494D01*
X148458815Y-137926185D01*
X148555506Y-138005537D01*
X148665820Y-138064502D01*
X148785518Y-138100812D01*
X148910000Y-138113072D01*
X150810000Y-138113072D01*
X150934482Y-138100812D01*
X151054180Y-138064502D01*
X151164494Y-138005537D01*
X151261185Y-137926185D01*
X151340537Y-137829494D01*
X151371814Y-137770979D01*
X151609221Y-137929609D01*
X151897673Y-138049089D01*
X152203891Y-138110000D01*
X152516109Y-138110000D01*
X152822327Y-138049089D01*
X153110779Y-137929609D01*
X153370379Y-137756150D01*
X153591150Y-137535379D01*
X153610000Y-137507168D01*
X153628850Y-137535379D01*
X153849621Y-137756150D01*
X154109221Y-137929609D01*
X154397673Y-138049089D01*
X154703891Y-138110000D01*
X155016109Y-138110000D01*
X155322327Y-138049089D01*
X155610779Y-137929609D01*
X155870379Y-137756150D01*
X156091150Y-137535379D01*
X156264609Y-137275779D01*
X156384089Y-136987327D01*
X156445000Y-136681109D01*
X156445000Y-136368891D01*
X156384089Y-136062673D01*
X156264609Y-135774221D01*
X156091150Y-135514621D01*
X155870379Y-135293850D01*
X155610779Y-135120391D01*
X155322327Y-135000911D01*
X155016109Y-134940000D01*
X154703891Y-134940000D01*
X154397673Y-135000911D01*
X154109221Y-135120391D01*
X153849621Y-135293850D01*
X153628850Y-135514621D01*
X153610000Y-135542832D01*
X153591150Y-135514621D01*
X153370379Y-135293850D01*
X153110779Y-135120391D01*
X152822327Y-135000911D01*
X152516109Y-134940000D01*
X152203891Y-134940000D01*
X151897673Y-135000911D01*
X151609221Y-135120391D01*
X151371814Y-135279021D01*
X151340537Y-135220506D01*
X151261185Y-135123815D01*
X151164494Y-135044463D01*
X151054180Y-134985498D01*
X150934482Y-134949188D01*
X150810000Y-134936928D01*
X148910000Y-134936928D01*
X148785518Y-134949188D01*
X148665820Y-134985498D01*
X148555506Y-135044463D01*
X148458815Y-135123815D01*
X148379463Y-135220506D01*
X148320498Y-135330820D01*
X148284188Y-135450518D01*
X148271928Y-135575000D01*
X142540995Y-135575000D01*
X142454903Y-135470097D01*
X142225618Y-135281927D01*
X141964028Y-135142104D01*
X141835357Y-135103072D01*
X145260000Y-135103072D01*
X145384482Y-135090812D01*
X145504180Y-135054502D01*
X145614494Y-134995537D01*
X145711185Y-134916185D01*
X145790537Y-134819494D01*
X145849502Y-134709180D01*
X145885812Y-134589482D01*
X145898072Y-134465000D01*
X145898072Y-131425000D01*
X146701928Y-131425000D01*
X146714188Y-131549482D01*
X146750498Y-131669180D01*
X146809463Y-131779494D01*
X146888815Y-131876185D01*
X146985506Y-131955537D01*
X147095820Y-132014502D01*
X147215518Y-132050812D01*
X147340000Y-132063072D01*
X148304250Y-132060000D01*
X148463000Y-131901250D01*
X148463000Y-130302000D01*
X148717000Y-130302000D01*
X148717000Y-131901250D01*
X148875750Y-132060000D01*
X149840000Y-132063072D01*
X149964482Y-132050812D01*
X150084180Y-132014502D01*
X150194494Y-131955537D01*
X150291185Y-131876185D01*
X150370537Y-131779494D01*
X150429502Y-131669180D01*
X150465812Y-131549482D01*
X150478072Y-131425000D01*
X150475000Y-130460750D01*
X150316250Y-130302000D01*
X148717000Y-130302000D01*
X148463000Y-130302000D01*
X146863750Y-130302000D01*
X146705000Y-130460750D01*
X146701928Y-131425000D01*
X145898072Y-131425000D01*
X145898072Y-130965000D01*
X145885812Y-130840518D01*
X145849502Y-130720820D01*
X145790537Y-130610506D01*
X145711185Y-130513815D01*
X145614494Y-130434463D01*
X145504180Y-130375498D01*
X145384482Y-130339188D01*
X145260000Y-130326928D01*
X141760000Y-130326928D01*
X141635518Y-130339188D01*
X141515820Y-130375498D01*
X141405506Y-130434463D01*
X141308815Y-130513815D01*
X141229463Y-130610506D01*
X141170498Y-130720820D01*
X141134188Y-130840518D01*
X141121928Y-130965000D01*
X141121928Y-134465000D01*
X141134188Y-134589482D01*
X141170498Y-134709180D01*
X141229463Y-134819494D01*
X141308815Y-134916185D01*
X141405506Y-134995537D01*
X141482131Y-135036494D01*
X141385000Y-135026928D01*
X139635000Y-135026928D01*
X139339814Y-135056001D01*
X139055972Y-135142104D01*
X138794382Y-135281927D01*
X138565097Y-135470097D01*
X138376927Y-135699382D01*
X138237104Y-135960972D01*
X138151001Y-136244814D01*
X138121928Y-136540000D01*
X138121928Y-138290000D01*
X138151001Y-138585186D01*
X138237104Y-138869028D01*
X138273971Y-138938000D01*
X134112000Y-138938000D01*
X134112000Y-127463837D01*
X134155000Y-127468072D01*
X136355000Y-127468072D01*
X136479482Y-127455812D01*
X136599180Y-127419502D01*
X136709494Y-127360537D01*
X136806185Y-127281185D01*
X136885537Y-127184494D01*
X136944502Y-127074180D01*
X136980812Y-126954482D01*
X136993072Y-126830000D01*
X136993072Y-125608373D01*
X138563523Y-124037923D01*
X138607133Y-124002133D01*
X138749968Y-123828089D01*
X138856103Y-123629523D01*
X138921461Y-123414067D01*
X138938000Y-123246146D01*
X138938000Y-123246140D01*
X138943529Y-123190001D01*
X138938000Y-123133862D01*
X138938000Y-119436138D01*
X138943529Y-119379999D01*
X138938000Y-119323860D01*
X138938000Y-119323854D01*
X138921461Y-119155933D01*
X138856103Y-118940477D01*
X138749968Y-118741911D01*
X138652360Y-118622976D01*
X138642924Y-118611478D01*
X138642923Y-118611477D01*
X138607133Y-118567867D01*
X138563524Y-118532078D01*
X137372927Y-117341482D01*
X137337133Y-117297867D01*
X137163089Y-117155032D01*
X136993072Y-117064157D01*
X136993072Y-117010000D01*
X136980812Y-116885518D01*
X136944502Y-116765820D01*
X136885537Y-116655506D01*
X136806185Y-116558815D01*
X136709494Y-116479463D01*
X136599180Y-116420498D01*
X136479482Y-116384188D01*
X136355000Y-116371928D01*
X134155000Y-116371928D01*
X134112000Y-116376163D01*
X134112000Y-116033837D01*
X134155000Y-116038072D01*
X136355000Y-116038072D01*
X136479482Y-116025812D01*
X136599180Y-115989502D01*
X136709494Y-115930537D01*
X136806185Y-115851185D01*
X136885537Y-115754494D01*
X136924728Y-115681173D01*
X140306054Y-119062500D01*
X139566478Y-119802077D01*
X139522868Y-119837867D01*
X139380033Y-120011911D01*
X139283703Y-120192133D01*
X139273898Y-120210477D01*
X139208539Y-120425933D01*
X139186471Y-120650000D01*
X139192001Y-120706149D01*
X139192000Y-127161553D01*
X136741478Y-129612077D01*
X136697868Y-129647867D01*
X136555033Y-129821911D01*
X136519040Y-129889250D01*
X136448898Y-130020477D01*
X136383539Y-130235933D01*
X136368339Y-130390262D01*
X136228808Y-130432589D01*
X135988829Y-130560860D01*
X135778485Y-130733485D01*
X135605860Y-130943829D01*
X135477589Y-131183808D01*
X135398599Y-131444201D01*
X135371928Y-131715000D01*
X135371928Y-133715000D01*
X135398599Y-133985799D01*
X135477589Y-134246192D01*
X135605860Y-134486171D01*
X135778485Y-134696515D01*
X135988829Y-134869140D01*
X136228808Y-134997411D01*
X136489201Y-135076401D01*
X136760000Y-135103072D01*
X138260000Y-135103072D01*
X138530799Y-135076401D01*
X138791192Y-134997411D01*
X139031171Y-134869140D01*
X139241515Y-134696515D01*
X139414140Y-134486171D01*
X139542411Y-134246192D01*
X139621401Y-133985799D01*
X139648072Y-133715000D01*
X139648072Y-131715000D01*
X139621401Y-131444201D01*
X139542411Y-131183808D01*
X139414140Y-130943829D01*
X139241515Y-130733485D01*
X139031171Y-130560860D01*
X139027531Y-130558914D01*
X140661446Y-128925000D01*
X146701928Y-128925000D01*
X146705000Y-129889250D01*
X146863750Y-130048000D01*
X148463000Y-130048000D01*
X148463000Y-128448750D01*
X148717000Y-128448750D01*
X148717000Y-130048000D01*
X150316250Y-130048000D01*
X150475000Y-129889250D01*
X150478072Y-128925000D01*
X150465812Y-128800518D01*
X150429502Y-128680820D01*
X150370537Y-128570506D01*
X150291185Y-128473815D01*
X150194494Y-128394463D01*
X150084180Y-128335498D01*
X149964482Y-128299188D01*
X149840000Y-128286928D01*
X148875750Y-128290000D01*
X148717000Y-128448750D01*
X148463000Y-128448750D01*
X148304250Y-128290000D01*
X147340000Y-128286928D01*
X147215518Y-128299188D01*
X147095820Y-128335498D01*
X146985506Y-128394463D01*
X146888815Y-128473815D01*
X146809463Y-128570506D01*
X146750498Y-128680820D01*
X146714188Y-128800518D01*
X146701928Y-128925000D01*
X140661446Y-128925000D01*
X141103529Y-128482918D01*
X141147133Y-128447133D01*
X141182918Y-128403529D01*
X141182924Y-128403523D01*
X141289967Y-128273090D01*
X141289968Y-128273089D01*
X141396103Y-128074523D01*
X141461461Y-127859067D01*
X141478000Y-127691146D01*
X141478000Y-127691140D01*
X141483529Y-127635001D01*
X141478000Y-127578862D01*
X141478000Y-125559117D01*
X143680000Y-125559117D01*
X143680000Y-125900883D01*
X143746675Y-126236081D01*
X143877463Y-126551831D01*
X144067337Y-126835998D01*
X144309002Y-127077663D01*
X144593169Y-127267537D01*
X144908919Y-127398325D01*
X145244117Y-127465000D01*
X145585883Y-127465000D01*
X145921081Y-127398325D01*
X146236831Y-127267537D01*
X146520998Y-127077663D01*
X146762663Y-126835998D01*
X146952537Y-126551831D01*
X147083325Y-126236081D01*
X147150000Y-125900883D01*
X147150000Y-125559117D01*
X147083325Y-125223919D01*
X146952537Y-124908169D01*
X146762663Y-124624002D01*
X146520998Y-124382337D01*
X146236831Y-124192463D01*
X145921081Y-124061675D01*
X145585883Y-123995000D01*
X145244117Y-123995000D01*
X144908919Y-124061675D01*
X144593169Y-124192463D01*
X144309002Y-124382337D01*
X144067337Y-124624002D01*
X143877463Y-124908169D01*
X143746675Y-125223919D01*
X143680000Y-125559117D01*
X141478000Y-125559117D01*
X141478000Y-122316122D01*
X143725825Y-122316122D01*
X143790425Y-122529094D01*
X143940469Y-122834329D01*
X144147178Y-123104427D01*
X144402609Y-123329008D01*
X144696946Y-123499442D01*
X145018877Y-123609179D01*
X145288000Y-123491600D01*
X145288000Y-122047000D01*
X145542000Y-122047000D01*
X145542000Y-123491600D01*
X145811123Y-123609179D01*
X146133054Y-123499442D01*
X146427391Y-123329008D01*
X146682822Y-123104427D01*
X146889531Y-122834329D01*
X147039575Y-122529094D01*
X147104175Y-122316122D01*
X146986125Y-122047000D01*
X145542000Y-122047000D01*
X145288000Y-122047000D01*
X143843875Y-122047000D01*
X143725825Y-122316122D01*
X141478000Y-122316122D01*
X141478000Y-121523878D01*
X143725825Y-121523878D01*
X143843875Y-121793000D01*
X145288000Y-121793000D01*
X145288000Y-120348400D01*
X145542000Y-120348400D01*
X145542000Y-121793000D01*
X146986125Y-121793000D01*
X147104175Y-121523878D01*
X147039575Y-121310906D01*
X146889531Y-121005671D01*
X146682822Y-120735573D01*
X146427391Y-120510992D01*
X146133054Y-120340558D01*
X145811123Y-120230821D01*
X145542000Y-120348400D01*
X145288000Y-120348400D01*
X145018877Y-120230821D01*
X144696946Y-120340558D01*
X144402609Y-120510992D01*
X144147178Y-120735573D01*
X143940469Y-121005671D01*
X143790425Y-121310906D01*
X143725825Y-121523878D01*
X141478000Y-121523878D01*
X141478000Y-121123445D01*
X142691025Y-119910421D01*
X142734633Y-119874633D01*
X142770420Y-119831026D01*
X142770424Y-119831022D01*
X142770428Y-119831017D01*
X143348446Y-119253000D01*
X144104339Y-119253000D01*
X144309002Y-119457663D01*
X144593169Y-119647537D01*
X144908919Y-119778325D01*
X145244117Y-119845000D01*
X145585883Y-119845000D01*
X145921081Y-119778325D01*
X146236831Y-119647537D01*
X146520998Y-119457663D01*
X146739996Y-119238665D01*
X147790000Y-119238665D01*
X147790000Y-119521335D01*
X147845147Y-119798574D01*
X147953320Y-120059727D01*
X148110363Y-120294759D01*
X148310241Y-120494637D01*
X148545273Y-120651680D01*
X148806426Y-120759853D01*
X149083665Y-120815000D01*
X149366335Y-120815000D01*
X149643574Y-120759853D01*
X149904727Y-120651680D01*
X150139759Y-120494637D01*
X150339637Y-120294759D01*
X150496680Y-120059727D01*
X150604853Y-119798574D01*
X150660000Y-119521335D01*
X150660000Y-119238665D01*
X150604853Y-118961426D01*
X150496680Y-118700273D01*
X150339637Y-118465241D01*
X150139759Y-118265363D01*
X149904727Y-118108320D01*
X149643574Y-118000147D01*
X149366335Y-117945000D01*
X149083665Y-117945000D01*
X148806426Y-118000147D01*
X148545273Y-118108320D01*
X148310241Y-118265363D01*
X148110363Y-118465241D01*
X147953320Y-118700273D01*
X147845147Y-118961426D01*
X147790000Y-119238665D01*
X146739996Y-119238665D01*
X146762663Y-119215998D01*
X146952537Y-118931831D01*
X147083325Y-118616081D01*
X147150000Y-118280883D01*
X147150000Y-117939117D01*
X147083325Y-117603919D01*
X146952537Y-117288169D01*
X146762663Y-117004002D01*
X146520998Y-116762337D01*
X146236831Y-116572463D01*
X145921081Y-116441675D01*
X145585883Y-116375000D01*
X145244117Y-116375000D01*
X144908919Y-116441675D01*
X144593169Y-116572463D01*
X144309002Y-116762337D01*
X144104339Y-116967000D01*
X142931138Y-116967000D01*
X142874999Y-116961471D01*
X142818860Y-116967000D01*
X142818854Y-116967000D01*
X142673600Y-116981306D01*
X142650932Y-116983539D01*
X142585574Y-117003365D01*
X142435477Y-117048897D01*
X142236911Y-117155032D01*
X142062867Y-117297867D01*
X142027077Y-117341477D01*
X141922500Y-117446054D01*
X139172568Y-114696122D01*
X143725825Y-114696122D01*
X143790425Y-114909094D01*
X143940469Y-115214329D01*
X144147178Y-115484427D01*
X144402609Y-115709008D01*
X144696946Y-115879442D01*
X145018877Y-115989179D01*
X145288000Y-115871600D01*
X145288000Y-114427000D01*
X145542000Y-114427000D01*
X145542000Y-115871600D01*
X145811123Y-115989179D01*
X146133054Y-115879442D01*
X146427391Y-115709008D01*
X146682822Y-115484427D01*
X146889531Y-115214329D01*
X147039575Y-114909094D01*
X147104175Y-114696122D01*
X146986125Y-114427000D01*
X145542000Y-114427000D01*
X145288000Y-114427000D01*
X143843875Y-114427000D01*
X143725825Y-114696122D01*
X139172568Y-114696122D01*
X138380324Y-113903878D01*
X143725825Y-113903878D01*
X143843875Y-114173000D01*
X145288000Y-114173000D01*
X145288000Y-112728400D01*
X145542000Y-112728400D01*
X145542000Y-114173000D01*
X146986125Y-114173000D01*
X147104175Y-113903878D01*
X147039575Y-113690906D01*
X146889531Y-113385671D01*
X146682822Y-113115573D01*
X146427391Y-112890992D01*
X146133054Y-112720558D01*
X145811123Y-112610821D01*
X145542000Y-112728400D01*
X145288000Y-112728400D01*
X145018877Y-112610821D01*
X144696946Y-112720558D01*
X144402609Y-112890992D01*
X144147178Y-113115573D01*
X143940469Y-113385671D01*
X143790425Y-113690906D01*
X143725825Y-113903878D01*
X138380324Y-113903878D01*
X138007927Y-113531482D01*
X137972133Y-113487867D01*
X137798089Y-113345032D01*
X137599523Y-113238897D01*
X137384067Y-113173539D01*
X137216146Y-113157000D01*
X137216139Y-113157000D01*
X137160000Y-113151471D01*
X137103861Y-113157000D01*
X136988837Y-113157000D01*
X136980812Y-113075518D01*
X136944502Y-112955820D01*
X136885537Y-112845506D01*
X136806185Y-112748815D01*
X136709494Y-112669463D01*
X136599180Y-112610498D01*
X136479482Y-112574188D01*
X136355000Y-112561928D01*
X134155000Y-112561928D01*
X134112000Y-112566163D01*
X134112000Y-109240000D01*
X143526928Y-109240000D01*
X143526928Y-111740000D01*
X143539188Y-111864482D01*
X143575498Y-111984180D01*
X143634463Y-112094494D01*
X143713815Y-112191185D01*
X143810506Y-112270537D01*
X143920820Y-112329502D01*
X144040518Y-112365812D01*
X144165000Y-112378072D01*
X146665000Y-112378072D01*
X146789482Y-112365812D01*
X146909180Y-112329502D01*
X147019494Y-112270537D01*
X147116185Y-112191185D01*
X147195537Y-112094494D01*
X147254502Y-111984180D01*
X147290812Y-111864482D01*
X147303072Y-111740000D01*
X147303072Y-111618665D01*
X147790000Y-111618665D01*
X147790000Y-111901335D01*
X147845147Y-112178574D01*
X147953320Y-112439727D01*
X148110363Y-112674759D01*
X148310241Y-112874637D01*
X148545273Y-113031680D01*
X148806426Y-113139853D01*
X149083665Y-113195000D01*
X149366335Y-113195000D01*
X149643574Y-113139853D01*
X149904727Y-113031680D01*
X150139759Y-112874637D01*
X150339637Y-112674759D01*
X150496680Y-112439727D01*
X150604853Y-112178574D01*
X150660000Y-111901335D01*
X150660000Y-111618665D01*
X150604853Y-111341426D01*
X150496680Y-111080273D01*
X150339637Y-110845241D01*
X150139759Y-110645363D01*
X149904727Y-110488320D01*
X149643574Y-110380147D01*
X149366335Y-110325000D01*
X149083665Y-110325000D01*
X148806426Y-110380147D01*
X148545273Y-110488320D01*
X148310241Y-110645363D01*
X148110363Y-110845241D01*
X147953320Y-111080273D01*
X147845147Y-111341426D01*
X147790000Y-111618665D01*
X147303072Y-111618665D01*
X147303072Y-109240000D01*
X147290812Y-109115518D01*
X147254502Y-108995820D01*
X147195537Y-108885506D01*
X147116185Y-108788815D01*
X147019494Y-108709463D01*
X146909180Y-108650498D01*
X146789482Y-108614188D01*
X146665000Y-108601928D01*
X144165000Y-108601928D01*
X144040518Y-108614188D01*
X143920820Y-108650498D01*
X143810506Y-108709463D01*
X143713815Y-108788815D01*
X143634463Y-108885506D01*
X143575498Y-108995820D01*
X143539188Y-109115518D01*
X143526928Y-109240000D01*
X134112000Y-109240000D01*
X134112000Y-105045000D01*
X134886928Y-105045000D01*
X134886928Y-107045000D01*
X134899188Y-107169482D01*
X134935498Y-107289180D01*
X134994463Y-107399494D01*
X135073815Y-107496185D01*
X135170506Y-107575537D01*
X135280820Y-107634502D01*
X135400518Y-107670812D01*
X135525000Y-107683072D01*
X137525000Y-107683072D01*
X137649482Y-107670812D01*
X137769180Y-107634502D01*
X137879494Y-107575537D01*
X137976185Y-107496185D01*
X138055537Y-107399494D01*
X138114502Y-107289180D01*
X138147496Y-107180413D01*
X140569192Y-107180413D01*
X140664956Y-107444814D01*
X140954571Y-107585704D01*
X141266108Y-107667384D01*
X141587595Y-107686718D01*
X141906675Y-107642961D01*
X142211088Y-107537795D01*
X142385044Y-107444814D01*
X142480808Y-107180413D01*
X141525000Y-106224605D01*
X140569192Y-107180413D01*
X138147496Y-107180413D01*
X138150812Y-107169482D01*
X138163072Y-107045000D01*
X138163072Y-106107595D01*
X139883282Y-106107595D01*
X139927039Y-106426675D01*
X140032205Y-106731088D01*
X140125186Y-106905044D01*
X140389587Y-107000808D01*
X141345395Y-106045000D01*
X141704605Y-106045000D01*
X142660413Y-107000808D01*
X142924814Y-106905044D01*
X143065704Y-106615429D01*
X143147384Y-106303892D01*
X143166718Y-105982405D01*
X143122961Y-105663325D01*
X143017795Y-105358912D01*
X142964293Y-105258816D01*
X145150000Y-105258816D01*
X145150000Y-105561184D01*
X145208989Y-105857743D01*
X145324701Y-106137095D01*
X145492688Y-106388505D01*
X145706495Y-106602312D01*
X145957905Y-106770299D01*
X146237257Y-106886011D01*
X146533816Y-106945000D01*
X146836184Y-106945000D01*
X147132743Y-106886011D01*
X147412095Y-106770299D01*
X147663505Y-106602312D01*
X147729944Y-106535873D01*
X147735498Y-106554180D01*
X147794463Y-106664494D01*
X147873815Y-106761185D01*
X147970506Y-106840537D01*
X148080820Y-106899502D01*
X148200518Y-106935812D01*
X148325000Y-106948072D01*
X148939250Y-106945000D01*
X149098000Y-106786250D01*
X149098000Y-105537000D01*
X149352000Y-105537000D01*
X149352000Y-106786250D01*
X149510750Y-106945000D01*
X150125000Y-106948072D01*
X150249482Y-106935812D01*
X150369180Y-106899502D01*
X150479494Y-106840537D01*
X150576185Y-106761185D01*
X150655537Y-106664494D01*
X150714502Y-106554180D01*
X150750812Y-106434482D01*
X150763072Y-106310000D01*
X150760000Y-105695750D01*
X150601250Y-105537000D01*
X149352000Y-105537000D01*
X149098000Y-105537000D01*
X149078000Y-105537000D01*
X149078000Y-105283000D01*
X149098000Y-105283000D01*
X149098000Y-104033750D01*
X149352000Y-104033750D01*
X149352000Y-105283000D01*
X150601250Y-105283000D01*
X150760000Y-105124250D01*
X150763072Y-104510000D01*
X150750812Y-104385518D01*
X150714502Y-104265820D01*
X150655537Y-104155506D01*
X150576185Y-104058815D01*
X150479494Y-103979463D01*
X150369180Y-103920498D01*
X150249482Y-103884188D01*
X150125000Y-103871928D01*
X149510750Y-103875000D01*
X149352000Y-104033750D01*
X149098000Y-104033750D01*
X148939250Y-103875000D01*
X148325000Y-103871928D01*
X148200518Y-103884188D01*
X148080820Y-103920498D01*
X147970506Y-103979463D01*
X147873815Y-104058815D01*
X147794463Y-104155506D01*
X147735498Y-104265820D01*
X147729944Y-104284127D01*
X147663505Y-104217688D01*
X147412095Y-104049701D01*
X147132743Y-103933989D01*
X146836184Y-103875000D01*
X146533816Y-103875000D01*
X146237257Y-103933989D01*
X145957905Y-104049701D01*
X145706495Y-104217688D01*
X145492688Y-104431495D01*
X145324701Y-104682905D01*
X145208989Y-104962257D01*
X145150000Y-105258816D01*
X142964293Y-105258816D01*
X142924814Y-105184956D01*
X142660413Y-105089192D01*
X141704605Y-106045000D01*
X141345395Y-106045000D01*
X140389587Y-105089192D01*
X140125186Y-105184956D01*
X139984296Y-105474571D01*
X139902616Y-105786108D01*
X139883282Y-106107595D01*
X138163072Y-106107595D01*
X138163072Y-105045000D01*
X138150812Y-104920518D01*
X138147497Y-104909587D01*
X140569192Y-104909587D01*
X141525000Y-105865395D01*
X142480808Y-104909587D01*
X142385044Y-104645186D01*
X142095429Y-104504296D01*
X141783892Y-104422616D01*
X141462405Y-104403282D01*
X141143325Y-104447039D01*
X140838912Y-104552205D01*
X140664956Y-104645186D01*
X140569192Y-104909587D01*
X138147497Y-104909587D01*
X138114502Y-104800820D01*
X138055537Y-104690506D01*
X137976185Y-104593815D01*
X137879494Y-104514463D01*
X137769180Y-104455498D01*
X137649482Y-104419188D01*
X137525000Y-104406928D01*
X135525000Y-104406928D01*
X135400518Y-104419188D01*
X135280820Y-104455498D01*
X135170506Y-104514463D01*
X135073815Y-104593815D01*
X134994463Y-104690506D01*
X134935498Y-104800820D01*
X134899188Y-104920518D01*
X134886928Y-105045000D01*
X134112000Y-105045000D01*
X134112000Y-96837500D01*
X136156928Y-96837500D01*
X136156928Y-98742500D01*
X136169188Y-98866982D01*
X136205498Y-98986680D01*
X136264463Y-99096994D01*
X136343815Y-99193685D01*
X136440506Y-99273037D01*
X136550820Y-99332002D01*
X136670518Y-99368312D01*
X136795000Y-99380572D01*
X138795000Y-99380572D01*
X138919482Y-99368312D01*
X139039180Y-99332002D01*
X139149494Y-99273037D01*
X139246185Y-99193685D01*
X139325537Y-99096994D01*
X139384502Y-98986680D01*
X139420812Y-98866982D01*
X139433072Y-98742500D01*
X139433072Y-96990000D01*
X142071928Y-96990000D01*
X142071928Y-98590000D01*
X142084188Y-98714482D01*
X142120498Y-98834180D01*
X142179463Y-98944494D01*
X142258815Y-99041185D01*
X142355506Y-99120537D01*
X142465820Y-99179502D01*
X142585518Y-99215812D01*
X142710000Y-99228072D01*
X144310000Y-99228072D01*
X144434482Y-99215812D01*
X144554180Y-99179502D01*
X144664494Y-99120537D01*
X144761185Y-99041185D01*
X144840537Y-98944494D01*
X144899502Y-98834180D01*
X144915117Y-98782702D01*
X145196903Y-98782702D01*
X145268486Y-99026671D01*
X145523996Y-99147571D01*
X145798184Y-99216300D01*
X146080512Y-99230217D01*
X146360130Y-99188787D01*
X146626292Y-99093603D01*
X146751514Y-99026671D01*
X146823097Y-98782702D01*
X146010000Y-97969605D01*
X145196903Y-98782702D01*
X144915117Y-98782702D01*
X144935812Y-98714482D01*
X144948072Y-98590000D01*
X144948072Y-98582785D01*
X145017298Y-98603097D01*
X145830395Y-97790000D01*
X146189605Y-97790000D01*
X147002702Y-98603097D01*
X147246671Y-98531514D01*
X147367571Y-98276004D01*
X147436300Y-98001816D01*
X147450217Y-97719488D01*
X147408787Y-97439870D01*
X147313603Y-97173708D01*
X147246671Y-97048486D01*
X147002702Y-96976903D01*
X146189605Y-97790000D01*
X145830395Y-97790000D01*
X145017298Y-96976903D01*
X144948072Y-96997215D01*
X144948072Y-96990000D01*
X144935812Y-96865518D01*
X144915118Y-96797298D01*
X145196903Y-96797298D01*
X146010000Y-97610395D01*
X146823097Y-96797298D01*
X146751514Y-96553329D01*
X146496004Y-96432429D01*
X146221816Y-96363700D01*
X145939488Y-96349783D01*
X145659870Y-96391213D01*
X145393708Y-96486397D01*
X145268486Y-96553329D01*
X145196903Y-96797298D01*
X144915118Y-96797298D01*
X144899502Y-96745820D01*
X144840537Y-96635506D01*
X144761185Y-96538815D01*
X144664494Y-96459463D01*
X144554180Y-96400498D01*
X144434482Y-96364188D01*
X144310000Y-96351928D01*
X142710000Y-96351928D01*
X142585518Y-96364188D01*
X142465820Y-96400498D01*
X142355506Y-96459463D01*
X142258815Y-96538815D01*
X142179463Y-96635506D01*
X142120498Y-96745820D01*
X142084188Y-96865518D01*
X142071928Y-96990000D01*
X139433072Y-96990000D01*
X139433072Y-96837500D01*
X139420812Y-96713018D01*
X139384502Y-96593320D01*
X139325537Y-96483006D01*
X139246185Y-96386315D01*
X139149494Y-96306963D01*
X139057781Y-96257941D01*
X139170969Y-96116923D01*
X139314571Y-95841094D01*
X139385563Y-95622980D01*
X139265594Y-95377000D01*
X137922000Y-95377000D01*
X137922000Y-95397000D01*
X137668000Y-95397000D01*
X137668000Y-95377000D01*
X136324406Y-95377000D01*
X136204437Y-95622980D01*
X136275429Y-95841094D01*
X136419031Y-96116923D01*
X136532219Y-96257941D01*
X136440506Y-96306963D01*
X136343815Y-96386315D01*
X136264463Y-96483006D01*
X136205498Y-96593320D01*
X136169188Y-96713018D01*
X136156928Y-96837500D01*
X134112000Y-96837500D01*
X134112000Y-92710000D01*
X136152319Y-92710000D01*
X136182970Y-93021204D01*
X136273745Y-93320449D01*
X136421155Y-93596235D01*
X136619537Y-93837963D01*
X136798899Y-93985163D01*
X136613685Y-94140563D01*
X136419031Y-94383077D01*
X136275429Y-94658906D01*
X136204437Y-94877020D01*
X136324406Y-95123000D01*
X137668000Y-95123000D01*
X137668000Y-95103000D01*
X137922000Y-95103000D01*
X137922000Y-95123000D01*
X139265594Y-95123000D01*
X139385563Y-94877020D01*
X139314571Y-94658906D01*
X139170969Y-94383077D01*
X138976315Y-94140563D01*
X138791101Y-93985163D01*
X138970463Y-93837963D01*
X139082135Y-93701890D01*
X159213524Y-93701890D01*
X159258175Y-93849099D01*
X159383359Y-94111920D01*
X159557412Y-94345269D01*
X159773645Y-94540178D01*
X160023748Y-94689157D01*
X160298109Y-94786481D01*
X160528000Y-94665814D01*
X160528000Y-93472000D01*
X160782000Y-93472000D01*
X160782000Y-94665814D01*
X161011891Y-94786481D01*
X161286252Y-94689157D01*
X161536355Y-94540178D01*
X161752588Y-94345269D01*
X161925000Y-94114120D01*
X162097412Y-94345269D01*
X162313645Y-94540178D01*
X162563748Y-94689157D01*
X162838109Y-94786481D01*
X163068000Y-94665814D01*
X163068000Y-93472000D01*
X160782000Y-93472000D01*
X160528000Y-93472000D01*
X159334845Y-93472000D01*
X159213524Y-93701890D01*
X139082135Y-93701890D01*
X139168845Y-93596235D01*
X139316255Y-93320449D01*
X139407030Y-93021204D01*
X139437681Y-92710000D01*
X139407030Y-92398796D01*
X139316255Y-92099551D01*
X139168845Y-91823765D01*
X138970463Y-91582037D01*
X138728735Y-91383655D01*
X138569730Y-91298665D01*
X140805000Y-91298665D01*
X140805000Y-91581335D01*
X140860147Y-91858574D01*
X140968320Y-92119727D01*
X141125363Y-92354759D01*
X141325241Y-92554637D01*
X141560273Y-92711680D01*
X141821426Y-92819853D01*
X142098665Y-92875000D01*
X142381335Y-92875000D01*
X142658574Y-92819853D01*
X142919727Y-92711680D01*
X143154759Y-92554637D01*
X143354637Y-92354759D01*
X143511680Y-92119727D01*
X143619853Y-91858574D01*
X143675000Y-91581335D01*
X143675000Y-91298665D01*
X148425000Y-91298665D01*
X148425000Y-91581335D01*
X148480147Y-91858574D01*
X148588320Y-92119727D01*
X148745363Y-92354759D01*
X148945241Y-92554637D01*
X149180273Y-92711680D01*
X149441426Y-92819853D01*
X149718665Y-92875000D01*
X150001335Y-92875000D01*
X150278574Y-92819853D01*
X150539727Y-92711680D01*
X150774759Y-92554637D01*
X150974637Y-92354759D01*
X151131680Y-92119727D01*
X151212828Y-91923816D01*
X152135000Y-91923816D01*
X152135000Y-92226184D01*
X152193989Y-92522743D01*
X152309701Y-92802095D01*
X152477688Y-93053505D01*
X152691495Y-93267312D01*
X152942905Y-93435299D01*
X153222257Y-93551011D01*
X153518816Y-93610000D01*
X153821184Y-93610000D01*
X154117743Y-93551011D01*
X154397095Y-93435299D01*
X154648505Y-93267312D01*
X154714944Y-93200873D01*
X154720498Y-93219180D01*
X154779463Y-93329494D01*
X154858815Y-93426185D01*
X154955506Y-93505537D01*
X155065820Y-93564502D01*
X155185518Y-93600812D01*
X155310000Y-93613072D01*
X155924250Y-93610000D01*
X156083000Y-93451250D01*
X156083000Y-92202000D01*
X156337000Y-92202000D01*
X156337000Y-93451250D01*
X156495750Y-93610000D01*
X157110000Y-93613072D01*
X157234482Y-93600812D01*
X157354180Y-93564502D01*
X157464494Y-93505537D01*
X157561185Y-93426185D01*
X157640537Y-93329494D01*
X157699502Y-93219180D01*
X157735812Y-93099482D01*
X157748072Y-92975000D01*
X157745000Y-92360750D01*
X157586250Y-92202000D01*
X156337000Y-92202000D01*
X156083000Y-92202000D01*
X156063000Y-92202000D01*
X156063000Y-91948000D01*
X156083000Y-91948000D01*
X156083000Y-90698750D01*
X156337000Y-90698750D01*
X156337000Y-91948000D01*
X157586250Y-91948000D01*
X157745000Y-91789250D01*
X157748072Y-91175000D01*
X157735812Y-91050518D01*
X157699502Y-90930820D01*
X157640537Y-90820506D01*
X157561185Y-90723815D01*
X157464494Y-90644463D01*
X157354180Y-90585498D01*
X157234482Y-90549188D01*
X157110000Y-90536928D01*
X156495750Y-90540000D01*
X156337000Y-90698750D01*
X156083000Y-90698750D01*
X155924250Y-90540000D01*
X155310000Y-90536928D01*
X155185518Y-90549188D01*
X155065820Y-90585498D01*
X154955506Y-90644463D01*
X154858815Y-90723815D01*
X154779463Y-90820506D01*
X154720498Y-90930820D01*
X154714944Y-90949127D01*
X154648505Y-90882688D01*
X154397095Y-90714701D01*
X154117743Y-90598989D01*
X153821184Y-90540000D01*
X153518816Y-90540000D01*
X153222257Y-90598989D01*
X152942905Y-90714701D01*
X152691495Y-90882688D01*
X152477688Y-91096495D01*
X152309701Y-91347905D01*
X152193989Y-91627257D01*
X152135000Y-91923816D01*
X151212828Y-91923816D01*
X151239853Y-91858574D01*
X151295000Y-91581335D01*
X151295000Y-91298665D01*
X151239853Y-91021426D01*
X151131680Y-90760273D01*
X150974637Y-90525241D01*
X150774759Y-90325363D01*
X150539727Y-90168320D01*
X150278574Y-90060147D01*
X150001335Y-90005000D01*
X149718665Y-90005000D01*
X149441426Y-90060147D01*
X149180273Y-90168320D01*
X148945241Y-90325363D01*
X148745363Y-90525241D01*
X148588320Y-90760273D01*
X148480147Y-91021426D01*
X148425000Y-91298665D01*
X143675000Y-91298665D01*
X143619853Y-91021426D01*
X143511680Y-90760273D01*
X143354637Y-90525241D01*
X143154759Y-90325363D01*
X142919727Y-90168320D01*
X142658574Y-90060147D01*
X142381335Y-90005000D01*
X142098665Y-90005000D01*
X141821426Y-90060147D01*
X141560273Y-90168320D01*
X141325241Y-90325363D01*
X141125363Y-90525241D01*
X140968320Y-90760273D01*
X140860147Y-91021426D01*
X140805000Y-91298665D01*
X138569730Y-91298665D01*
X138452949Y-91236245D01*
X138153704Y-91145470D01*
X137920486Y-91122500D01*
X137669514Y-91122500D01*
X137436296Y-91145470D01*
X137137051Y-91236245D01*
X136861265Y-91383655D01*
X136619537Y-91582037D01*
X136421155Y-91823765D01*
X136273745Y-92099551D01*
X136182970Y-92398796D01*
X136152319Y-92710000D01*
X134112000Y-92710000D01*
X134112000Y-89662000D01*
X159241593Y-89662000D01*
X159215498Y-89710820D01*
%TA.AperFunction,Conductor*%
D30*
G36*
X159215498Y-89710820D02*
G01*
X159179188Y-89830518D01*
X159166928Y-89955000D01*
X159166928Y-91655000D01*
X159179188Y-91779482D01*
X159215498Y-91899180D01*
X159274463Y-92009494D01*
X159353815Y-92106185D01*
X159450506Y-92185537D01*
X159560820Y-92244502D01*
X159641466Y-92268966D01*
X159557412Y-92344731D01*
X159383359Y-92578080D01*
X159258175Y-92840901D01*
X159213524Y-92988110D01*
X159334845Y-93218000D01*
X160528000Y-93218000D01*
X160528000Y-93198000D01*
X160782000Y-93198000D01*
X160782000Y-93218000D01*
X163068000Y-93218000D01*
X163068000Y-93198000D01*
X163322000Y-93198000D01*
X163322000Y-93218000D01*
X163342000Y-93218000D01*
X163342000Y-93472000D01*
X163322000Y-93472000D01*
X163322000Y-94665814D01*
X163551891Y-94786481D01*
X163826252Y-94689157D01*
X164076355Y-94540178D01*
X164292588Y-94345269D01*
X164338000Y-94284386D01*
X164338000Y-95758000D01*
X151130000Y-95758000D01*
X151105224Y-95760440D01*
X151081399Y-95767667D01*
X151059443Y-95779403D01*
X151040197Y-95795197D01*
X151024403Y-95814443D01*
X151012667Y-95836399D01*
X151005440Y-95860224D01*
X151003000Y-95885000D01*
X151003000Y-132715000D01*
X151005440Y-132739776D01*
X151012667Y-132763601D01*
X151024403Y-132785557D01*
X151040197Y-132804803D01*
X151059443Y-132820597D01*
X151081399Y-132832333D01*
X151105224Y-132839560D01*
X151130000Y-132842000D01*
X164338000Y-132842000D01*
X164338000Y-134297893D01*
X164141632Y-134101525D01*
X163898411Y-133939010D01*
X163628158Y-133827068D01*
X163341260Y-133770000D01*
X163048740Y-133770000D01*
X162761842Y-133827068D01*
X162491589Y-133939010D01*
X162248368Y-134101525D01*
X162116513Y-134233380D01*
X162094502Y-134160820D01*
X162035537Y-134050506D01*
X161956185Y-133953815D01*
X161859494Y-133874463D01*
X161749180Y-133815498D01*
X161629482Y-133779188D01*
X161505000Y-133766928D01*
X159805000Y-133766928D01*
X159680518Y-133779188D01*
X159560820Y-133815498D01*
X159450506Y-133874463D01*
X159353815Y-133953815D01*
X159274463Y-134050506D01*
X159215498Y-134160820D01*
X159179188Y-134280518D01*
X159166928Y-134405000D01*
X159166928Y-136105000D01*
X159179188Y-136229482D01*
X159215498Y-136349180D01*
X159274463Y-136459494D01*
X159353815Y-136556185D01*
X159450506Y-136635537D01*
X159560820Y-136694502D01*
X159641466Y-136718966D01*
X159557412Y-136794731D01*
X159383359Y-137028080D01*
X159258175Y-137290901D01*
X159213524Y-137438110D01*
X159334845Y-137668000D01*
X160528000Y-137668000D01*
X160528000Y-137648000D01*
X160782000Y-137648000D01*
X160782000Y-137668000D01*
X163068000Y-137668000D01*
X163068000Y-137648000D01*
X163322000Y-137648000D01*
X163322000Y-137668000D01*
X163342000Y-137668000D01*
X163342000Y-137922000D01*
X163322000Y-137922000D01*
X163322000Y-137942000D01*
X163068000Y-137942000D01*
X163068000Y-137922000D01*
X160782000Y-137922000D01*
X160782000Y-137942000D01*
X160528000Y-137942000D01*
X160528000Y-137922000D01*
X159334845Y-137922000D01*
X159213524Y-138151890D01*
X159258175Y-138299099D01*
X159383359Y-138561920D01*
X159557412Y-138795269D01*
X159715758Y-138938000D01*
X142746029Y-138938000D01*
X142782896Y-138869028D01*
X142868999Y-138585186D01*
X142898072Y-138290000D01*
X142898072Y-136540000D01*
X142868999Y-136244814D01*
X142782896Y-135960972D01*
X142643073Y-135699382D01*
X142540995Y-135575000D01*
X148271928Y-135575000D01*
X148271928Y-137475000D01*
X148284188Y-137599482D01*
X148320498Y-137719180D01*
X148379463Y-137829494D01*
X148458815Y-137926185D01*
X148555506Y-138005537D01*
X148665820Y-138064502D01*
X148785518Y-138100812D01*
X148910000Y-138113072D01*
X150810000Y-138113072D01*
X150934482Y-138100812D01*
X151054180Y-138064502D01*
X151164494Y-138005537D01*
X151261185Y-137926185D01*
X151340537Y-137829494D01*
X151371814Y-137770979D01*
X151609221Y-137929609D01*
X151897673Y-138049089D01*
X152203891Y-138110000D01*
X152516109Y-138110000D01*
X152822327Y-138049089D01*
X153110779Y-137929609D01*
X153370379Y-137756150D01*
X153591150Y-137535379D01*
X153610000Y-137507168D01*
X153628850Y-137535379D01*
X153849621Y-137756150D01*
X154109221Y-137929609D01*
X154397673Y-138049089D01*
X154703891Y-138110000D01*
X155016109Y-138110000D01*
X155322327Y-138049089D01*
X155610779Y-137929609D01*
X155870379Y-137756150D01*
X156091150Y-137535379D01*
X156264609Y-137275779D01*
X156384089Y-136987327D01*
X156445000Y-136681109D01*
X156445000Y-136368891D01*
X156384089Y-136062673D01*
X156264609Y-135774221D01*
X156091150Y-135514621D01*
X155870379Y-135293850D01*
X155610779Y-135120391D01*
X155322327Y-135000911D01*
X155016109Y-134940000D01*
X154703891Y-134940000D01*
X154397673Y-135000911D01*
X154109221Y-135120391D01*
X153849621Y-135293850D01*
X153628850Y-135514621D01*
X153610000Y-135542832D01*
X153591150Y-135514621D01*
X153370379Y-135293850D01*
X153110779Y-135120391D01*
X152822327Y-135000911D01*
X152516109Y-134940000D01*
X152203891Y-134940000D01*
X151897673Y-135000911D01*
X151609221Y-135120391D01*
X151371814Y-135279021D01*
X151340537Y-135220506D01*
X151261185Y-135123815D01*
X151164494Y-135044463D01*
X151054180Y-134985498D01*
X150934482Y-134949188D01*
X150810000Y-134936928D01*
X148910000Y-134936928D01*
X148785518Y-134949188D01*
X148665820Y-134985498D01*
X148555506Y-135044463D01*
X148458815Y-135123815D01*
X148379463Y-135220506D01*
X148320498Y-135330820D01*
X148284188Y-135450518D01*
X148271928Y-135575000D01*
X142540995Y-135575000D01*
X142454903Y-135470097D01*
X142225618Y-135281927D01*
X141964028Y-135142104D01*
X141835357Y-135103072D01*
X145260000Y-135103072D01*
X145384482Y-135090812D01*
X145504180Y-135054502D01*
X145614494Y-134995537D01*
X145711185Y-134916185D01*
X145790537Y-134819494D01*
X145849502Y-134709180D01*
X145885812Y-134589482D01*
X145898072Y-134465000D01*
X145898072Y-131425000D01*
X146701928Y-131425000D01*
X146714188Y-131549482D01*
X146750498Y-131669180D01*
X146809463Y-131779494D01*
X146888815Y-131876185D01*
X146985506Y-131955537D01*
X147095820Y-132014502D01*
X147215518Y-132050812D01*
X147340000Y-132063072D01*
X148304250Y-132060000D01*
X148463000Y-131901250D01*
X148463000Y-130302000D01*
X148717000Y-130302000D01*
X148717000Y-131901250D01*
X148875750Y-132060000D01*
X149840000Y-132063072D01*
X149964482Y-132050812D01*
X150084180Y-132014502D01*
X150194494Y-131955537D01*
X150291185Y-131876185D01*
X150370537Y-131779494D01*
X150429502Y-131669180D01*
X150465812Y-131549482D01*
X150478072Y-131425000D01*
X150475000Y-130460750D01*
X150316250Y-130302000D01*
X148717000Y-130302000D01*
X148463000Y-130302000D01*
X146863750Y-130302000D01*
X146705000Y-130460750D01*
X146701928Y-131425000D01*
X145898072Y-131425000D01*
X145898072Y-130965000D01*
X145885812Y-130840518D01*
X145849502Y-130720820D01*
X145790537Y-130610506D01*
X145711185Y-130513815D01*
X145614494Y-130434463D01*
X145504180Y-130375498D01*
X145384482Y-130339188D01*
X145260000Y-130326928D01*
X141760000Y-130326928D01*
X141635518Y-130339188D01*
X141515820Y-130375498D01*
X141405506Y-130434463D01*
X141308815Y-130513815D01*
X141229463Y-130610506D01*
X141170498Y-130720820D01*
X141134188Y-130840518D01*
X141121928Y-130965000D01*
X141121928Y-134465000D01*
X141134188Y-134589482D01*
X141170498Y-134709180D01*
X141229463Y-134819494D01*
X141308815Y-134916185D01*
X141405506Y-134995537D01*
X141482131Y-135036494D01*
X141385000Y-135026928D01*
X139635000Y-135026928D01*
X139339814Y-135056001D01*
X139055972Y-135142104D01*
X138794382Y-135281927D01*
X138565097Y-135470097D01*
X138376927Y-135699382D01*
X138237104Y-135960972D01*
X138151001Y-136244814D01*
X138121928Y-136540000D01*
X138121928Y-138290000D01*
X138151001Y-138585186D01*
X138237104Y-138869028D01*
X138273971Y-138938000D01*
X134112000Y-138938000D01*
X134112000Y-127463837D01*
X134155000Y-127468072D01*
X136355000Y-127468072D01*
X136479482Y-127455812D01*
X136599180Y-127419502D01*
X136709494Y-127360537D01*
X136806185Y-127281185D01*
X136885537Y-127184494D01*
X136944502Y-127074180D01*
X136980812Y-126954482D01*
X136993072Y-126830000D01*
X136993072Y-125608373D01*
X138563523Y-124037923D01*
X138607133Y-124002133D01*
X138749968Y-123828089D01*
X138856103Y-123629523D01*
X138921461Y-123414067D01*
X138938000Y-123246146D01*
X138938000Y-123246140D01*
X138943529Y-123190001D01*
X138938000Y-123133862D01*
X138938000Y-119436138D01*
X138943529Y-119379999D01*
X138938000Y-119323860D01*
X138938000Y-119323854D01*
X138921461Y-119155933D01*
X138856103Y-118940477D01*
X138749968Y-118741911D01*
X138652360Y-118622976D01*
X138642924Y-118611478D01*
X138642923Y-118611477D01*
X138607133Y-118567867D01*
X138563524Y-118532078D01*
X137372927Y-117341482D01*
X137337133Y-117297867D01*
X137163089Y-117155032D01*
X136993072Y-117064157D01*
X136993072Y-117010000D01*
X136980812Y-116885518D01*
X136944502Y-116765820D01*
X136885537Y-116655506D01*
X136806185Y-116558815D01*
X136709494Y-116479463D01*
X136599180Y-116420498D01*
X136479482Y-116384188D01*
X136355000Y-116371928D01*
X134155000Y-116371928D01*
X134112000Y-116376163D01*
X134112000Y-116033837D01*
X134155000Y-116038072D01*
X136355000Y-116038072D01*
X136479482Y-116025812D01*
X136599180Y-115989502D01*
X136709494Y-115930537D01*
X136806185Y-115851185D01*
X136885537Y-115754494D01*
X136924728Y-115681173D01*
X140306054Y-119062500D01*
X139566478Y-119802077D01*
X139522868Y-119837867D01*
X139380033Y-120011911D01*
X139283703Y-120192133D01*
X139273898Y-120210477D01*
X139208539Y-120425933D01*
X139186471Y-120650000D01*
X139192001Y-120706149D01*
X139192000Y-127161553D01*
X136741478Y-129612077D01*
X136697868Y-129647867D01*
X136555033Y-129821911D01*
X136519040Y-129889250D01*
X136448898Y-130020477D01*
X136383539Y-130235933D01*
X136368339Y-130390262D01*
X136228808Y-130432589D01*
X135988829Y-130560860D01*
X135778485Y-130733485D01*
X135605860Y-130943829D01*
X135477589Y-131183808D01*
X135398599Y-131444201D01*
X135371928Y-131715000D01*
X135371928Y-133715000D01*
X135398599Y-133985799D01*
X135477589Y-134246192D01*
X135605860Y-134486171D01*
X135778485Y-134696515D01*
X135988829Y-134869140D01*
X136228808Y-134997411D01*
X136489201Y-135076401D01*
X136760000Y-135103072D01*
X138260000Y-135103072D01*
X138530799Y-135076401D01*
X138791192Y-134997411D01*
X139031171Y-134869140D01*
X139241515Y-134696515D01*
X139414140Y-134486171D01*
X139542411Y-134246192D01*
X139621401Y-133985799D01*
X139648072Y-133715000D01*
X139648072Y-131715000D01*
X139621401Y-131444201D01*
X139542411Y-131183808D01*
X139414140Y-130943829D01*
X139241515Y-130733485D01*
X139031171Y-130560860D01*
X139027531Y-130558914D01*
X140661446Y-128925000D01*
X146701928Y-128925000D01*
X146705000Y-129889250D01*
X146863750Y-130048000D01*
X148463000Y-130048000D01*
X148463000Y-128448750D01*
X148717000Y-128448750D01*
X148717000Y-130048000D01*
X150316250Y-130048000D01*
X150475000Y-129889250D01*
X150478072Y-128925000D01*
X150465812Y-128800518D01*
X150429502Y-128680820D01*
X150370537Y-128570506D01*
X150291185Y-128473815D01*
X150194494Y-128394463D01*
X150084180Y-128335498D01*
X149964482Y-128299188D01*
X149840000Y-128286928D01*
X148875750Y-128290000D01*
X148717000Y-128448750D01*
X148463000Y-128448750D01*
X148304250Y-128290000D01*
X147340000Y-128286928D01*
X147215518Y-128299188D01*
X147095820Y-128335498D01*
X146985506Y-128394463D01*
X146888815Y-128473815D01*
X146809463Y-128570506D01*
X146750498Y-128680820D01*
X146714188Y-128800518D01*
X146701928Y-128925000D01*
X140661446Y-128925000D01*
X141103529Y-128482918D01*
X141147133Y-128447133D01*
X141182918Y-128403529D01*
X141182924Y-128403523D01*
X141289967Y-128273090D01*
X141289968Y-128273089D01*
X141396103Y-128074523D01*
X141461461Y-127859067D01*
X141478000Y-127691146D01*
X141478000Y-127691140D01*
X141483529Y-127635001D01*
X141478000Y-127578862D01*
X141478000Y-125559117D01*
X143680000Y-125559117D01*
X143680000Y-125900883D01*
X143746675Y-126236081D01*
X143877463Y-126551831D01*
X144067337Y-126835998D01*
X144309002Y-127077663D01*
X144593169Y-127267537D01*
X144908919Y-127398325D01*
X145244117Y-127465000D01*
X145585883Y-127465000D01*
X145921081Y-127398325D01*
X146236831Y-127267537D01*
X146520998Y-127077663D01*
X146762663Y-126835998D01*
X146952537Y-126551831D01*
X147083325Y-126236081D01*
X147150000Y-125900883D01*
X147150000Y-125559117D01*
X147083325Y-125223919D01*
X146952537Y-124908169D01*
X146762663Y-124624002D01*
X146520998Y-124382337D01*
X146236831Y-124192463D01*
X145921081Y-124061675D01*
X145585883Y-123995000D01*
X145244117Y-123995000D01*
X144908919Y-124061675D01*
X144593169Y-124192463D01*
X144309002Y-124382337D01*
X144067337Y-124624002D01*
X143877463Y-124908169D01*
X143746675Y-125223919D01*
X143680000Y-125559117D01*
X141478000Y-125559117D01*
X141478000Y-122316122D01*
X143725825Y-122316122D01*
X143790425Y-122529094D01*
X143940469Y-122834329D01*
X144147178Y-123104427D01*
X144402609Y-123329008D01*
X144696946Y-123499442D01*
X145018877Y-123609179D01*
X145288000Y-123491600D01*
X145288000Y-122047000D01*
X145542000Y-122047000D01*
X145542000Y-123491600D01*
X145811123Y-123609179D01*
X146133054Y-123499442D01*
X146427391Y-123329008D01*
X146682822Y-123104427D01*
X146889531Y-122834329D01*
X147039575Y-122529094D01*
X147104175Y-122316122D01*
X146986125Y-122047000D01*
X145542000Y-122047000D01*
X145288000Y-122047000D01*
X143843875Y-122047000D01*
X143725825Y-122316122D01*
X141478000Y-122316122D01*
X141478000Y-121523878D01*
X143725825Y-121523878D01*
X143843875Y-121793000D01*
X145288000Y-121793000D01*
X145288000Y-120348400D01*
X145542000Y-120348400D01*
X145542000Y-121793000D01*
X146986125Y-121793000D01*
X147104175Y-121523878D01*
X147039575Y-121310906D01*
X146889531Y-121005671D01*
X146682822Y-120735573D01*
X146427391Y-120510992D01*
X146133054Y-120340558D01*
X145811123Y-120230821D01*
X145542000Y-120348400D01*
X145288000Y-120348400D01*
X145018877Y-120230821D01*
X144696946Y-120340558D01*
X144402609Y-120510992D01*
X144147178Y-120735573D01*
X143940469Y-121005671D01*
X143790425Y-121310906D01*
X143725825Y-121523878D01*
X141478000Y-121523878D01*
X141478000Y-121123445D01*
X142691025Y-119910421D01*
X142734633Y-119874633D01*
X142770420Y-119831026D01*
X142770424Y-119831022D01*
X142770428Y-119831017D01*
X143348446Y-119253000D01*
X144104339Y-119253000D01*
X144309002Y-119457663D01*
X144593169Y-119647537D01*
X144908919Y-119778325D01*
X145244117Y-119845000D01*
X145585883Y-119845000D01*
X145921081Y-119778325D01*
X146236831Y-119647537D01*
X146520998Y-119457663D01*
X146739996Y-119238665D01*
X147790000Y-119238665D01*
X147790000Y-119521335D01*
X147845147Y-119798574D01*
X147953320Y-120059727D01*
X148110363Y-120294759D01*
X148310241Y-120494637D01*
X148545273Y-120651680D01*
X148806426Y-120759853D01*
X149083665Y-120815000D01*
X149366335Y-120815000D01*
X149643574Y-120759853D01*
X149904727Y-120651680D01*
X150139759Y-120494637D01*
X150339637Y-120294759D01*
X150496680Y-120059727D01*
X150604853Y-119798574D01*
X150660000Y-119521335D01*
X150660000Y-119238665D01*
X150604853Y-118961426D01*
X150496680Y-118700273D01*
X150339637Y-118465241D01*
X150139759Y-118265363D01*
X149904727Y-118108320D01*
X149643574Y-118000147D01*
X149366335Y-117945000D01*
X149083665Y-117945000D01*
X148806426Y-118000147D01*
X148545273Y-118108320D01*
X148310241Y-118265363D01*
X148110363Y-118465241D01*
X147953320Y-118700273D01*
X147845147Y-118961426D01*
X147790000Y-119238665D01*
X146739996Y-119238665D01*
X146762663Y-119215998D01*
X146952537Y-118931831D01*
X147083325Y-118616081D01*
X147150000Y-118280883D01*
X147150000Y-117939117D01*
X147083325Y-117603919D01*
X146952537Y-117288169D01*
X146762663Y-117004002D01*
X146520998Y-116762337D01*
X146236831Y-116572463D01*
X145921081Y-116441675D01*
X145585883Y-116375000D01*
X145244117Y-116375000D01*
X144908919Y-116441675D01*
X144593169Y-116572463D01*
X144309002Y-116762337D01*
X144104339Y-116967000D01*
X142931138Y-116967000D01*
X142874999Y-116961471D01*
X142818860Y-116967000D01*
X142818854Y-116967000D01*
X142673600Y-116981306D01*
X142650932Y-116983539D01*
X142585574Y-117003365D01*
X142435477Y-117048897D01*
X142236911Y-117155032D01*
X142062867Y-117297867D01*
X142027077Y-117341477D01*
X141922500Y-117446054D01*
X139172568Y-114696122D01*
X143725825Y-114696122D01*
X143790425Y-114909094D01*
X143940469Y-115214329D01*
X144147178Y-115484427D01*
X144402609Y-115709008D01*
X144696946Y-115879442D01*
X145018877Y-115989179D01*
X145288000Y-115871600D01*
X145288000Y-114427000D01*
X145542000Y-114427000D01*
X145542000Y-115871600D01*
X145811123Y-115989179D01*
X146133054Y-115879442D01*
X146427391Y-115709008D01*
X146682822Y-115484427D01*
X146889531Y-115214329D01*
X147039575Y-114909094D01*
X147104175Y-114696122D01*
X146986125Y-114427000D01*
X145542000Y-114427000D01*
X145288000Y-114427000D01*
X143843875Y-114427000D01*
X143725825Y-114696122D01*
X139172568Y-114696122D01*
X138380324Y-113903878D01*
X143725825Y-113903878D01*
X143843875Y-114173000D01*
X145288000Y-114173000D01*
X145288000Y-112728400D01*
X145542000Y-112728400D01*
X145542000Y-114173000D01*
X146986125Y-114173000D01*
X147104175Y-113903878D01*
X147039575Y-113690906D01*
X146889531Y-113385671D01*
X146682822Y-113115573D01*
X146427391Y-112890992D01*
X146133054Y-112720558D01*
X145811123Y-112610821D01*
X145542000Y-112728400D01*
X145288000Y-112728400D01*
X145018877Y-112610821D01*
X144696946Y-112720558D01*
X144402609Y-112890992D01*
X144147178Y-113115573D01*
X143940469Y-113385671D01*
X143790425Y-113690906D01*
X143725825Y-113903878D01*
X138380324Y-113903878D01*
X138007927Y-113531482D01*
X137972133Y-113487867D01*
X137798089Y-113345032D01*
X137599523Y-113238897D01*
X137384067Y-113173539D01*
X137216146Y-113157000D01*
X137216139Y-113157000D01*
X137160000Y-113151471D01*
X137103861Y-113157000D01*
X136988837Y-113157000D01*
X136980812Y-113075518D01*
X136944502Y-112955820D01*
X136885537Y-112845506D01*
X136806185Y-112748815D01*
X136709494Y-112669463D01*
X136599180Y-112610498D01*
X136479482Y-112574188D01*
X136355000Y-112561928D01*
X134155000Y-112561928D01*
X134112000Y-112566163D01*
X134112000Y-109240000D01*
X143526928Y-109240000D01*
X143526928Y-111740000D01*
X143539188Y-111864482D01*
X143575498Y-111984180D01*
X143634463Y-112094494D01*
X143713815Y-112191185D01*
X143810506Y-112270537D01*
X143920820Y-112329502D01*
X144040518Y-112365812D01*
X144165000Y-112378072D01*
X146665000Y-112378072D01*
X146789482Y-112365812D01*
X146909180Y-112329502D01*
X147019494Y-112270537D01*
X147116185Y-112191185D01*
X147195537Y-112094494D01*
X147254502Y-111984180D01*
X147290812Y-111864482D01*
X147303072Y-111740000D01*
X147303072Y-111618665D01*
X147790000Y-111618665D01*
X147790000Y-111901335D01*
X147845147Y-112178574D01*
X147953320Y-112439727D01*
X148110363Y-112674759D01*
X148310241Y-112874637D01*
X148545273Y-113031680D01*
X148806426Y-113139853D01*
X149083665Y-113195000D01*
X149366335Y-113195000D01*
X149643574Y-113139853D01*
X149904727Y-113031680D01*
X150139759Y-112874637D01*
X150339637Y-112674759D01*
X150496680Y-112439727D01*
X150604853Y-112178574D01*
X150660000Y-111901335D01*
X150660000Y-111618665D01*
X150604853Y-111341426D01*
X150496680Y-111080273D01*
X150339637Y-110845241D01*
X150139759Y-110645363D01*
X149904727Y-110488320D01*
X149643574Y-110380147D01*
X149366335Y-110325000D01*
X149083665Y-110325000D01*
X148806426Y-110380147D01*
X148545273Y-110488320D01*
X148310241Y-110645363D01*
X148110363Y-110845241D01*
X147953320Y-111080273D01*
X147845147Y-111341426D01*
X147790000Y-111618665D01*
X147303072Y-111618665D01*
X147303072Y-109240000D01*
X147290812Y-109115518D01*
X147254502Y-108995820D01*
X147195537Y-108885506D01*
X147116185Y-108788815D01*
X147019494Y-108709463D01*
X146909180Y-108650498D01*
X146789482Y-108614188D01*
X146665000Y-108601928D01*
X144165000Y-108601928D01*
X144040518Y-108614188D01*
X143920820Y-108650498D01*
X143810506Y-108709463D01*
X143713815Y-108788815D01*
X143634463Y-108885506D01*
X143575498Y-108995820D01*
X143539188Y-109115518D01*
X143526928Y-109240000D01*
X134112000Y-109240000D01*
X134112000Y-105045000D01*
X134886928Y-105045000D01*
X134886928Y-107045000D01*
X134899188Y-107169482D01*
X134935498Y-107289180D01*
X134994463Y-107399494D01*
X135073815Y-107496185D01*
X135170506Y-107575537D01*
X135280820Y-107634502D01*
X135400518Y-107670812D01*
X135525000Y-107683072D01*
X137525000Y-107683072D01*
X137649482Y-107670812D01*
X137769180Y-107634502D01*
X137879494Y-107575537D01*
X137976185Y-107496185D01*
X138055537Y-107399494D01*
X138114502Y-107289180D01*
X138147496Y-107180413D01*
X140569192Y-107180413D01*
X140664956Y-107444814D01*
X140954571Y-107585704D01*
X141266108Y-107667384D01*
X141587595Y-107686718D01*
X141906675Y-107642961D01*
X142211088Y-107537795D01*
X142385044Y-107444814D01*
X142480808Y-107180413D01*
X141525000Y-106224605D01*
X140569192Y-107180413D01*
X138147496Y-107180413D01*
X138150812Y-107169482D01*
X138163072Y-107045000D01*
X138163072Y-106107595D01*
X139883282Y-106107595D01*
X139927039Y-106426675D01*
X140032205Y-106731088D01*
X140125186Y-106905044D01*
X140389587Y-107000808D01*
X141345395Y-106045000D01*
X141704605Y-106045000D01*
X142660413Y-107000808D01*
X142924814Y-106905044D01*
X143065704Y-106615429D01*
X143147384Y-106303892D01*
X143166718Y-105982405D01*
X143122961Y-105663325D01*
X143017795Y-105358912D01*
X142964293Y-105258816D01*
X145150000Y-105258816D01*
X145150000Y-105561184D01*
X145208989Y-105857743D01*
X145324701Y-106137095D01*
X145492688Y-106388505D01*
X145706495Y-106602312D01*
X145957905Y-106770299D01*
X146237257Y-106886011D01*
X146533816Y-106945000D01*
X146836184Y-106945000D01*
X147132743Y-106886011D01*
X147412095Y-106770299D01*
X147663505Y-106602312D01*
X147729944Y-106535873D01*
X147735498Y-106554180D01*
X147794463Y-106664494D01*
X147873815Y-106761185D01*
X147970506Y-106840537D01*
X148080820Y-106899502D01*
X148200518Y-106935812D01*
X148325000Y-106948072D01*
X148939250Y-106945000D01*
X149098000Y-106786250D01*
X149098000Y-105537000D01*
X149352000Y-105537000D01*
X149352000Y-106786250D01*
X149510750Y-106945000D01*
X150125000Y-106948072D01*
X150249482Y-106935812D01*
X150369180Y-106899502D01*
X150479494Y-106840537D01*
X150576185Y-106761185D01*
X150655537Y-106664494D01*
X150714502Y-106554180D01*
X150750812Y-106434482D01*
X150763072Y-106310000D01*
X150760000Y-105695750D01*
X150601250Y-105537000D01*
X149352000Y-105537000D01*
X149098000Y-105537000D01*
X149078000Y-105537000D01*
X149078000Y-105283000D01*
X149098000Y-105283000D01*
X149098000Y-104033750D01*
X149352000Y-104033750D01*
X149352000Y-105283000D01*
X150601250Y-105283000D01*
X150760000Y-105124250D01*
X150763072Y-104510000D01*
X150750812Y-104385518D01*
X150714502Y-104265820D01*
X150655537Y-104155506D01*
X150576185Y-104058815D01*
X150479494Y-103979463D01*
X150369180Y-103920498D01*
X150249482Y-103884188D01*
X150125000Y-103871928D01*
X149510750Y-103875000D01*
X149352000Y-104033750D01*
X149098000Y-104033750D01*
X148939250Y-103875000D01*
X148325000Y-103871928D01*
X148200518Y-103884188D01*
X148080820Y-103920498D01*
X147970506Y-103979463D01*
X147873815Y-104058815D01*
X147794463Y-104155506D01*
X147735498Y-104265820D01*
X147729944Y-104284127D01*
X147663505Y-104217688D01*
X147412095Y-104049701D01*
X147132743Y-103933989D01*
X146836184Y-103875000D01*
X146533816Y-103875000D01*
X146237257Y-103933989D01*
X145957905Y-104049701D01*
X145706495Y-104217688D01*
X145492688Y-104431495D01*
X145324701Y-104682905D01*
X145208989Y-104962257D01*
X145150000Y-105258816D01*
X142964293Y-105258816D01*
X142924814Y-105184956D01*
X142660413Y-105089192D01*
X141704605Y-106045000D01*
X141345395Y-106045000D01*
X140389587Y-105089192D01*
X140125186Y-105184956D01*
X139984296Y-105474571D01*
X139902616Y-105786108D01*
X139883282Y-106107595D01*
X138163072Y-106107595D01*
X138163072Y-105045000D01*
X138150812Y-104920518D01*
X138147497Y-104909587D01*
X140569192Y-104909587D01*
X141525000Y-105865395D01*
X142480808Y-104909587D01*
X142385044Y-104645186D01*
X142095429Y-104504296D01*
X141783892Y-104422616D01*
X141462405Y-104403282D01*
X141143325Y-104447039D01*
X140838912Y-104552205D01*
X140664956Y-104645186D01*
X140569192Y-104909587D01*
X138147497Y-104909587D01*
X138114502Y-104800820D01*
X138055537Y-104690506D01*
X137976185Y-104593815D01*
X137879494Y-104514463D01*
X137769180Y-104455498D01*
X137649482Y-104419188D01*
X137525000Y-104406928D01*
X135525000Y-104406928D01*
X135400518Y-104419188D01*
X135280820Y-104455498D01*
X135170506Y-104514463D01*
X135073815Y-104593815D01*
X134994463Y-104690506D01*
X134935498Y-104800820D01*
X134899188Y-104920518D01*
X134886928Y-105045000D01*
X134112000Y-105045000D01*
X134112000Y-96837500D01*
X136156928Y-96837500D01*
X136156928Y-98742500D01*
X136169188Y-98866982D01*
X136205498Y-98986680D01*
X136264463Y-99096994D01*
X136343815Y-99193685D01*
X136440506Y-99273037D01*
X136550820Y-99332002D01*
X136670518Y-99368312D01*
X136795000Y-99380572D01*
X138795000Y-99380572D01*
X138919482Y-99368312D01*
X139039180Y-99332002D01*
X139149494Y-99273037D01*
X139246185Y-99193685D01*
X139325537Y-99096994D01*
X139384502Y-98986680D01*
X139420812Y-98866982D01*
X139433072Y-98742500D01*
X139433072Y-96990000D01*
X142071928Y-96990000D01*
X142071928Y-98590000D01*
X142084188Y-98714482D01*
X142120498Y-98834180D01*
X142179463Y-98944494D01*
X142258815Y-99041185D01*
X142355506Y-99120537D01*
X142465820Y-99179502D01*
X142585518Y-99215812D01*
X142710000Y-99228072D01*
X144310000Y-99228072D01*
X144434482Y-99215812D01*
X144554180Y-99179502D01*
X144664494Y-99120537D01*
X144761185Y-99041185D01*
X144840537Y-98944494D01*
X144899502Y-98834180D01*
X144915117Y-98782702D01*
X145196903Y-98782702D01*
X145268486Y-99026671D01*
X145523996Y-99147571D01*
X145798184Y-99216300D01*
X146080512Y-99230217D01*
X146360130Y-99188787D01*
X146626292Y-99093603D01*
X146751514Y-99026671D01*
X146823097Y-98782702D01*
X146010000Y-97969605D01*
X145196903Y-98782702D01*
X144915117Y-98782702D01*
X144935812Y-98714482D01*
X144948072Y-98590000D01*
X144948072Y-98582785D01*
X145017298Y-98603097D01*
X145830395Y-97790000D01*
X146189605Y-97790000D01*
X147002702Y-98603097D01*
X147246671Y-98531514D01*
X147367571Y-98276004D01*
X147436300Y-98001816D01*
X147450217Y-97719488D01*
X147408787Y-97439870D01*
X147313603Y-97173708D01*
X147246671Y-97048486D01*
X147002702Y-96976903D01*
X146189605Y-97790000D01*
X145830395Y-97790000D01*
X145017298Y-96976903D01*
X144948072Y-96997215D01*
X144948072Y-96990000D01*
X144935812Y-96865518D01*
X144915118Y-96797298D01*
X145196903Y-96797298D01*
X146010000Y-97610395D01*
X146823097Y-96797298D01*
X146751514Y-96553329D01*
X146496004Y-96432429D01*
X146221816Y-96363700D01*
X145939488Y-96349783D01*
X145659870Y-96391213D01*
X145393708Y-96486397D01*
X145268486Y-96553329D01*
X145196903Y-96797298D01*
X144915118Y-96797298D01*
X144899502Y-96745820D01*
X144840537Y-96635506D01*
X144761185Y-96538815D01*
X144664494Y-96459463D01*
X144554180Y-96400498D01*
X144434482Y-96364188D01*
X144310000Y-96351928D01*
X142710000Y-96351928D01*
X142585518Y-96364188D01*
X142465820Y-96400498D01*
X142355506Y-96459463D01*
X142258815Y-96538815D01*
X142179463Y-96635506D01*
X142120498Y-96745820D01*
X142084188Y-96865518D01*
X142071928Y-96990000D01*
X139433072Y-96990000D01*
X139433072Y-96837500D01*
X139420812Y-96713018D01*
X139384502Y-96593320D01*
X139325537Y-96483006D01*
X139246185Y-96386315D01*
X139149494Y-96306963D01*
X139057781Y-96257941D01*
X139170969Y-96116923D01*
X139314571Y-95841094D01*
X139385563Y-95622980D01*
X139265594Y-95377000D01*
X137922000Y-95377000D01*
X137922000Y-95397000D01*
X137668000Y-95397000D01*
X137668000Y-95377000D01*
X136324406Y-95377000D01*
X136204437Y-95622980D01*
X136275429Y-95841094D01*
X136419031Y-96116923D01*
X136532219Y-96257941D01*
X136440506Y-96306963D01*
X136343815Y-96386315D01*
X136264463Y-96483006D01*
X136205498Y-96593320D01*
X136169188Y-96713018D01*
X136156928Y-96837500D01*
X134112000Y-96837500D01*
X134112000Y-92710000D01*
X136152319Y-92710000D01*
X136182970Y-93021204D01*
X136273745Y-93320449D01*
X136421155Y-93596235D01*
X136619537Y-93837963D01*
X136798899Y-93985163D01*
X136613685Y-94140563D01*
X136419031Y-94383077D01*
X136275429Y-94658906D01*
X136204437Y-94877020D01*
X136324406Y-95123000D01*
X137668000Y-95123000D01*
X137668000Y-95103000D01*
X137922000Y-95103000D01*
X137922000Y-95123000D01*
X139265594Y-95123000D01*
X139385563Y-94877020D01*
X139314571Y-94658906D01*
X139170969Y-94383077D01*
X138976315Y-94140563D01*
X138791101Y-93985163D01*
X138970463Y-93837963D01*
X139082135Y-93701890D01*
X159213524Y-93701890D01*
X159258175Y-93849099D01*
X159383359Y-94111920D01*
X159557412Y-94345269D01*
X159773645Y-94540178D01*
X160023748Y-94689157D01*
X160298109Y-94786481D01*
X160528000Y-94665814D01*
X160528000Y-93472000D01*
X160782000Y-93472000D01*
X160782000Y-94665814D01*
X161011891Y-94786481D01*
X161286252Y-94689157D01*
X161536355Y-94540178D01*
X161752588Y-94345269D01*
X161925000Y-94114120D01*
X162097412Y-94345269D01*
X162313645Y-94540178D01*
X162563748Y-94689157D01*
X162838109Y-94786481D01*
X163068000Y-94665814D01*
X163068000Y-93472000D01*
X160782000Y-93472000D01*
X160528000Y-93472000D01*
X159334845Y-93472000D01*
X159213524Y-93701890D01*
X139082135Y-93701890D01*
X139168845Y-93596235D01*
X139316255Y-93320449D01*
X139407030Y-93021204D01*
X139437681Y-92710000D01*
X139407030Y-92398796D01*
X139316255Y-92099551D01*
X139168845Y-91823765D01*
X138970463Y-91582037D01*
X138728735Y-91383655D01*
X138569730Y-91298665D01*
X140805000Y-91298665D01*
X140805000Y-91581335D01*
X140860147Y-91858574D01*
X140968320Y-92119727D01*
X141125363Y-92354759D01*
X141325241Y-92554637D01*
X141560273Y-92711680D01*
X141821426Y-92819853D01*
X142098665Y-92875000D01*
X142381335Y-92875000D01*
X142658574Y-92819853D01*
X142919727Y-92711680D01*
X143154759Y-92554637D01*
X143354637Y-92354759D01*
X143511680Y-92119727D01*
X143619853Y-91858574D01*
X143675000Y-91581335D01*
X143675000Y-91298665D01*
X148425000Y-91298665D01*
X148425000Y-91581335D01*
X148480147Y-91858574D01*
X148588320Y-92119727D01*
X148745363Y-92354759D01*
X148945241Y-92554637D01*
X149180273Y-92711680D01*
X149441426Y-92819853D01*
X149718665Y-92875000D01*
X150001335Y-92875000D01*
X150278574Y-92819853D01*
X150539727Y-92711680D01*
X150774759Y-92554637D01*
X150974637Y-92354759D01*
X151131680Y-92119727D01*
X151212828Y-91923816D01*
X152135000Y-91923816D01*
X152135000Y-92226184D01*
X152193989Y-92522743D01*
X152309701Y-92802095D01*
X152477688Y-93053505D01*
X152691495Y-93267312D01*
X152942905Y-93435299D01*
X153222257Y-93551011D01*
X153518816Y-93610000D01*
X153821184Y-93610000D01*
X154117743Y-93551011D01*
X154397095Y-93435299D01*
X154648505Y-93267312D01*
X154714944Y-93200873D01*
X154720498Y-93219180D01*
X154779463Y-93329494D01*
X154858815Y-93426185D01*
X154955506Y-93505537D01*
X155065820Y-93564502D01*
X155185518Y-93600812D01*
X155310000Y-93613072D01*
X155924250Y-93610000D01*
X156083000Y-93451250D01*
X156083000Y-92202000D01*
X156337000Y-92202000D01*
X156337000Y-93451250D01*
X156495750Y-93610000D01*
X157110000Y-93613072D01*
X157234482Y-93600812D01*
X157354180Y-93564502D01*
X157464494Y-93505537D01*
X157561185Y-93426185D01*
X157640537Y-93329494D01*
X157699502Y-93219180D01*
X157735812Y-93099482D01*
X157748072Y-92975000D01*
X157745000Y-92360750D01*
X157586250Y-92202000D01*
X156337000Y-92202000D01*
X156083000Y-92202000D01*
X156063000Y-92202000D01*
X156063000Y-91948000D01*
X156083000Y-91948000D01*
X156083000Y-90698750D01*
X156337000Y-90698750D01*
X156337000Y-91948000D01*
X157586250Y-91948000D01*
X157745000Y-91789250D01*
X157748072Y-91175000D01*
X157735812Y-91050518D01*
X157699502Y-90930820D01*
X157640537Y-90820506D01*
X157561185Y-90723815D01*
X157464494Y-90644463D01*
X157354180Y-90585498D01*
X157234482Y-90549188D01*
X157110000Y-90536928D01*
X156495750Y-90540000D01*
X156337000Y-90698750D01*
X156083000Y-90698750D01*
X155924250Y-90540000D01*
X155310000Y-90536928D01*
X155185518Y-90549188D01*
X155065820Y-90585498D01*
X154955506Y-90644463D01*
X154858815Y-90723815D01*
X154779463Y-90820506D01*
X154720498Y-90930820D01*
X154714944Y-90949127D01*
X154648505Y-90882688D01*
X154397095Y-90714701D01*
X154117743Y-90598989D01*
X153821184Y-90540000D01*
X153518816Y-90540000D01*
X153222257Y-90598989D01*
X152942905Y-90714701D01*
X152691495Y-90882688D01*
X152477688Y-91096495D01*
X152309701Y-91347905D01*
X152193989Y-91627257D01*
X152135000Y-91923816D01*
X151212828Y-91923816D01*
X151239853Y-91858574D01*
X151295000Y-91581335D01*
X151295000Y-91298665D01*
X151239853Y-91021426D01*
X151131680Y-90760273D01*
X150974637Y-90525241D01*
X150774759Y-90325363D01*
X150539727Y-90168320D01*
X150278574Y-90060147D01*
X150001335Y-90005000D01*
X149718665Y-90005000D01*
X149441426Y-90060147D01*
X149180273Y-90168320D01*
X148945241Y-90325363D01*
X148745363Y-90525241D01*
X148588320Y-90760273D01*
X148480147Y-91021426D01*
X148425000Y-91298665D01*
X143675000Y-91298665D01*
X143619853Y-91021426D01*
X143511680Y-90760273D01*
X143354637Y-90525241D01*
X143154759Y-90325363D01*
X142919727Y-90168320D01*
X142658574Y-90060147D01*
X142381335Y-90005000D01*
X142098665Y-90005000D01*
X141821426Y-90060147D01*
X141560273Y-90168320D01*
X141325241Y-90325363D01*
X141125363Y-90525241D01*
X140968320Y-90760273D01*
X140860147Y-91021426D01*
X140805000Y-91298665D01*
X138569730Y-91298665D01*
X138452949Y-91236245D01*
X138153704Y-91145470D01*
X137920486Y-91122500D01*
X137669514Y-91122500D01*
X137436296Y-91145470D01*
X137137051Y-91236245D01*
X136861265Y-91383655D01*
X136619537Y-91582037D01*
X136421155Y-91823765D01*
X136273745Y-92099551D01*
X136182970Y-92398796D01*
X136152319Y-92710000D01*
X134112000Y-92710000D01*
X134112000Y-89662000D01*
X159241593Y-89662000D01*
X159215498Y-89710820D01*
G37*
%TD.AperFunction*%
%TD*%
M02*
