%TF.GenerationSoftware,KiCad,Pcbnew,(5.1.10)-1*%
%TF.CreationDate,2021-09-08T17:33:34-04:00*%
%TF.ProjectId,BreadboardPowerSupplyLee,42726561-6462-46f6-9172-64506f776572,0.0.1*%
%TF.SameCoordinates,Original*%
%TF.FileFunction,Soldermask,Top*%
%TF.FilePolarity,Negative*%
%FSLAX46Y46*%
G04 Gerber Fmt 4.6, Leading zero omitted, Abs format (unit mm)*
G04 Created by KiCad (PCBNEW (5.1.10)-1) date 2021-09-08 17:33:34*
%MOMM*%
%LPD*%
G01*
G04 APERTURE LIST*
%ADD10C,2.000000*%
%ADD11R,2.000000X2.000000*%
%ADD12C,1.600000*%
%ADD13R,1.600000X1.600000*%
%ADD14O,2.200000X2.200000*%
%ADD15R,2.200000X2.200000*%
%ADD16C,1.800000*%
%ADD17R,1.800000X1.800000*%
%ADD18R,3.500000X3.500000*%
%ADD19O,1.700000X1.700000*%
%ADD20R,1.700000X1.700000*%
%ADD21O,1.600000X1.600000*%
%ADD22C,1.900000*%
%ADD23R,1.900000X1.900000*%
%ADD24O,2.000000X1.905000*%
%ADD25R,2.000000X1.905000*%
%ADD26R,2.500000X2.500000*%
G04 APERTURE END LIST*
D10*
%TO.C,C1*%
X141525000Y-106045000D03*
D11*
X136525000Y-106045000D03*
%TD*%
D12*
%TO.C,C2*%
X146010000Y-97790000D03*
D13*
X143510000Y-97790000D03*
%TD*%
D14*
%TO.C,D1*%
X145415000Y-125730000D03*
D15*
X135255000Y-125730000D03*
%TD*%
D14*
%TO.C,D2*%
X145415000Y-121920000D03*
D15*
X135255000Y-121920000D03*
%TD*%
D14*
%TO.C,D3*%
X145415000Y-118110000D03*
D15*
X135255000Y-118110000D03*
%TD*%
D14*
%TO.C,D4*%
X145415000Y-114300000D03*
D15*
X135255000Y-114300000D03*
%TD*%
D16*
%TO.C,D5*%
X146685000Y-105410000D03*
D17*
X149225000Y-105410000D03*
%TD*%
D16*
%TO.C,D6*%
X153670000Y-92075000D03*
D17*
X156210000Y-92075000D03*
%TD*%
%TO.C,J1*%
G36*
G01*
X138760000Y-138290000D02*
X138760000Y-136540000D01*
G75*
G02*
X139635000Y-135665000I875000J0D01*
G01*
X141385000Y-135665000D01*
G75*
G02*
X142260000Y-136540000I0J-875000D01*
G01*
X142260000Y-138290000D01*
G75*
G02*
X141385000Y-139165000I-875000J0D01*
G01*
X139635000Y-139165000D01*
G75*
G02*
X138760000Y-138290000I0J875000D01*
G01*
G37*
G36*
G01*
X136010000Y-133715000D02*
X136010000Y-131715000D01*
G75*
G02*
X136760000Y-130965000I750000J0D01*
G01*
X138260000Y-130965000D01*
G75*
G02*
X139010000Y-131715000I0J-750000D01*
G01*
X139010000Y-133715000D01*
G75*
G02*
X138260000Y-134465000I-750000J0D01*
G01*
X136760000Y-134465000D01*
G75*
G02*
X136010000Y-133715000I0J750000D01*
G01*
G37*
D18*
X143510000Y-132715000D03*
%TD*%
D19*
%TO.C,J2*%
X163195000Y-93345000D03*
X160655000Y-93345000D03*
X163195000Y-90805000D03*
D20*
X160655000Y-90805000D03*
%TD*%
D19*
%TO.C,J3*%
X163195000Y-137795000D03*
X160655000Y-137795000D03*
X163195000Y-135255000D03*
D20*
X160655000Y-135255000D03*
%TD*%
D21*
%TO.C,R1*%
X149225000Y-111760000D03*
D12*
X149225000Y-119380000D03*
%TD*%
D21*
%TO.C,R2*%
X149860000Y-91440000D03*
D12*
X142240000Y-91440000D03*
%TD*%
D22*
%TO.C,SW1*%
X154860000Y-136525000D03*
X152360000Y-136525000D03*
D23*
X149860000Y-136525000D03*
%TD*%
D24*
%TO.C,U1*%
X137795000Y-92710000D03*
X137795000Y-95250000D03*
D25*
X137795000Y-97790000D03*
%TD*%
D26*
%TO.C,GND1*%
X148590000Y-130175000D03*
%TD*%
%TO.C,Vcc1*%
X145415000Y-110490000D03*
%TD*%
M02*
