%TF.GenerationSoftware,KiCad,Pcbnew,(5.1.10)-1*%
%TF.CreationDate,2021-09-08T17:33:34-04:00*%
%TF.ProjectId,BreadboardPowerSupplyLee,42726561-6462-46f6-9172-64506f776572,0.0.1*%
%TF.SameCoordinates,Original*%
%TF.FileFunction,Copper,L1,Top*%
%TF.FilePolarity,Positive*%
%FSLAX46Y46*%
G04 Gerber Fmt 4.6, Leading zero omitted, Abs format (unit mm)*
G04 Created by KiCad (PCBNEW (5.1.10)-1) date 2021-09-08 17:33:34*
%MOMM*%
%LPD*%
G01*
G04 APERTURE LIST*
%TA.AperFunction,ComponentPad*%
%ADD10C,2.000000*%
%TD*%
%TA.AperFunction,ComponentPad*%
%ADD11R,2.000000X2.000000*%
%TD*%
%TA.AperFunction,ComponentPad*%
%ADD12C,1.600000*%
%TD*%
%TA.AperFunction,ComponentPad*%
%ADD13R,1.600000X1.600000*%
%TD*%
%TA.AperFunction,ComponentPad*%
%ADD14O,2.200000X2.200000*%
%TD*%
%TA.AperFunction,ComponentPad*%
%ADD15R,2.200000X2.200000*%
%TD*%
%TA.AperFunction,ComponentPad*%
%ADD16C,1.800000*%
%TD*%
%TA.AperFunction,ComponentPad*%
%ADD17R,1.800000X1.800000*%
%TD*%
%TA.AperFunction,ComponentPad*%
%ADD18R,3.500000X3.500000*%
%TD*%
%TA.AperFunction,ComponentPad*%
%ADD19O,1.700000X1.700000*%
%TD*%
%TA.AperFunction,ComponentPad*%
%ADD20R,1.700000X1.700000*%
%TD*%
%TA.AperFunction,ComponentPad*%
%ADD21O,1.600000X1.600000*%
%TD*%
%TA.AperFunction,ComponentPad*%
%ADD22C,1.900000*%
%TD*%
%TA.AperFunction,ComponentPad*%
%ADD23R,1.900000X1.900000*%
%TD*%
%TA.AperFunction,ComponentPad*%
%ADD24O,2.000000X1.905000*%
%TD*%
%TA.AperFunction,ComponentPad*%
%ADD25R,2.000000X1.905000*%
%TD*%
%TA.AperFunction,ComponentPad*%
%ADD26R,2.500000X2.500000*%
%TD*%
%TA.AperFunction,Conductor*%
%ADD27C,1.016000*%
%TD*%
%TA.AperFunction,Conductor*%
%ADD28C,0.250000*%
%TD*%
G04 APERTURE END LIST*
D10*
%TO.P,C1,2*%
%TO.N,GND*%
X141525000Y-106045000D03*
D11*
%TO.P,C1,1*%
%TO.N,/VDCraw*%
X136525000Y-106045000D03*
%TD*%
D12*
%TO.P,C2,2*%
%TO.N,GND*%
X146010000Y-97790000D03*
D13*
%TO.P,C2,1*%
%TO.N,/Vout*%
X143510000Y-97790000D03*
%TD*%
D14*
%TO.P,D1,2*%
%TO.N,/VSwitched*%
X145415000Y-125730000D03*
D15*
%TO.P,D1,1*%
%TO.N,/VDCraw*%
X135255000Y-125730000D03*
%TD*%
D14*
%TO.P,D2,2*%
%TO.N,GND*%
X145415000Y-121920000D03*
D15*
%TO.P,D2,1*%
%TO.N,/VSwitched*%
X135255000Y-121920000D03*
%TD*%
D14*
%TO.P,D3,2*%
%TO.N,/VinReference*%
X145415000Y-118110000D03*
D15*
%TO.P,D3,1*%
%TO.N,/VDCraw*%
X135255000Y-118110000D03*
%TD*%
D14*
%TO.P,D4,2*%
%TO.N,GND*%
X145415000Y-114300000D03*
D15*
%TO.P,D4,1*%
%TO.N,/VinReference*%
X135255000Y-114300000D03*
%TD*%
D16*
%TO.P,D5,2*%
%TO.N,/PowerOn*%
X146685000Y-105410000D03*
D17*
%TO.P,D5,1*%
%TO.N,GND*%
X149225000Y-105410000D03*
%TD*%
D16*
%TO.P,D6,2*%
%TO.N,/RegOn*%
X153670000Y-92075000D03*
D17*
%TO.P,D6,1*%
%TO.N,GND*%
X156210000Y-92075000D03*
%TD*%
%TO.P,J1,3*%
%TO.N,Net-(J1-Pad3)*%
%TA.AperFunction,ComponentPad*%
G36*
G01*
X138760000Y-138290000D02*
X138760000Y-136540000D01*
G75*
G02*
X139635000Y-135665000I875000J0D01*
G01*
X141385000Y-135665000D01*
G75*
G02*
X142260000Y-136540000I0J-875000D01*
G01*
X142260000Y-138290000D01*
G75*
G02*
X141385000Y-139165000I-875000J0D01*
G01*
X139635000Y-139165000D01*
G75*
G02*
X138760000Y-138290000I0J875000D01*
G01*
G37*
%TD.AperFunction*%
%TO.P,J1,2*%
%TO.N,/VinReference*%
%TA.AperFunction,ComponentPad*%
G36*
G01*
X136010000Y-133715000D02*
X136010000Y-131715000D01*
G75*
G02*
X136760000Y-130965000I750000J0D01*
G01*
X138260000Y-130965000D01*
G75*
G02*
X139010000Y-131715000I0J-750000D01*
G01*
X139010000Y-133715000D01*
G75*
G02*
X138260000Y-134465000I-750000J0D01*
G01*
X136760000Y-134465000D01*
G75*
G02*
X136010000Y-133715000I0J750000D01*
G01*
G37*
%TD.AperFunction*%
D18*
%TO.P,J1,1*%
%TO.N,/Vin*%
X143510000Y-132715000D03*
%TD*%
D19*
%TO.P,J2,4*%
%TO.N,GND*%
X163195000Y-93345000D03*
%TO.P,J2,3*%
X160655000Y-93345000D03*
%TO.P,J2,2*%
%TO.N,/Vout*%
X163195000Y-90805000D03*
D20*
%TO.P,J2,1*%
X160655000Y-90805000D03*
%TD*%
D19*
%TO.P,J3,4*%
%TO.N,GND*%
X163195000Y-137795000D03*
%TO.P,J3,3*%
X160655000Y-137795000D03*
%TO.P,J3,2*%
%TO.N,/Vout*%
X163195000Y-135255000D03*
D20*
%TO.P,J3,1*%
X160655000Y-135255000D03*
%TD*%
D21*
%TO.P,R1,2*%
%TO.N,/PowerOn*%
X149225000Y-111760000D03*
D12*
%TO.P,R1,1*%
%TO.N,/VDCraw*%
X149225000Y-119380000D03*
%TD*%
D21*
%TO.P,R2,2*%
%TO.N,/RegOn*%
X149860000Y-91440000D03*
D12*
%TO.P,R2,1*%
%TO.N,/Vout*%
X142240000Y-91440000D03*
%TD*%
D22*
%TO.P,SW1,3*%
%TO.N,Net-(SW1-Pad3)*%
X154860000Y-136525000D03*
%TO.P,SW1,2*%
%TO.N,/Vin*%
X152360000Y-136525000D03*
D23*
%TO.P,SW1,1*%
%TO.N,/VSwitched*%
X149860000Y-136525000D03*
%TD*%
D24*
%TO.P,U1,3*%
%TO.N,/Vout*%
X137795000Y-92710000D03*
%TO.P,U1,2*%
%TO.N,GND*%
X137795000Y-95250000D03*
D25*
%TO.P,U1,1*%
%TO.N,/VDCraw*%
X137795000Y-97790000D03*
%TD*%
D26*
%TO.P,GND1,1*%
%TO.N,GND*%
X148590000Y-130175000D03*
%TD*%
%TO.P,Vcc1,1*%
%TO.N,/Vout*%
X145415000Y-110490000D03*
%TD*%
D27*
%TO.N,/VDCraw*%
X137795000Y-104775000D02*
X136525000Y-106045000D01*
X137795000Y-97790000D02*
X137795000Y-104775000D01*
X136525000Y-106045000D02*
X136525000Y-109220000D01*
X136525000Y-109220000D02*
X137795000Y-110490000D01*
X137795000Y-115570000D02*
X135255000Y-118110000D01*
X137795000Y-110490000D02*
X137795000Y-115570000D01*
X149225000Y-119380000D02*
X147955000Y-119380000D01*
X147955000Y-119380000D02*
X147320000Y-120015000D01*
X147320000Y-120015000D02*
X139700000Y-120015000D01*
X137795000Y-118110000D02*
X135255000Y-118110000D01*
X139700000Y-120015000D02*
X137795000Y-118110000D01*
%TO.N,/Vout*%
X137795000Y-92710000D02*
X140335000Y-92710000D01*
X143510000Y-95885000D02*
X143510000Y-97790000D01*
X140335000Y-92710000D02*
X143510000Y-95885000D01*
X140970000Y-92710000D02*
X140335000Y-92710000D01*
X142240000Y-91440000D02*
X140970000Y-92710000D01*
X143510000Y-95885000D02*
X144780000Y-94615000D01*
X156841602Y-94615000D02*
X158115000Y-93341602D01*
X144780000Y-94615000D02*
X156841602Y-94615000D01*
X158118398Y-93341602D02*
X160655000Y-90805000D01*
X158115000Y-93341602D02*
X158118398Y-93341602D01*
X160655000Y-90805000D02*
X163195000Y-90805000D01*
X160655000Y-135255000D02*
X163195000Y-135255000D01*
X151439010Y-132867010D02*
X150977990Y-132405990D01*
X156362010Y-132867010D02*
X151439010Y-132867010D01*
X144780000Y-102870000D02*
X143510000Y-101600000D01*
X157480000Y-133985000D02*
X156362010Y-132867010D01*
X159385000Y-133985000D02*
X157480000Y-133985000D01*
X143510000Y-101600000D02*
X143510000Y-97790000D01*
X160655000Y-135255000D02*
X159385000Y-133985000D01*
X144780000Y-109855000D02*
X145415000Y-110490000D01*
X144780000Y-102870000D02*
X144780000Y-109855000D01*
X150977990Y-132405990D02*
X150977990Y-117322990D01*
X147320000Y-112395000D02*
X145415000Y-110490000D01*
X147320000Y-113665000D02*
X147320000Y-112395000D01*
X150977990Y-117322990D02*
X147320000Y-113665000D01*
%TO.N,/VSwitched*%
X149860000Y-136525000D02*
X149860000Y-135890000D01*
X145415000Y-125730000D02*
X142875000Y-125730000D01*
X142875000Y-125730000D02*
X139065000Y-121920000D01*
X139065000Y-121920000D02*
X135255000Y-121920000D01*
X146577999Y-126892999D02*
X145415000Y-125730000D01*
X146577999Y-132607999D02*
X146577999Y-126892999D01*
X149860000Y-135890000D02*
X146577999Y-132607999D01*
D28*
%TO.N,/PowerOn*%
X149225000Y-107950000D02*
X146685000Y-105410000D01*
X149225000Y-111760000D02*
X149225000Y-107950000D01*
%TO.N,/RegOn*%
X153670000Y-92075000D02*
X153035000Y-92075000D01*
X152400000Y-91440000D02*
X149860000Y-91440000D01*
X153035000Y-92075000D02*
X152400000Y-91440000D01*
D27*
%TO.N,/Vin*%
X143510000Y-132715000D02*
X143510000Y-134620000D01*
X143510000Y-134620000D02*
X147802990Y-138912990D01*
X152360000Y-137296602D02*
X152360000Y-136525000D01*
X150743612Y-138912990D02*
X152360000Y-137296602D01*
X147802990Y-138912990D02*
X150743612Y-138912990D01*
%TD*%
M02*
