M48
; DRILL file {KiCad (5.1.10)-1} date 09/08/21 17:33:39
; FORMAT={-:-/ absolute / inch / decimal}
; #@! TF.CreationDate,2021-09-08T17:33:39-04:00
; #@! TF.GenerationSoftware,Kicad,Pcbnew,(5.1.10)-1
; #@! TF.FileFunction,Plated,1,2,PTH
FMAT,2
INCH
T1C0.0315
T2C0.0354
T3C0.0394
T4C0.0433
T5C0.0472
%
G90
G05
T1
X5.6Y-3.6
X5.65Y-3.85
X5.7484Y-3.85
X5.875Y-4.4
X5.875Y-4.7
X5.9Y-3.6
T2
X5.775Y-4.15
X5.875Y-4.15
X5.9Y-5.375
X5.9984Y-5.375
X6.05Y-3.625
X6.0969Y-5.375
X6.15Y-3.625
T3
X5.375Y-4.175
X5.5719Y-4.175
X6.325Y-3.575
X6.325Y-3.675
X6.325Y-5.325
X6.325Y-5.425
X6.425Y-3.575
X6.425Y-3.675
X6.425Y-5.325
X6.425Y-5.425
T4
X5.325Y-4.5
X5.325Y-4.65
X5.325Y-4.8
X5.325Y-4.95
X5.425Y-3.65
X5.425Y-3.75
X5.425Y-3.85
X5.725Y-4.5
X5.725Y-4.65
X5.725Y-4.8
X5.725Y-4.95
T5
X5.725Y-4.35
X5.85Y-5.125
T3
G00X5.4138Y-5.1856
M15
G01X5.4138Y-5.2644
M16
G05
G00X5.4925Y-5.41
M15
G01X5.5713Y-5.41
M16
G05
G00X5.65Y-5.1856
M15
G01X5.65Y-5.2644
M16
G05
T0
M30
