%TF.GenerationSoftware,KiCad,Pcbnew,(5.1.10)-1*%
%TF.CreationDate,2021-09-08T17:33:34-04:00*%
%TF.ProjectId,BreadboardPowerSupplyLee,42726561-6462-46f6-9172-64506f776572,0.0.1*%
%TF.SameCoordinates,Original*%
%TF.FileFunction,Legend,Top*%
%TF.FilePolarity,Positive*%
%FSLAX46Y46*%
G04 Gerber Fmt 4.6, Leading zero omitted, Abs format (unit mm)*
G04 Created by KiCad (PCBNEW (5.1.10)-1) date 2021-09-08 17:33:34*
%MOMM*%
%LPD*%
G01*
G04 APERTURE LIST*
%ADD10C,0.150000*%
%ADD11C,0.120000*%
%ADD12C,0.100000*%
G04 APERTURE END LIST*
D10*
X156837142Y-138565000D02*
X156741904Y-138517380D01*
X156599047Y-138517380D01*
X156456190Y-138565000D01*
X156360952Y-138660238D01*
X156313333Y-138755476D01*
X156265714Y-138945952D01*
X156265714Y-139088809D01*
X156313333Y-139279285D01*
X156360952Y-139374523D01*
X156456190Y-139469761D01*
X156599047Y-139517380D01*
X156694285Y-139517380D01*
X156837142Y-139469761D01*
X156884761Y-139422142D01*
X156884761Y-139088809D01*
X156694285Y-139088809D01*
X157313333Y-138850714D02*
X157313333Y-139517380D01*
X157313333Y-138945952D02*
X157360952Y-138898333D01*
X157456190Y-138850714D01*
X157599047Y-138850714D01*
X157694285Y-138898333D01*
X157741904Y-138993571D01*
X157741904Y-139517380D01*
X158646666Y-139517380D02*
X158646666Y-138517380D01*
X158646666Y-139469761D02*
X158551428Y-139517380D01*
X158360952Y-139517380D01*
X158265714Y-139469761D01*
X158218095Y-139422142D01*
X158170476Y-139326904D01*
X158170476Y-139041190D01*
X158218095Y-138945952D01*
X158265714Y-138898333D01*
X158360952Y-138850714D01*
X158551428Y-138850714D01*
X158646666Y-138898333D01*
X157559523Y-132167380D02*
X157892857Y-133167380D01*
X158226190Y-132167380D01*
X158988095Y-133119761D02*
X158892857Y-133167380D01*
X158702380Y-133167380D01*
X158607142Y-133119761D01*
X158559523Y-133072142D01*
X158511904Y-132976904D01*
X158511904Y-132691190D01*
X158559523Y-132595952D01*
X158607142Y-132548333D01*
X158702380Y-132500714D01*
X158892857Y-132500714D01*
X158988095Y-132548333D01*
X159845238Y-133119761D02*
X159750000Y-133167380D01*
X159559523Y-133167380D01*
X159464285Y-133119761D01*
X159416666Y-133072142D01*
X159369047Y-132976904D01*
X159369047Y-132691190D01*
X159416666Y-132595952D01*
X159464285Y-132548333D01*
X159559523Y-132500714D01*
X159750000Y-132500714D01*
X159845238Y-132548333D01*
X157472142Y-94750000D02*
X157376904Y-94702380D01*
X157234047Y-94702380D01*
X157091190Y-94750000D01*
X156995952Y-94845238D01*
X156948333Y-94940476D01*
X156900714Y-95130952D01*
X156900714Y-95273809D01*
X156948333Y-95464285D01*
X156995952Y-95559523D01*
X157091190Y-95654761D01*
X157234047Y-95702380D01*
X157329285Y-95702380D01*
X157472142Y-95654761D01*
X157519761Y-95607142D01*
X157519761Y-95273809D01*
X157329285Y-95273809D01*
X157948333Y-95035714D02*
X157948333Y-95702380D01*
X157948333Y-95130952D02*
X157995952Y-95083333D01*
X158091190Y-95035714D01*
X158234047Y-95035714D01*
X158329285Y-95083333D01*
X158376904Y-95178571D01*
X158376904Y-95702380D01*
X159281666Y-95702380D02*
X159281666Y-94702380D01*
X159281666Y-95654761D02*
X159186428Y-95702380D01*
X158995952Y-95702380D01*
X158900714Y-95654761D01*
X158853095Y-95607142D01*
X158805476Y-95511904D01*
X158805476Y-95226190D01*
X158853095Y-95130952D01*
X158900714Y-95083333D01*
X158995952Y-95035714D01*
X159186428Y-95035714D01*
X159281666Y-95083333D01*
X156924523Y-88987380D02*
X157257857Y-89987380D01*
X157591190Y-88987380D01*
X158353095Y-89939761D02*
X158257857Y-89987380D01*
X158067380Y-89987380D01*
X157972142Y-89939761D01*
X157924523Y-89892142D01*
X157876904Y-89796904D01*
X157876904Y-89511190D01*
X157924523Y-89415952D01*
X157972142Y-89368333D01*
X158067380Y-89320714D01*
X158257857Y-89320714D01*
X158353095Y-89368333D01*
X159210238Y-89939761D02*
X159115000Y-89987380D01*
X158924523Y-89987380D01*
X158829285Y-89939761D01*
X158781666Y-89892142D01*
X158734047Y-89796904D01*
X158734047Y-89511190D01*
X158781666Y-89415952D01*
X158829285Y-89368333D01*
X158924523Y-89320714D01*
X159115000Y-89320714D01*
X159210238Y-89368333D01*
X150233333Y-132802380D02*
X150423809Y-132802380D01*
X150519047Y-132850000D01*
X150614285Y-132945238D01*
X150661904Y-133135714D01*
X150661904Y-133469047D01*
X150614285Y-133659523D01*
X150519047Y-133754761D01*
X150423809Y-133802380D01*
X150233333Y-133802380D01*
X150138095Y-133754761D01*
X150042857Y-133659523D01*
X149995238Y-133469047D01*
X149995238Y-133135714D01*
X150042857Y-132945238D01*
X150138095Y-132850000D01*
X150233333Y-132802380D01*
X151090476Y-133135714D02*
X151090476Y-133802380D01*
X151090476Y-133230952D02*
X151138095Y-133183333D01*
X151233333Y-133135714D01*
X151376190Y-133135714D01*
X151471428Y-133183333D01*
X151519047Y-133278571D01*
X151519047Y-133802380D01*
X152709523Y-132754761D02*
X151852380Y-134040476D01*
X153233333Y-132802380D02*
X153423809Y-132802380D01*
X153519047Y-132850000D01*
X153614285Y-132945238D01*
X153661904Y-133135714D01*
X153661904Y-133469047D01*
X153614285Y-133659523D01*
X153519047Y-133754761D01*
X153423809Y-133802380D01*
X153233333Y-133802380D01*
X153138095Y-133754761D01*
X153042857Y-133659523D01*
X152995238Y-133469047D01*
X152995238Y-133135714D01*
X153042857Y-132945238D01*
X153138095Y-132850000D01*
X153233333Y-132802380D01*
X153947619Y-133135714D02*
X154328571Y-133135714D01*
X154090476Y-133802380D02*
X154090476Y-132945238D01*
X154138095Y-132850000D01*
X154233333Y-132802380D01*
X154328571Y-132802380D01*
X154519047Y-133135714D02*
X154900000Y-133135714D01*
X154661904Y-133802380D02*
X154661904Y-132945238D01*
X154709523Y-132850000D01*
X154804761Y-132802380D01*
X154900000Y-132802380D01*
D11*
%TO.C,C1*%
X144145000Y-106045000D02*
G75*
G03*
X144145000Y-106045000I-5120000J0D01*
G01*
X139025000Y-100965000D02*
X139025000Y-111125000D01*
X139065000Y-100965000D02*
X139065000Y-111125000D01*
X139105000Y-100965000D02*
X139105000Y-111125000D01*
X139145000Y-100966000D02*
X139145000Y-111124000D01*
X139185000Y-100967000D02*
X139185000Y-111123000D01*
X139225000Y-100968000D02*
X139225000Y-111122000D01*
X139265000Y-100970000D02*
X139265000Y-111120000D01*
X139305000Y-100972000D02*
X139305000Y-111118000D01*
X139345000Y-100975000D02*
X139345000Y-111115000D01*
X139385000Y-100977000D02*
X139385000Y-111113000D01*
X139425000Y-100980000D02*
X139425000Y-111110000D01*
X139465000Y-100983000D02*
X139465000Y-111107000D01*
X139505000Y-100987000D02*
X139505000Y-111103000D01*
X139545000Y-100991000D02*
X139545000Y-111099000D01*
X139585000Y-100995000D02*
X139585000Y-111095000D01*
X139625000Y-101000000D02*
X139625000Y-111090000D01*
X139665000Y-101005000D02*
X139665000Y-111085000D01*
X139705000Y-101010000D02*
X139705000Y-111080000D01*
X139746000Y-101015000D02*
X139746000Y-111075000D01*
X139786000Y-101021000D02*
X139786000Y-111069000D01*
X139826000Y-101027000D02*
X139826000Y-111063000D01*
X139866000Y-101034000D02*
X139866000Y-111056000D01*
X139906000Y-101041000D02*
X139906000Y-111049000D01*
X139946000Y-101048000D02*
X139946000Y-111042000D01*
X139986000Y-101055000D02*
X139986000Y-111035000D01*
X140026000Y-101063000D02*
X140026000Y-111027000D01*
X140066000Y-101071000D02*
X140066000Y-111019000D01*
X140106000Y-101080000D02*
X140106000Y-111010000D01*
X140146000Y-101089000D02*
X140146000Y-111001000D01*
X140186000Y-101098000D02*
X140186000Y-110992000D01*
X140226000Y-101107000D02*
X140226000Y-110983000D01*
X140266000Y-101117000D02*
X140266000Y-110973000D01*
X140306000Y-101127000D02*
X140306000Y-104804000D01*
X140306000Y-107286000D02*
X140306000Y-110963000D01*
X140346000Y-101138000D02*
X140346000Y-104804000D01*
X140346000Y-107286000D02*
X140346000Y-110952000D01*
X140386000Y-101148000D02*
X140386000Y-104804000D01*
X140386000Y-107286000D02*
X140386000Y-110942000D01*
X140426000Y-101160000D02*
X140426000Y-104804000D01*
X140426000Y-107286000D02*
X140426000Y-110930000D01*
X140466000Y-101171000D02*
X140466000Y-104804000D01*
X140466000Y-107286000D02*
X140466000Y-110919000D01*
X140506000Y-101183000D02*
X140506000Y-104804000D01*
X140506000Y-107286000D02*
X140506000Y-110907000D01*
X140546000Y-101195000D02*
X140546000Y-104804000D01*
X140546000Y-107286000D02*
X140546000Y-110895000D01*
X140586000Y-101208000D02*
X140586000Y-104804000D01*
X140586000Y-107286000D02*
X140586000Y-110882000D01*
X140626000Y-101221000D02*
X140626000Y-104804000D01*
X140626000Y-107286000D02*
X140626000Y-110869000D01*
X140666000Y-101234000D02*
X140666000Y-104804000D01*
X140666000Y-107286000D02*
X140666000Y-110856000D01*
X140706000Y-101248000D02*
X140706000Y-104804000D01*
X140706000Y-107286000D02*
X140706000Y-110842000D01*
X140746000Y-101262000D02*
X140746000Y-104804000D01*
X140746000Y-107286000D02*
X140746000Y-110828000D01*
X140786000Y-101277000D02*
X140786000Y-104804000D01*
X140786000Y-107286000D02*
X140786000Y-110813000D01*
X140826000Y-101291000D02*
X140826000Y-104804000D01*
X140826000Y-107286000D02*
X140826000Y-110799000D01*
X140866000Y-101307000D02*
X140866000Y-104804000D01*
X140866000Y-107286000D02*
X140866000Y-110783000D01*
X140906000Y-101322000D02*
X140906000Y-104804000D01*
X140906000Y-107286000D02*
X140906000Y-110768000D01*
X140946000Y-101338000D02*
X140946000Y-104804000D01*
X140946000Y-107286000D02*
X140946000Y-110752000D01*
X140986000Y-101355000D02*
X140986000Y-104804000D01*
X140986000Y-107286000D02*
X140986000Y-110735000D01*
X141026000Y-101371000D02*
X141026000Y-104804000D01*
X141026000Y-107286000D02*
X141026000Y-110719000D01*
X141066000Y-101388000D02*
X141066000Y-104804000D01*
X141066000Y-107286000D02*
X141066000Y-110702000D01*
X141106000Y-101406000D02*
X141106000Y-104804000D01*
X141106000Y-107286000D02*
X141106000Y-110684000D01*
X141146000Y-101424000D02*
X141146000Y-104804000D01*
X141146000Y-107286000D02*
X141146000Y-110666000D01*
X141186000Y-101442000D02*
X141186000Y-104804000D01*
X141186000Y-107286000D02*
X141186000Y-110648000D01*
X141226000Y-101461000D02*
X141226000Y-104804000D01*
X141226000Y-107286000D02*
X141226000Y-110629000D01*
X141266000Y-101481000D02*
X141266000Y-104804000D01*
X141266000Y-107286000D02*
X141266000Y-110609000D01*
X141306000Y-101500000D02*
X141306000Y-104804000D01*
X141306000Y-107286000D02*
X141306000Y-110590000D01*
X141346000Y-101520000D02*
X141346000Y-104804000D01*
X141346000Y-107286000D02*
X141346000Y-110570000D01*
X141386000Y-101541000D02*
X141386000Y-104804000D01*
X141386000Y-107286000D02*
X141386000Y-110549000D01*
X141426000Y-101562000D02*
X141426000Y-104804000D01*
X141426000Y-107286000D02*
X141426000Y-110528000D01*
X141466000Y-101583000D02*
X141466000Y-104804000D01*
X141466000Y-107286000D02*
X141466000Y-110507000D01*
X141506000Y-101605000D02*
X141506000Y-104804000D01*
X141506000Y-107286000D02*
X141506000Y-110485000D01*
X141546000Y-101628000D02*
X141546000Y-104804000D01*
X141546000Y-107286000D02*
X141546000Y-110462000D01*
X141586000Y-101650000D02*
X141586000Y-104804000D01*
X141586000Y-107286000D02*
X141586000Y-110440000D01*
X141626000Y-101674000D02*
X141626000Y-104804000D01*
X141626000Y-107286000D02*
X141626000Y-110416000D01*
X141666000Y-101698000D02*
X141666000Y-104804000D01*
X141666000Y-107286000D02*
X141666000Y-110392000D01*
X141706000Y-101722000D02*
X141706000Y-104804000D01*
X141706000Y-107286000D02*
X141706000Y-110368000D01*
X141746000Y-101747000D02*
X141746000Y-104804000D01*
X141746000Y-107286000D02*
X141746000Y-110343000D01*
X141786000Y-101772000D02*
X141786000Y-104804000D01*
X141786000Y-107286000D02*
X141786000Y-110318000D01*
X141826000Y-101798000D02*
X141826000Y-104804000D01*
X141826000Y-107286000D02*
X141826000Y-110292000D01*
X141866000Y-101824000D02*
X141866000Y-104804000D01*
X141866000Y-107286000D02*
X141866000Y-110266000D01*
X141906000Y-101851000D02*
X141906000Y-104804000D01*
X141906000Y-107286000D02*
X141906000Y-110239000D01*
X141946000Y-101879000D02*
X141946000Y-104804000D01*
X141946000Y-107286000D02*
X141946000Y-110211000D01*
X141986000Y-101907000D02*
X141986000Y-104804000D01*
X141986000Y-107286000D02*
X141986000Y-110183000D01*
X142026000Y-101935000D02*
X142026000Y-104804000D01*
X142026000Y-107286000D02*
X142026000Y-110155000D01*
X142066000Y-101965000D02*
X142066000Y-104804000D01*
X142066000Y-107286000D02*
X142066000Y-110125000D01*
X142106000Y-101995000D02*
X142106000Y-104804000D01*
X142106000Y-107286000D02*
X142106000Y-110095000D01*
X142146000Y-102025000D02*
X142146000Y-104804000D01*
X142146000Y-107286000D02*
X142146000Y-110065000D01*
X142186000Y-102056000D02*
X142186000Y-104804000D01*
X142186000Y-107286000D02*
X142186000Y-110034000D01*
X142226000Y-102088000D02*
X142226000Y-104804000D01*
X142226000Y-107286000D02*
X142226000Y-110002000D01*
X142266000Y-102120000D02*
X142266000Y-104804000D01*
X142266000Y-107286000D02*
X142266000Y-109970000D01*
X142306000Y-102153000D02*
X142306000Y-104804000D01*
X142306000Y-107286000D02*
X142306000Y-109937000D01*
X142346000Y-102187000D02*
X142346000Y-104804000D01*
X142346000Y-107286000D02*
X142346000Y-109903000D01*
X142386000Y-102221000D02*
X142386000Y-104804000D01*
X142386000Y-107286000D02*
X142386000Y-109869000D01*
X142426000Y-102256000D02*
X142426000Y-104804000D01*
X142426000Y-107286000D02*
X142426000Y-109834000D01*
X142466000Y-102292000D02*
X142466000Y-104804000D01*
X142466000Y-107286000D02*
X142466000Y-109798000D01*
X142506000Y-102329000D02*
X142506000Y-104804000D01*
X142506000Y-107286000D02*
X142506000Y-109761000D01*
X142546000Y-102366000D02*
X142546000Y-104804000D01*
X142546000Y-107286000D02*
X142546000Y-109724000D01*
X142586000Y-102405000D02*
X142586000Y-104804000D01*
X142586000Y-107286000D02*
X142586000Y-109685000D01*
X142626000Y-102444000D02*
X142626000Y-104804000D01*
X142626000Y-107286000D02*
X142626000Y-109646000D01*
X142666000Y-102484000D02*
X142666000Y-104804000D01*
X142666000Y-107286000D02*
X142666000Y-109606000D01*
X142706000Y-102525000D02*
X142706000Y-104804000D01*
X142706000Y-107286000D02*
X142706000Y-109565000D01*
X142746000Y-102567000D02*
X142746000Y-104804000D01*
X142746000Y-107286000D02*
X142746000Y-109523000D01*
X142786000Y-102609000D02*
X142786000Y-109481000D01*
X142826000Y-102653000D02*
X142826000Y-109437000D01*
X142866000Y-102698000D02*
X142866000Y-109392000D01*
X142906000Y-102744000D02*
X142906000Y-109346000D01*
X142946000Y-102791000D02*
X142946000Y-109299000D01*
X142986000Y-102839000D02*
X142986000Y-109251000D01*
X143026000Y-102889000D02*
X143026000Y-109201000D01*
X143066000Y-102939000D02*
X143066000Y-109151000D01*
X143106000Y-102991000D02*
X143106000Y-109099000D01*
X143146000Y-103045000D02*
X143146000Y-109045000D01*
X143186000Y-103100000D02*
X143186000Y-108990000D01*
X143226000Y-103156000D02*
X143226000Y-108934000D01*
X143266000Y-103215000D02*
X143266000Y-108875000D01*
X143306000Y-103275000D02*
X143306000Y-108815000D01*
X143346000Y-103336000D02*
X143346000Y-108754000D01*
X143386000Y-103400000D02*
X143386000Y-108690000D01*
X143426000Y-103466000D02*
X143426000Y-108624000D01*
X143466000Y-103535000D02*
X143466000Y-108555000D01*
X143506000Y-103606000D02*
X143506000Y-108484000D01*
X143546000Y-103680000D02*
X143546000Y-108410000D01*
X143586000Y-103756000D02*
X143586000Y-108334000D01*
X143626000Y-103836000D02*
X143626000Y-108254000D01*
X143666000Y-103920000D02*
X143666000Y-108170000D01*
X143706000Y-104008000D02*
X143706000Y-108082000D01*
X143746000Y-104101000D02*
X143746000Y-107989000D01*
X143786000Y-104199000D02*
X143786000Y-107891000D01*
X143826000Y-104303000D02*
X143826000Y-107787000D01*
X143866000Y-104415000D02*
X143866000Y-107675000D01*
X143906000Y-104535000D02*
X143906000Y-107555000D01*
X143946000Y-104667000D02*
X143946000Y-107423000D01*
X143986000Y-104815000D02*
X143986000Y-107275000D01*
X144026000Y-104983000D02*
X144026000Y-107107000D01*
X144066000Y-105183000D02*
X144066000Y-106907000D01*
X144106000Y-105446000D02*
X144106000Y-106644000D01*
X133545354Y-103170000D02*
X134545354Y-103170000D01*
X134045354Y-102670000D02*
X134045354Y-103670000D01*
%TO.C,C2*%
X148030000Y-97790000D02*
G75*
G03*
X148030000Y-97790000I-3270000J0D01*
G01*
X144760000Y-94560000D02*
X144760000Y-101020000D01*
X144800000Y-94560000D02*
X144800000Y-101020000D01*
X144840000Y-94560000D02*
X144840000Y-101020000D01*
X144880000Y-94562000D02*
X144880000Y-101018000D01*
X144920000Y-94563000D02*
X144920000Y-101017000D01*
X144960000Y-94566000D02*
X144960000Y-101014000D01*
X145000000Y-94568000D02*
X145000000Y-96750000D01*
X145000000Y-98830000D02*
X145000000Y-101012000D01*
X145040000Y-94572000D02*
X145040000Y-96750000D01*
X145040000Y-98830000D02*
X145040000Y-101008000D01*
X145080000Y-94575000D02*
X145080000Y-96750000D01*
X145080000Y-98830000D02*
X145080000Y-101005000D01*
X145120000Y-94579000D02*
X145120000Y-96750000D01*
X145120000Y-98830000D02*
X145120000Y-101001000D01*
X145160000Y-94584000D02*
X145160000Y-96750000D01*
X145160000Y-98830000D02*
X145160000Y-100996000D01*
X145200000Y-94589000D02*
X145200000Y-96750000D01*
X145200000Y-98830000D02*
X145200000Y-100991000D01*
X145240000Y-94595000D02*
X145240000Y-96750000D01*
X145240000Y-98830000D02*
X145240000Y-100985000D01*
X145280000Y-94601000D02*
X145280000Y-96750000D01*
X145280000Y-98830000D02*
X145280000Y-100979000D01*
X145320000Y-94608000D02*
X145320000Y-96750000D01*
X145320000Y-98830000D02*
X145320000Y-100972000D01*
X145360000Y-94615000D02*
X145360000Y-96750000D01*
X145360000Y-98830000D02*
X145360000Y-100965000D01*
X145400000Y-94623000D02*
X145400000Y-96750000D01*
X145400000Y-98830000D02*
X145400000Y-100957000D01*
X145440000Y-94631000D02*
X145440000Y-96750000D01*
X145440000Y-98830000D02*
X145440000Y-100949000D01*
X145481000Y-94640000D02*
X145481000Y-96750000D01*
X145481000Y-98830000D02*
X145481000Y-100940000D01*
X145521000Y-94649000D02*
X145521000Y-96750000D01*
X145521000Y-98830000D02*
X145521000Y-100931000D01*
X145561000Y-94659000D02*
X145561000Y-96750000D01*
X145561000Y-98830000D02*
X145561000Y-100921000D01*
X145601000Y-94669000D02*
X145601000Y-96750000D01*
X145601000Y-98830000D02*
X145601000Y-100911000D01*
X145641000Y-94680000D02*
X145641000Y-96750000D01*
X145641000Y-98830000D02*
X145641000Y-100900000D01*
X145681000Y-94692000D02*
X145681000Y-96750000D01*
X145681000Y-98830000D02*
X145681000Y-100888000D01*
X145721000Y-94704000D02*
X145721000Y-96750000D01*
X145721000Y-98830000D02*
X145721000Y-100876000D01*
X145761000Y-94716000D02*
X145761000Y-96750000D01*
X145761000Y-98830000D02*
X145761000Y-100864000D01*
X145801000Y-94729000D02*
X145801000Y-96750000D01*
X145801000Y-98830000D02*
X145801000Y-100851000D01*
X145841000Y-94743000D02*
X145841000Y-96750000D01*
X145841000Y-98830000D02*
X145841000Y-100837000D01*
X145881000Y-94757000D02*
X145881000Y-96750000D01*
X145881000Y-98830000D02*
X145881000Y-100823000D01*
X145921000Y-94772000D02*
X145921000Y-96750000D01*
X145921000Y-98830000D02*
X145921000Y-100808000D01*
X145961000Y-94788000D02*
X145961000Y-96750000D01*
X145961000Y-98830000D02*
X145961000Y-100792000D01*
X146001000Y-94804000D02*
X146001000Y-96750000D01*
X146001000Y-98830000D02*
X146001000Y-100776000D01*
X146041000Y-94820000D02*
X146041000Y-96750000D01*
X146041000Y-98830000D02*
X146041000Y-100760000D01*
X146081000Y-94838000D02*
X146081000Y-96750000D01*
X146081000Y-98830000D02*
X146081000Y-100742000D01*
X146121000Y-94856000D02*
X146121000Y-96750000D01*
X146121000Y-98830000D02*
X146121000Y-100724000D01*
X146161000Y-94874000D02*
X146161000Y-96750000D01*
X146161000Y-98830000D02*
X146161000Y-100706000D01*
X146201000Y-94894000D02*
X146201000Y-96750000D01*
X146201000Y-98830000D02*
X146201000Y-100686000D01*
X146241000Y-94914000D02*
X146241000Y-96750000D01*
X146241000Y-98830000D02*
X146241000Y-100666000D01*
X146281000Y-94934000D02*
X146281000Y-96750000D01*
X146281000Y-98830000D02*
X146281000Y-100646000D01*
X146321000Y-94956000D02*
X146321000Y-96750000D01*
X146321000Y-98830000D02*
X146321000Y-100624000D01*
X146361000Y-94978000D02*
X146361000Y-96750000D01*
X146361000Y-98830000D02*
X146361000Y-100602000D01*
X146401000Y-95000000D02*
X146401000Y-96750000D01*
X146401000Y-98830000D02*
X146401000Y-100580000D01*
X146441000Y-95024000D02*
X146441000Y-96750000D01*
X146441000Y-98830000D02*
X146441000Y-100556000D01*
X146481000Y-95048000D02*
X146481000Y-96750000D01*
X146481000Y-98830000D02*
X146481000Y-100532000D01*
X146521000Y-95074000D02*
X146521000Y-96750000D01*
X146521000Y-98830000D02*
X146521000Y-100506000D01*
X146561000Y-95100000D02*
X146561000Y-96750000D01*
X146561000Y-98830000D02*
X146561000Y-100480000D01*
X146601000Y-95126000D02*
X146601000Y-96750000D01*
X146601000Y-98830000D02*
X146601000Y-100454000D01*
X146641000Y-95154000D02*
X146641000Y-96750000D01*
X146641000Y-98830000D02*
X146641000Y-100426000D01*
X146681000Y-95183000D02*
X146681000Y-96750000D01*
X146681000Y-98830000D02*
X146681000Y-100397000D01*
X146721000Y-95212000D02*
X146721000Y-96750000D01*
X146721000Y-98830000D02*
X146721000Y-100368000D01*
X146761000Y-95242000D02*
X146761000Y-96750000D01*
X146761000Y-98830000D02*
X146761000Y-100338000D01*
X146801000Y-95274000D02*
X146801000Y-96750000D01*
X146801000Y-98830000D02*
X146801000Y-100306000D01*
X146841000Y-95306000D02*
X146841000Y-96750000D01*
X146841000Y-98830000D02*
X146841000Y-100274000D01*
X146881000Y-95340000D02*
X146881000Y-96750000D01*
X146881000Y-98830000D02*
X146881000Y-100240000D01*
X146921000Y-95374000D02*
X146921000Y-96750000D01*
X146921000Y-98830000D02*
X146921000Y-100206000D01*
X146961000Y-95410000D02*
X146961000Y-96750000D01*
X146961000Y-98830000D02*
X146961000Y-100170000D01*
X147001000Y-95447000D02*
X147001000Y-96750000D01*
X147001000Y-98830000D02*
X147001000Y-100133000D01*
X147041000Y-95485000D02*
X147041000Y-96750000D01*
X147041000Y-98830000D02*
X147041000Y-100095000D01*
X147081000Y-95525000D02*
X147081000Y-100055000D01*
X147121000Y-95566000D02*
X147121000Y-100014000D01*
X147161000Y-95608000D02*
X147161000Y-99972000D01*
X147201000Y-95653000D02*
X147201000Y-99927000D01*
X147241000Y-95698000D02*
X147241000Y-99882000D01*
X147281000Y-95746000D02*
X147281000Y-99834000D01*
X147321000Y-95795000D02*
X147321000Y-99785000D01*
X147361000Y-95846000D02*
X147361000Y-99734000D01*
X147401000Y-95900000D02*
X147401000Y-99680000D01*
X147441000Y-95956000D02*
X147441000Y-99624000D01*
X147481000Y-96014000D02*
X147481000Y-99566000D01*
X147521000Y-96076000D02*
X147521000Y-99504000D01*
X147561000Y-96140000D02*
X147561000Y-99440000D01*
X147601000Y-96209000D02*
X147601000Y-99371000D01*
X147641000Y-96281000D02*
X147641000Y-99299000D01*
X147681000Y-96358000D02*
X147681000Y-99222000D01*
X147721000Y-96440000D02*
X147721000Y-99140000D01*
X147761000Y-96528000D02*
X147761000Y-99052000D01*
X147801000Y-96625000D02*
X147801000Y-98955000D01*
X147841000Y-96731000D02*
X147841000Y-98849000D01*
X147881000Y-96850000D02*
X147881000Y-98730000D01*
X147921000Y-96988000D02*
X147921000Y-98592000D01*
X147961000Y-97157000D02*
X147961000Y-98423000D01*
X148001000Y-97388000D02*
X148001000Y-98192000D01*
X141259759Y-95951000D02*
X141889759Y-95951000D01*
X141574759Y-95636000D02*
X141574759Y-96266000D01*
%TO.C,D1*%
X137615000Y-124260000D02*
X137615000Y-127200000D01*
X137615000Y-127200000D02*
X143055000Y-127200000D01*
X143055000Y-127200000D02*
X143055000Y-124260000D01*
X143055000Y-124260000D02*
X137615000Y-124260000D01*
X136595000Y-125730000D02*
X137615000Y-125730000D01*
X144075000Y-125730000D02*
X143055000Y-125730000D01*
X138515000Y-124260000D02*
X138515000Y-127200000D01*
X138635000Y-124260000D02*
X138635000Y-127200000D01*
X138395000Y-124260000D02*
X138395000Y-127200000D01*
%TO.C,D2*%
X137615000Y-120450000D02*
X137615000Y-123390000D01*
X137615000Y-123390000D02*
X143055000Y-123390000D01*
X143055000Y-123390000D02*
X143055000Y-120450000D01*
X143055000Y-120450000D02*
X137615000Y-120450000D01*
X136595000Y-121920000D02*
X137615000Y-121920000D01*
X144075000Y-121920000D02*
X143055000Y-121920000D01*
X138515000Y-120450000D02*
X138515000Y-123390000D01*
X138635000Y-120450000D02*
X138635000Y-123390000D01*
X138395000Y-120450000D02*
X138395000Y-123390000D01*
%TO.C,D3*%
X137615000Y-116640000D02*
X137615000Y-119580000D01*
X137615000Y-119580000D02*
X143055000Y-119580000D01*
X143055000Y-119580000D02*
X143055000Y-116640000D01*
X143055000Y-116640000D02*
X137615000Y-116640000D01*
X136595000Y-118110000D02*
X137615000Y-118110000D01*
X144075000Y-118110000D02*
X143055000Y-118110000D01*
X138515000Y-116640000D02*
X138515000Y-119580000D01*
X138635000Y-116640000D02*
X138635000Y-119580000D01*
X138395000Y-116640000D02*
X138395000Y-119580000D01*
%TO.C,D4*%
X137615000Y-112830000D02*
X137615000Y-115770000D01*
X137615000Y-115770000D02*
X143055000Y-115770000D01*
X143055000Y-115770000D02*
X143055000Y-112830000D01*
X143055000Y-112830000D02*
X137615000Y-112830000D01*
X136595000Y-114300000D02*
X137615000Y-114300000D01*
X144075000Y-114300000D02*
X143055000Y-114300000D01*
X138515000Y-112830000D02*
X138515000Y-115770000D01*
X138635000Y-112830000D02*
X138635000Y-115770000D01*
X138395000Y-112830000D02*
X138395000Y-115770000D01*
%TO.C,D5*%
X144965000Y-105410462D02*
G75*
G02*
X150515000Y-103865170I2990000J462D01*
G01*
X144965000Y-105409538D02*
G75*
G03*
X150515000Y-106954830I2990000J-462D01*
G01*
X150455000Y-105410000D02*
G75*
G03*
X150455000Y-105410000I-2500000J0D01*
G01*
X150515000Y-106955000D02*
X150515000Y-103865000D01*
%TO.C,D6*%
X151950000Y-92075462D02*
G75*
G02*
X157500000Y-90530170I2990000J462D01*
G01*
X151950000Y-92074538D02*
G75*
G03*
X157500000Y-93619830I2990000J-462D01*
G01*
X157440000Y-92075000D02*
G75*
G03*
X157440000Y-92075000I-2500000J0D01*
G01*
X157500000Y-93620000D02*
X157500000Y-90530000D01*
%TO.C,J1*%
X144610000Y-128965000D02*
X144610000Y-127915000D01*
X143560000Y-127915000D02*
X144610000Y-127915000D01*
X138510000Y-137315000D02*
X129710000Y-137315000D01*
X129710000Y-137315000D02*
X129710000Y-128115000D01*
X144410000Y-134615000D02*
X144410000Y-137315000D01*
X144410000Y-137315000D02*
X142510000Y-137315000D01*
X129710000Y-128115000D02*
X144410000Y-128115000D01*
X144410000Y-128115000D02*
X144410000Y-130715000D01*
%TO.C,J2*%
X159325000Y-94675000D02*
X164525000Y-94675000D01*
X159325000Y-92075000D02*
X159325000Y-94675000D01*
X164525000Y-89475000D02*
X164525000Y-94675000D01*
X159325000Y-92075000D02*
X161925000Y-92075000D01*
X161925000Y-92075000D02*
X161925000Y-89475000D01*
X161925000Y-89475000D02*
X164525000Y-89475000D01*
X159325000Y-90805000D02*
X159325000Y-89475000D01*
X159325000Y-89475000D02*
X160655000Y-89475000D01*
%TO.C,J3*%
X159325000Y-139125000D02*
X164525000Y-139125000D01*
X159325000Y-136525000D02*
X159325000Y-139125000D01*
X164525000Y-133925000D02*
X164525000Y-139125000D01*
X159325000Y-136525000D02*
X161925000Y-136525000D01*
X161925000Y-136525000D02*
X161925000Y-133925000D01*
X161925000Y-133925000D02*
X164525000Y-133925000D01*
X159325000Y-135255000D02*
X159325000Y-133925000D01*
X159325000Y-133925000D02*
X160655000Y-133925000D01*
%TO.C,R1*%
X148185000Y-118840000D02*
X147855000Y-118840000D01*
X147855000Y-118840000D02*
X147855000Y-112300000D01*
X147855000Y-112300000D02*
X148185000Y-112300000D01*
X150265000Y-118840000D02*
X150595000Y-118840000D01*
X150595000Y-118840000D02*
X150595000Y-112300000D01*
X150595000Y-112300000D02*
X150265000Y-112300000D01*
%TO.C,R2*%
X142780000Y-90400000D02*
X142780000Y-90070000D01*
X142780000Y-90070000D02*
X149320000Y-90070000D01*
X149320000Y-90070000D02*
X149320000Y-90400000D01*
X142780000Y-92480000D02*
X142780000Y-92810000D01*
X142780000Y-92810000D02*
X149320000Y-92810000D01*
X149320000Y-92810000D02*
X149320000Y-92480000D01*
D12*
%TO.C,SW1*%
X158160000Y-138625000D02*
X157660000Y-138625000D01*
X158160000Y-138625000D02*
X158160000Y-138125000D01*
X146260000Y-138625000D02*
X146760000Y-138625000D01*
X146260000Y-138625000D02*
X146260000Y-138125000D01*
X146260000Y-134425000D02*
X146760000Y-134425000D01*
X146260000Y-134425000D02*
X146260000Y-134925000D01*
X158160000Y-134425000D02*
X158160000Y-134925000D01*
X158160000Y-134425000D02*
X157660000Y-134425000D01*
D11*
%TO.C,U1*%
X134525000Y-100370000D02*
X134525000Y-90130000D01*
X139166000Y-100370000D02*
X139166000Y-90130000D01*
X134525000Y-100370000D02*
X139166000Y-100370000D01*
X134525000Y-90130000D02*
X139166000Y-90130000D01*
X136035000Y-100370000D02*
X136035000Y-90130000D01*
X134525000Y-97100000D02*
X136035000Y-97100000D01*
X134525000Y-93399000D02*
X136035000Y-93399000D01*
%TO.C,GND1*%
X147140000Y-128725000D02*
X150040000Y-128725000D01*
X150040000Y-128725000D02*
X150040000Y-131625000D01*
X150040000Y-131625000D02*
X147140000Y-131625000D01*
X147140000Y-131625000D02*
X147140000Y-128725000D01*
%TO.C,Vcc1*%
X143965000Y-111940000D02*
X143965000Y-109040000D01*
X146865000Y-111940000D02*
X143965000Y-111940000D01*
X146865000Y-109040000D02*
X146865000Y-111940000D01*
X143965000Y-109040000D02*
X146865000Y-109040000D01*
%TO.C,C1*%
D10*
X134453333Y-101957142D02*
X134405714Y-102004761D01*
X134262857Y-102052380D01*
X134167619Y-102052380D01*
X134024761Y-102004761D01*
X133929523Y-101909523D01*
X133881904Y-101814285D01*
X133834285Y-101623809D01*
X133834285Y-101480952D01*
X133881904Y-101290476D01*
X133929523Y-101195238D01*
X134024761Y-101100000D01*
X134167619Y-101052380D01*
X134262857Y-101052380D01*
X134405714Y-101100000D01*
X134453333Y-101147619D01*
X135405714Y-102052380D02*
X134834285Y-102052380D01*
X135120000Y-102052380D02*
X135120000Y-101052380D01*
X135024761Y-101195238D01*
X134929523Y-101290476D01*
X134834285Y-101338095D01*
%TO.C,C2*%
X141438333Y-94337142D02*
X141390714Y-94384761D01*
X141247857Y-94432380D01*
X141152619Y-94432380D01*
X141009761Y-94384761D01*
X140914523Y-94289523D01*
X140866904Y-94194285D01*
X140819285Y-94003809D01*
X140819285Y-93860952D01*
X140866904Y-93670476D01*
X140914523Y-93575238D01*
X141009761Y-93480000D01*
X141152619Y-93432380D01*
X141247857Y-93432380D01*
X141390714Y-93480000D01*
X141438333Y-93527619D01*
X141819285Y-93527619D02*
X141866904Y-93480000D01*
X141962142Y-93432380D01*
X142200238Y-93432380D01*
X142295476Y-93480000D01*
X142343095Y-93527619D01*
X142390714Y-93622857D01*
X142390714Y-93718095D01*
X142343095Y-93860952D01*
X141771666Y-94432380D01*
X142390714Y-94432380D01*
%TO.C,D1*%
X146581904Y-127452380D02*
X146581904Y-126452380D01*
X146820000Y-126452380D01*
X146962857Y-126500000D01*
X147058095Y-126595238D01*
X147105714Y-126690476D01*
X147153333Y-126880952D01*
X147153333Y-127023809D01*
X147105714Y-127214285D01*
X147058095Y-127309523D01*
X146962857Y-127404761D01*
X146820000Y-127452380D01*
X146581904Y-127452380D01*
X148105714Y-127452380D02*
X147534285Y-127452380D01*
X147820000Y-127452380D02*
X147820000Y-126452380D01*
X147724761Y-126595238D01*
X147629523Y-126690476D01*
X147534285Y-126738095D01*
X134993095Y-124082380D02*
X134993095Y-123082380D01*
X135564523Y-124082380D02*
X135135952Y-123510952D01*
X135564523Y-123082380D02*
X134993095Y-123653809D01*
%TO.C,D2*%
X146581904Y-124277380D02*
X146581904Y-123277380D01*
X146820000Y-123277380D01*
X146962857Y-123325000D01*
X147058095Y-123420238D01*
X147105714Y-123515476D01*
X147153333Y-123705952D01*
X147153333Y-123848809D01*
X147105714Y-124039285D01*
X147058095Y-124134523D01*
X146962857Y-124229761D01*
X146820000Y-124277380D01*
X146581904Y-124277380D01*
X147534285Y-123372619D02*
X147581904Y-123325000D01*
X147677142Y-123277380D01*
X147915238Y-123277380D01*
X148010476Y-123325000D01*
X148058095Y-123372619D01*
X148105714Y-123467857D01*
X148105714Y-123563095D01*
X148058095Y-123705952D01*
X147486666Y-124277380D01*
X148105714Y-124277380D01*
X134993095Y-120272380D02*
X134993095Y-119272380D01*
X135564523Y-120272380D02*
X135135952Y-119700952D01*
X135564523Y-119272380D02*
X134993095Y-119843809D01*
%TO.C,D3*%
X145946904Y-120467380D02*
X145946904Y-119467380D01*
X146185000Y-119467380D01*
X146327857Y-119515000D01*
X146423095Y-119610238D01*
X146470714Y-119705476D01*
X146518333Y-119895952D01*
X146518333Y-120038809D01*
X146470714Y-120229285D01*
X146423095Y-120324523D01*
X146327857Y-120419761D01*
X146185000Y-120467380D01*
X145946904Y-120467380D01*
X146851666Y-119467380D02*
X147470714Y-119467380D01*
X147137380Y-119848333D01*
X147280238Y-119848333D01*
X147375476Y-119895952D01*
X147423095Y-119943571D01*
X147470714Y-120038809D01*
X147470714Y-120276904D01*
X147423095Y-120372142D01*
X147375476Y-120419761D01*
X147280238Y-120467380D01*
X146994523Y-120467380D01*
X146899285Y-120419761D01*
X146851666Y-120372142D01*
X134993095Y-116462380D02*
X134993095Y-115462380D01*
X135564523Y-116462380D02*
X135135952Y-115890952D01*
X135564523Y-115462380D02*
X134993095Y-116033809D01*
%TO.C,D4*%
X145946904Y-116022380D02*
X145946904Y-115022380D01*
X146185000Y-115022380D01*
X146327857Y-115070000D01*
X146423095Y-115165238D01*
X146470714Y-115260476D01*
X146518333Y-115450952D01*
X146518333Y-115593809D01*
X146470714Y-115784285D01*
X146423095Y-115879523D01*
X146327857Y-115974761D01*
X146185000Y-116022380D01*
X145946904Y-116022380D01*
X147375476Y-115355714D02*
X147375476Y-116022380D01*
X147137380Y-114974761D02*
X146899285Y-115689047D01*
X147518333Y-115689047D01*
X134993095Y-112652380D02*
X134993095Y-111652380D01*
X135564523Y-112652380D02*
X135135952Y-112080952D01*
X135564523Y-111652380D02*
X134993095Y-112223809D01*
%TO.C,D5*%
X149756904Y-102687380D02*
X149756904Y-101687380D01*
X149995000Y-101687380D01*
X150137857Y-101735000D01*
X150233095Y-101830238D01*
X150280714Y-101925476D01*
X150328333Y-102115952D01*
X150328333Y-102258809D01*
X150280714Y-102449285D01*
X150233095Y-102544523D01*
X150137857Y-102639761D01*
X149995000Y-102687380D01*
X149756904Y-102687380D01*
X151233095Y-101687380D02*
X150756904Y-101687380D01*
X150709285Y-102163571D01*
X150756904Y-102115952D01*
X150852142Y-102068333D01*
X151090238Y-102068333D01*
X151185476Y-102115952D01*
X151233095Y-102163571D01*
X151280714Y-102258809D01*
X151280714Y-102496904D01*
X151233095Y-102592142D01*
X151185476Y-102639761D01*
X151090238Y-102687380D01*
X150852142Y-102687380D01*
X150756904Y-102639761D01*
X150709285Y-102592142D01*
%TO.C,D6*%
X149756904Y-94432380D02*
X149756904Y-93432380D01*
X149995000Y-93432380D01*
X150137857Y-93480000D01*
X150233095Y-93575238D01*
X150280714Y-93670476D01*
X150328333Y-93860952D01*
X150328333Y-94003809D01*
X150280714Y-94194285D01*
X150233095Y-94289523D01*
X150137857Y-94384761D01*
X149995000Y-94432380D01*
X149756904Y-94432380D01*
X151185476Y-93432380D02*
X150995000Y-93432380D01*
X150899761Y-93480000D01*
X150852142Y-93527619D01*
X150756904Y-93670476D01*
X150709285Y-93860952D01*
X150709285Y-94241904D01*
X150756904Y-94337142D01*
X150804523Y-94384761D01*
X150899761Y-94432380D01*
X151090238Y-94432380D01*
X151185476Y-94384761D01*
X151233095Y-94337142D01*
X151280714Y-94241904D01*
X151280714Y-94003809D01*
X151233095Y-93908571D01*
X151185476Y-93860952D01*
X151090238Y-93813333D01*
X150899761Y-93813333D01*
X150804523Y-93860952D01*
X150756904Y-93908571D01*
X150709285Y-94003809D01*
%TO.C,J1*%
X134726666Y-137917380D02*
X134726666Y-138631666D01*
X134679047Y-138774523D01*
X134583809Y-138869761D01*
X134440952Y-138917380D01*
X134345714Y-138917380D01*
X135726666Y-138917380D02*
X135155238Y-138917380D01*
X135440952Y-138917380D02*
X135440952Y-137917380D01*
X135345714Y-138060238D01*
X135250476Y-138155476D01*
X135155238Y-138203095D01*
%TO.C,J2*%
X161591666Y-95337380D02*
X161591666Y-96051666D01*
X161544047Y-96194523D01*
X161448809Y-96289761D01*
X161305952Y-96337380D01*
X161210714Y-96337380D01*
X162020238Y-95432619D02*
X162067857Y-95385000D01*
X162163095Y-95337380D01*
X162401190Y-95337380D01*
X162496428Y-95385000D01*
X162544047Y-95432619D01*
X162591666Y-95527857D01*
X162591666Y-95623095D01*
X162544047Y-95765952D01*
X161972619Y-96337380D01*
X162591666Y-96337380D01*
%TO.C,J3*%
X161591666Y-132377380D02*
X161591666Y-133091666D01*
X161544047Y-133234523D01*
X161448809Y-133329761D01*
X161305952Y-133377380D01*
X161210714Y-133377380D01*
X161972619Y-132377380D02*
X162591666Y-132377380D01*
X162258333Y-132758333D01*
X162401190Y-132758333D01*
X162496428Y-132805952D01*
X162544047Y-132853571D01*
X162591666Y-132948809D01*
X162591666Y-133186904D01*
X162544047Y-133282142D01*
X162496428Y-133329761D01*
X162401190Y-133377380D01*
X162115476Y-133377380D01*
X162020238Y-133329761D01*
X161972619Y-133282142D01*
%TO.C,R1*%
X150947380Y-110021666D02*
X150471190Y-110355000D01*
X150947380Y-110593095D02*
X149947380Y-110593095D01*
X149947380Y-110212142D01*
X149995000Y-110116904D01*
X150042619Y-110069285D01*
X150137857Y-110021666D01*
X150280714Y-110021666D01*
X150375952Y-110069285D01*
X150423571Y-110116904D01*
X150471190Y-110212142D01*
X150471190Y-110593095D01*
X150947380Y-109069285D02*
X150947380Y-109640714D01*
X150947380Y-109355000D02*
X149947380Y-109355000D01*
X150090238Y-109450238D01*
X150185476Y-109545476D01*
X150233095Y-109640714D01*
%TO.C,R2*%
X140803333Y-90622380D02*
X140470000Y-90146190D01*
X140231904Y-90622380D02*
X140231904Y-89622380D01*
X140612857Y-89622380D01*
X140708095Y-89670000D01*
X140755714Y-89717619D01*
X140803333Y-89812857D01*
X140803333Y-89955714D01*
X140755714Y-90050952D01*
X140708095Y-90098571D01*
X140612857Y-90146190D01*
X140231904Y-90146190D01*
X141184285Y-89717619D02*
X141231904Y-89670000D01*
X141327142Y-89622380D01*
X141565238Y-89622380D01*
X141660476Y-89670000D01*
X141708095Y-89717619D01*
X141755714Y-89812857D01*
X141755714Y-89908095D01*
X141708095Y-90050952D01*
X141136666Y-90622380D01*
X141755714Y-90622380D01*
%TO.C,SW1*%
X143446666Y-138834761D02*
X143589523Y-138882380D01*
X143827619Y-138882380D01*
X143922857Y-138834761D01*
X143970476Y-138787142D01*
X144018095Y-138691904D01*
X144018095Y-138596666D01*
X143970476Y-138501428D01*
X143922857Y-138453809D01*
X143827619Y-138406190D01*
X143637142Y-138358571D01*
X143541904Y-138310952D01*
X143494285Y-138263333D01*
X143446666Y-138168095D01*
X143446666Y-138072857D01*
X143494285Y-137977619D01*
X143541904Y-137930000D01*
X143637142Y-137882380D01*
X143875238Y-137882380D01*
X144018095Y-137930000D01*
X144351428Y-137882380D02*
X144589523Y-138882380D01*
X144780000Y-138168095D01*
X144970476Y-138882380D01*
X145208571Y-137882380D01*
X146113333Y-138882380D02*
X145541904Y-138882380D01*
X145827619Y-138882380D02*
X145827619Y-137882380D01*
X145732380Y-138025238D01*
X145637142Y-138120476D01*
X145541904Y-138168095D01*
%TO.C,U1*%
X132977380Y-96011904D02*
X133786904Y-96011904D01*
X133882142Y-95964285D01*
X133929761Y-95916666D01*
X133977380Y-95821428D01*
X133977380Y-95630952D01*
X133929761Y-95535714D01*
X133882142Y-95488095D01*
X133786904Y-95440476D01*
X132977380Y-95440476D01*
X133977380Y-94440476D02*
X133977380Y-95011904D01*
X133977380Y-94726190D02*
X132977380Y-94726190D01*
X133120238Y-94821428D01*
X133215476Y-94916666D01*
X133263095Y-95011904D01*
%TO.C,GND1*%
X146716904Y-132215000D02*
X146621666Y-132167380D01*
X146478809Y-132167380D01*
X146335952Y-132215000D01*
X146240714Y-132310238D01*
X146193095Y-132405476D01*
X146145476Y-132595952D01*
X146145476Y-132738809D01*
X146193095Y-132929285D01*
X146240714Y-133024523D01*
X146335952Y-133119761D01*
X146478809Y-133167380D01*
X146574047Y-133167380D01*
X146716904Y-133119761D01*
X146764523Y-133072142D01*
X146764523Y-132738809D01*
X146574047Y-132738809D01*
X147193095Y-133167380D02*
X147193095Y-132167380D01*
X147764523Y-133167380D01*
X147764523Y-132167380D01*
X148240714Y-133167380D02*
X148240714Y-132167380D01*
X148478809Y-132167380D01*
X148621666Y-132215000D01*
X148716904Y-132310238D01*
X148764523Y-132405476D01*
X148812142Y-132595952D01*
X148812142Y-132738809D01*
X148764523Y-132929285D01*
X148716904Y-133024523D01*
X148621666Y-133119761D01*
X148478809Y-133167380D01*
X148240714Y-133167380D01*
X149764523Y-133167380D02*
X149193095Y-133167380D01*
X149478809Y-133167380D02*
X149478809Y-132167380D01*
X149383571Y-132310238D01*
X149288333Y-132405476D01*
X149193095Y-132453095D01*
%TO.C,Vcc1*%
X140573333Y-111212380D02*
X140906666Y-112212380D01*
X141240000Y-111212380D01*
X142001904Y-112164761D02*
X141906666Y-112212380D01*
X141716190Y-112212380D01*
X141620952Y-112164761D01*
X141573333Y-112117142D01*
X141525714Y-112021904D01*
X141525714Y-111736190D01*
X141573333Y-111640952D01*
X141620952Y-111593333D01*
X141716190Y-111545714D01*
X141906666Y-111545714D01*
X142001904Y-111593333D01*
X142859047Y-112164761D02*
X142763809Y-112212380D01*
X142573333Y-112212380D01*
X142478095Y-112164761D01*
X142430476Y-112117142D01*
X142382857Y-112021904D01*
X142382857Y-111736190D01*
X142430476Y-111640952D01*
X142478095Y-111593333D01*
X142573333Y-111545714D01*
X142763809Y-111545714D01*
X142859047Y-111593333D01*
X143811428Y-112212380D02*
X143240000Y-112212380D01*
X143525714Y-112212380D02*
X143525714Y-111212380D01*
X143430476Y-111355238D01*
X143335238Y-111450476D01*
X143240000Y-111498095D01*
%TD*%
M02*
