%TF.GenerationSoftware,KiCad,Pcbnew,(5.1.10)-1*%
%TF.CreationDate,2021-09-08T17:33:34-04:00*%
%TF.ProjectId,BreadboardPowerSupplyLee,42726561-6462-46f6-9172-64506f776572,0.0.1*%
%TF.SameCoordinates,Original*%
%TF.FileFunction,Legend,Bot*%
%TF.FilePolarity,Positive*%
%FSLAX46Y46*%
G04 Gerber Fmt 4.6, Leading zero omitted, Abs format (unit mm)*
G04 Created by KiCad (PCBNEW (5.1.10)-1) date 2021-09-08 17:33:34*
%MOMM*%
%LPD*%
G01*
G04 APERTURE LIST*
%ADD10C,0.150000*%
%ADD11C,0.010000*%
G04 APERTURE END LIST*
D10*
X158232857Y-93718571D02*
X158090000Y-93766190D01*
X158042380Y-93813809D01*
X157994761Y-93909047D01*
X157994761Y-94051904D01*
X158042380Y-94147142D01*
X158090000Y-94194761D01*
X158185238Y-94242380D01*
X158566190Y-94242380D01*
X158566190Y-93242380D01*
X158232857Y-93242380D01*
X158137619Y-93290000D01*
X158090000Y-93337619D01*
X158042380Y-93432857D01*
X158042380Y-93528095D01*
X158090000Y-93623333D01*
X158137619Y-93670952D01*
X158232857Y-93718571D01*
X158566190Y-93718571D01*
X157566190Y-94242380D02*
X157566190Y-93575714D01*
X157566190Y-93766190D02*
X157518571Y-93670952D01*
X157470952Y-93623333D01*
X157375714Y-93575714D01*
X157280476Y-93575714D01*
X156566190Y-94194761D02*
X156661428Y-94242380D01*
X156851904Y-94242380D01*
X156947142Y-94194761D01*
X156994761Y-94099523D01*
X156994761Y-93718571D01*
X156947142Y-93623333D01*
X156851904Y-93575714D01*
X156661428Y-93575714D01*
X156566190Y-93623333D01*
X156518571Y-93718571D01*
X156518571Y-93813809D01*
X156994761Y-93909047D01*
X155661428Y-94242380D02*
X155661428Y-93718571D01*
X155709047Y-93623333D01*
X155804285Y-93575714D01*
X155994761Y-93575714D01*
X156090000Y-93623333D01*
X155661428Y-94194761D02*
X155756666Y-94242380D01*
X155994761Y-94242380D01*
X156090000Y-94194761D01*
X156137619Y-94099523D01*
X156137619Y-94004285D01*
X156090000Y-93909047D01*
X155994761Y-93861428D01*
X155756666Y-93861428D01*
X155661428Y-93813809D01*
X154756666Y-94242380D02*
X154756666Y-93242380D01*
X154756666Y-94194761D02*
X154851904Y-94242380D01*
X155042380Y-94242380D01*
X155137619Y-94194761D01*
X155185238Y-94147142D01*
X155232857Y-94051904D01*
X155232857Y-93766190D01*
X155185238Y-93670952D01*
X155137619Y-93623333D01*
X155042380Y-93575714D01*
X154851904Y-93575714D01*
X154756666Y-93623333D01*
X154280476Y-94242380D02*
X154280476Y-93242380D01*
X154280476Y-93623333D02*
X154185238Y-93575714D01*
X153994761Y-93575714D01*
X153899523Y-93623333D01*
X153851904Y-93670952D01*
X153804285Y-93766190D01*
X153804285Y-94051904D01*
X153851904Y-94147142D01*
X153899523Y-94194761D01*
X153994761Y-94242380D01*
X154185238Y-94242380D01*
X154280476Y-94194761D01*
X153232857Y-94242380D02*
X153328095Y-94194761D01*
X153375714Y-94147142D01*
X153423333Y-94051904D01*
X153423333Y-93766190D01*
X153375714Y-93670952D01*
X153328095Y-93623333D01*
X153232857Y-93575714D01*
X153090000Y-93575714D01*
X152994761Y-93623333D01*
X152947142Y-93670952D01*
X152899523Y-93766190D01*
X152899523Y-94051904D01*
X152947142Y-94147142D01*
X152994761Y-94194761D01*
X153090000Y-94242380D01*
X153232857Y-94242380D01*
X152042380Y-94242380D02*
X152042380Y-93718571D01*
X152090000Y-93623333D01*
X152185238Y-93575714D01*
X152375714Y-93575714D01*
X152470952Y-93623333D01*
X152042380Y-94194761D02*
X152137619Y-94242380D01*
X152375714Y-94242380D01*
X152470952Y-94194761D01*
X152518571Y-94099523D01*
X152518571Y-94004285D01*
X152470952Y-93909047D01*
X152375714Y-93861428D01*
X152137619Y-93861428D01*
X152042380Y-93813809D01*
X151566190Y-94242380D02*
X151566190Y-93575714D01*
X151566190Y-93766190D02*
X151518571Y-93670952D01*
X151470952Y-93623333D01*
X151375714Y-93575714D01*
X151280476Y-93575714D01*
X150518571Y-94242380D02*
X150518571Y-93242380D01*
X150518571Y-94194761D02*
X150613809Y-94242380D01*
X150804285Y-94242380D01*
X150899523Y-94194761D01*
X150947142Y-94147142D01*
X150994761Y-94051904D01*
X150994761Y-93766190D01*
X150947142Y-93670952D01*
X150899523Y-93623333D01*
X150804285Y-93575714D01*
X150613809Y-93575714D01*
X150518571Y-93623333D01*
X150042380Y-94242380D02*
X150042380Y-93242380D01*
X149661428Y-93242380D01*
X149566190Y-93290000D01*
X149518571Y-93337619D01*
X149470952Y-93432857D01*
X149470952Y-93575714D01*
X149518571Y-93670952D01*
X149566190Y-93718571D01*
X149661428Y-93766190D01*
X150042380Y-93766190D01*
X148899523Y-94242380D02*
X148994761Y-94194761D01*
X149042380Y-94147142D01*
X149090000Y-94051904D01*
X149090000Y-93766190D01*
X149042380Y-93670952D01*
X148994761Y-93623333D01*
X148899523Y-93575714D01*
X148756666Y-93575714D01*
X148661428Y-93623333D01*
X148613809Y-93670952D01*
X148566190Y-93766190D01*
X148566190Y-94051904D01*
X148613809Y-94147142D01*
X148661428Y-94194761D01*
X148756666Y-94242380D01*
X148899523Y-94242380D01*
X148232857Y-93575714D02*
X148042380Y-94242380D01*
X147851904Y-93766190D01*
X147661428Y-94242380D01*
X147470952Y-93575714D01*
X146709047Y-94194761D02*
X146804285Y-94242380D01*
X146994761Y-94242380D01*
X147090000Y-94194761D01*
X147137619Y-94099523D01*
X147137619Y-93718571D01*
X147090000Y-93623333D01*
X146994761Y-93575714D01*
X146804285Y-93575714D01*
X146709047Y-93623333D01*
X146661428Y-93718571D01*
X146661428Y-93813809D01*
X147137619Y-93909047D01*
X146232857Y-94242380D02*
X146232857Y-93575714D01*
X146232857Y-93766190D02*
X146185238Y-93670952D01*
X146137619Y-93623333D01*
X146042380Y-93575714D01*
X145947142Y-93575714D01*
X145661428Y-94194761D02*
X145518571Y-94242380D01*
X145280476Y-94242380D01*
X145185238Y-94194761D01*
X145137619Y-94147142D01*
X145090000Y-94051904D01*
X145090000Y-93956666D01*
X145137619Y-93861428D01*
X145185238Y-93813809D01*
X145280476Y-93766190D01*
X145470952Y-93718571D01*
X145566190Y-93670952D01*
X145613809Y-93623333D01*
X145661428Y-93528095D01*
X145661428Y-93432857D01*
X145613809Y-93337619D01*
X145566190Y-93290000D01*
X145470952Y-93242380D01*
X145232857Y-93242380D01*
X145090000Y-93290000D01*
X144232857Y-93575714D02*
X144232857Y-94242380D01*
X144661428Y-93575714D02*
X144661428Y-94099523D01*
X144613809Y-94194761D01*
X144518571Y-94242380D01*
X144375714Y-94242380D01*
X144280476Y-94194761D01*
X144232857Y-94147142D01*
X143756666Y-93575714D02*
X143756666Y-94575714D01*
X143756666Y-93623333D02*
X143661428Y-93575714D01*
X143470952Y-93575714D01*
X143375714Y-93623333D01*
X143328095Y-93670952D01*
X143280476Y-93766190D01*
X143280476Y-94051904D01*
X143328095Y-94147142D01*
X143375714Y-94194761D01*
X143470952Y-94242380D01*
X143661428Y-94242380D01*
X143756666Y-94194761D01*
X142851904Y-93575714D02*
X142851904Y-94575714D01*
X142851904Y-93623333D02*
X142756666Y-93575714D01*
X142566190Y-93575714D01*
X142470952Y-93623333D01*
X142423333Y-93670952D01*
X142375714Y-93766190D01*
X142375714Y-94051904D01*
X142423333Y-94147142D01*
X142470952Y-94194761D01*
X142566190Y-94242380D01*
X142756666Y-94242380D01*
X142851904Y-94194761D01*
X141804285Y-94242380D02*
X141899523Y-94194761D01*
X141947142Y-94099523D01*
X141947142Y-93242380D01*
X141518571Y-93575714D02*
X141280476Y-94242380D01*
X141042380Y-93575714D02*
X141280476Y-94242380D01*
X141375714Y-94480476D01*
X141423333Y-94528095D01*
X141518571Y-94575714D01*
X140185238Y-94242380D02*
X140661428Y-94242380D01*
X140661428Y-93242380D01*
X139470952Y-94194761D02*
X139566190Y-94242380D01*
X139756666Y-94242380D01*
X139851904Y-94194761D01*
X139899523Y-94099523D01*
X139899523Y-93718571D01*
X139851904Y-93623333D01*
X139756666Y-93575714D01*
X139566190Y-93575714D01*
X139470952Y-93623333D01*
X139423333Y-93718571D01*
X139423333Y-93813809D01*
X139899523Y-93909047D01*
X138613809Y-94194761D02*
X138709047Y-94242380D01*
X138899523Y-94242380D01*
X138994761Y-94194761D01*
X139042380Y-94099523D01*
X139042380Y-93718571D01*
X138994761Y-93623333D01*
X138899523Y-93575714D01*
X138709047Y-93575714D01*
X138613809Y-93623333D01*
X138566190Y-93718571D01*
X138566190Y-93813809D01*
X139042380Y-93909047D01*
X150828095Y-94892380D02*
X150494761Y-95892380D01*
X150161428Y-94892380D01*
X149637619Y-94892380D02*
X149542380Y-94892380D01*
X149447142Y-94940000D01*
X149399523Y-94987619D01*
X149351904Y-95082857D01*
X149304285Y-95273333D01*
X149304285Y-95511428D01*
X149351904Y-95701904D01*
X149399523Y-95797142D01*
X149447142Y-95844761D01*
X149542380Y-95892380D01*
X149637619Y-95892380D01*
X149732857Y-95844761D01*
X149780476Y-95797142D01*
X149828095Y-95701904D01*
X149875714Y-95511428D01*
X149875714Y-95273333D01*
X149828095Y-95082857D01*
X149780476Y-94987619D01*
X149732857Y-94940000D01*
X149637619Y-94892380D01*
X148875714Y-95797142D02*
X148828095Y-95844761D01*
X148875714Y-95892380D01*
X148923333Y-95844761D01*
X148875714Y-95797142D01*
X148875714Y-95892380D01*
X148209047Y-94892380D02*
X148113809Y-94892380D01*
X148018571Y-94940000D01*
X147970952Y-94987619D01*
X147923333Y-95082857D01*
X147875714Y-95273333D01*
X147875714Y-95511428D01*
X147923333Y-95701904D01*
X147970952Y-95797142D01*
X148018571Y-95844761D01*
X148113809Y-95892380D01*
X148209047Y-95892380D01*
X148304285Y-95844761D01*
X148351904Y-95797142D01*
X148399523Y-95701904D01*
X148447142Y-95511428D01*
X148447142Y-95273333D01*
X148399523Y-95082857D01*
X148351904Y-94987619D01*
X148304285Y-94940000D01*
X148209047Y-94892380D01*
X147447142Y-95797142D02*
X147399523Y-95844761D01*
X147447142Y-95892380D01*
X147494761Y-95844761D01*
X147447142Y-95797142D01*
X147447142Y-95892380D01*
X146447142Y-95892380D02*
X147018571Y-95892380D01*
X146732857Y-95892380D02*
X146732857Y-94892380D01*
X146828095Y-95035238D01*
X146923333Y-95130476D01*
X147018571Y-95178095D01*
D11*
%TO.C,REF\u002A\u002A*%
G36*
X143916400Y-107344054D02*
G01*
X143905535Y-107457993D01*
X143873918Y-107565616D01*
X143823015Y-107664615D01*
X143754293Y-107752684D01*
X143669219Y-107827516D01*
X143572232Y-107885384D01*
X143465964Y-107925005D01*
X143358950Y-107943573D01*
X143253300Y-107942434D01*
X143151125Y-107922930D01*
X143054534Y-107886406D01*
X142965638Y-107834205D01*
X142886546Y-107767673D01*
X142819369Y-107688152D01*
X142766217Y-107596987D01*
X142729199Y-107495523D01*
X142710427Y-107385102D01*
X142708489Y-107335206D01*
X142708489Y-107247267D01*
X142656560Y-107247267D01*
X142620253Y-107250111D01*
X142593355Y-107261911D01*
X142566249Y-107285649D01*
X142527867Y-107324031D01*
X142527867Y-109515602D01*
X142527876Y-109777739D01*
X142527908Y-110018241D01*
X142527972Y-110238048D01*
X142528076Y-110438101D01*
X142528227Y-110619344D01*
X142528434Y-110782716D01*
X142528706Y-110929160D01*
X142529050Y-111059617D01*
X142529474Y-111175029D01*
X142529987Y-111276338D01*
X142530597Y-111364484D01*
X142531312Y-111440410D01*
X142532140Y-111505057D01*
X142533089Y-111559367D01*
X142534167Y-111604280D01*
X142535383Y-111640740D01*
X142536745Y-111669687D01*
X142538261Y-111692063D01*
X142539938Y-111708809D01*
X142541786Y-111720868D01*
X142543813Y-111729180D01*
X142546025Y-111734687D01*
X142547108Y-111736537D01*
X142551271Y-111743549D01*
X142554805Y-111749996D01*
X142558635Y-111755900D01*
X142563682Y-111761286D01*
X142570871Y-111766178D01*
X142581123Y-111770598D01*
X142595364Y-111774572D01*
X142614514Y-111778121D01*
X142639499Y-111781270D01*
X142671240Y-111784042D01*
X142710662Y-111786461D01*
X142758686Y-111788551D01*
X142816237Y-111790335D01*
X142884237Y-111791837D01*
X142963610Y-111793080D01*
X143055279Y-111794089D01*
X143160166Y-111794885D01*
X143279196Y-111795494D01*
X143413290Y-111795939D01*
X143563373Y-111796243D01*
X143730367Y-111796430D01*
X143915196Y-111796524D01*
X144118783Y-111796548D01*
X144342050Y-111796525D01*
X144585922Y-111796480D01*
X144851321Y-111796437D01*
X144889704Y-111796432D01*
X145156682Y-111796389D01*
X145402002Y-111796318D01*
X145626583Y-111796213D01*
X145831345Y-111796066D01*
X146017206Y-111795869D01*
X146185088Y-111795616D01*
X146335908Y-111795300D01*
X146470587Y-111794913D01*
X146590044Y-111794447D01*
X146695199Y-111793897D01*
X146786971Y-111793253D01*
X146866279Y-111792511D01*
X146934043Y-111791661D01*
X146991182Y-111790697D01*
X147038617Y-111789611D01*
X147077266Y-111788397D01*
X147108049Y-111787047D01*
X147131885Y-111785555D01*
X147149694Y-111783911D01*
X147162395Y-111782111D01*
X147170908Y-111780145D01*
X147175266Y-111778477D01*
X147183728Y-111774906D01*
X147191497Y-111772270D01*
X147198602Y-111769634D01*
X147205073Y-111766062D01*
X147210939Y-111760621D01*
X147216229Y-111752375D01*
X147220974Y-111740390D01*
X147225202Y-111723731D01*
X147228943Y-111701463D01*
X147232227Y-111672652D01*
X147235083Y-111636363D01*
X147237540Y-111591661D01*
X147239629Y-111537611D01*
X147241378Y-111473279D01*
X147242817Y-111397730D01*
X147243976Y-111310030D01*
X147244883Y-111209243D01*
X147245569Y-111094434D01*
X147246063Y-110964670D01*
X147246395Y-110819015D01*
X147246593Y-110656535D01*
X147246687Y-110476295D01*
X147246708Y-110277360D01*
X147246685Y-110058796D01*
X147246646Y-109819668D01*
X147246622Y-109559040D01*
X147246622Y-109516889D01*
X147246636Y-109253992D01*
X147246661Y-109012732D01*
X147246671Y-108792165D01*
X147246642Y-108591352D01*
X147246548Y-108409349D01*
X147246362Y-108245216D01*
X147246059Y-108098011D01*
X147245614Y-107966792D01*
X147245034Y-107856867D01*
X146942197Y-107856867D01*
X146902407Y-107914711D01*
X146891236Y-107930479D01*
X146881166Y-107944441D01*
X146872138Y-107957784D01*
X146864097Y-107971693D01*
X146856986Y-107987356D01*
X146850747Y-108005958D01*
X146845325Y-108028686D01*
X146840662Y-108056727D01*
X146836701Y-108091267D01*
X146833385Y-108133492D01*
X146830659Y-108184589D01*
X146828464Y-108245744D01*
X146826745Y-108318144D01*
X146825444Y-108402975D01*
X146824505Y-108501422D01*
X146823870Y-108614674D01*
X146823484Y-108743916D01*
X146823288Y-108890334D01*
X146823227Y-109055116D01*
X146823243Y-109239447D01*
X146823280Y-109444513D01*
X146823289Y-109567133D01*
X146823265Y-109784082D01*
X146823231Y-109979642D01*
X146823243Y-110154999D01*
X146823358Y-110311341D01*
X146823630Y-110449857D01*
X146824118Y-110571734D01*
X146824876Y-110678160D01*
X146825962Y-110770322D01*
X146827431Y-110849409D01*
X146829340Y-110916608D01*
X146831744Y-110973107D01*
X146834701Y-111020093D01*
X146838266Y-111058755D01*
X146842495Y-111090280D01*
X146847446Y-111115855D01*
X146853173Y-111136670D01*
X146859733Y-111153911D01*
X146867183Y-111168765D01*
X146875579Y-111182422D01*
X146884976Y-111196069D01*
X146895432Y-111210893D01*
X146901523Y-111219783D01*
X146940296Y-111277400D01*
X146408732Y-111277400D01*
X146285483Y-111277365D01*
X146182987Y-111277215D01*
X146099420Y-111276878D01*
X146032956Y-111276286D01*
X145981771Y-111275367D01*
X145944041Y-111274051D01*
X145917940Y-111272269D01*
X145901644Y-111269951D01*
X145893328Y-111267026D01*
X145891168Y-111263424D01*
X145893339Y-111259075D01*
X145894535Y-111257645D01*
X145919685Y-111220573D01*
X145945583Y-111167772D01*
X145969192Y-111105770D01*
X145977461Y-111079357D01*
X145982078Y-111061416D01*
X145985979Y-111040355D01*
X145989248Y-111014089D01*
X145991966Y-110980532D01*
X145994215Y-110937599D01*
X145996077Y-110883204D01*
X145997636Y-110815262D01*
X145998972Y-110731688D01*
X146000169Y-110630395D01*
X146001308Y-110509300D01*
X146001685Y-110464600D01*
X146002702Y-110339449D01*
X146003460Y-110235082D01*
X146003903Y-110149707D01*
X146003970Y-110081533D01*
X146003605Y-110028765D01*
X146002748Y-109989614D01*
X146001341Y-109962285D01*
X145999325Y-109944986D01*
X145996643Y-109935926D01*
X145993236Y-109933312D01*
X145989044Y-109935351D01*
X145984571Y-109939667D01*
X145974216Y-109952602D01*
X145952158Y-109981676D01*
X145919957Y-110024759D01*
X145879174Y-110079718D01*
X145831370Y-110144423D01*
X145778105Y-110216742D01*
X145720940Y-110294544D01*
X145661437Y-110375698D01*
X145601155Y-110458072D01*
X145541655Y-110539536D01*
X145484498Y-110617957D01*
X145431245Y-110691204D01*
X145383457Y-110757147D01*
X145342693Y-110813654D01*
X145310516Y-110858593D01*
X145288485Y-110889834D01*
X145283917Y-110896466D01*
X145260996Y-110933369D01*
X145234188Y-110981359D01*
X145208789Y-111030897D01*
X145205568Y-111037577D01*
X145183890Y-111085772D01*
X145171304Y-111123334D01*
X145165574Y-111159160D01*
X145164456Y-111201200D01*
X145165090Y-111277400D01*
X144010651Y-111277400D01*
X144101815Y-111183669D01*
X144148612Y-111133775D01*
X144198899Y-111077295D01*
X144244944Y-111023026D01*
X144265369Y-110997673D01*
X144295807Y-110958128D01*
X144335862Y-110904916D01*
X144384361Y-110839667D01*
X144440135Y-110764011D01*
X144502011Y-110679577D01*
X144568819Y-110587994D01*
X144639387Y-110490892D01*
X144712545Y-110389901D01*
X144787121Y-110286650D01*
X144861944Y-110182768D01*
X144935843Y-110079885D01*
X145007646Y-109979631D01*
X145076184Y-109883636D01*
X145140284Y-109793527D01*
X145198775Y-109710936D01*
X145250486Y-109637492D01*
X145294247Y-109574824D01*
X145328885Y-109524561D01*
X145353230Y-109488334D01*
X145366111Y-109467771D01*
X145367869Y-109463668D01*
X145359910Y-109452342D01*
X145339115Y-109425162D01*
X145306847Y-109383829D01*
X145264470Y-109330044D01*
X145213347Y-109265506D01*
X145154841Y-109191918D01*
X145090314Y-109110978D01*
X145021131Y-109024388D01*
X144948653Y-108933848D01*
X144874246Y-108841060D01*
X144814517Y-108766702D01*
X143803511Y-108766702D01*
X143797602Y-108779659D01*
X143783272Y-108801908D01*
X143782225Y-108803391D01*
X143763438Y-108833544D01*
X143743791Y-108870375D01*
X143739892Y-108878511D01*
X143736356Y-108886940D01*
X143733230Y-108897059D01*
X143730486Y-108910260D01*
X143728092Y-108927938D01*
X143726019Y-108951484D01*
X143724235Y-108982293D01*
X143722712Y-109021757D01*
X143721419Y-109071269D01*
X143720326Y-109132223D01*
X143719403Y-109206011D01*
X143718619Y-109294028D01*
X143717945Y-109397665D01*
X143717350Y-109518316D01*
X143716805Y-109657374D01*
X143716279Y-109816232D01*
X143715745Y-109995089D01*
X143715206Y-110180207D01*
X143714772Y-110344145D01*
X143714509Y-110488303D01*
X143714484Y-110614079D01*
X143714765Y-110722871D01*
X143715419Y-110816077D01*
X143716514Y-110895097D01*
X143718118Y-110961328D01*
X143720297Y-111016170D01*
X143723119Y-111061021D01*
X143726651Y-111097278D01*
X143730961Y-111126341D01*
X143736117Y-111149609D01*
X143742185Y-111168479D01*
X143749233Y-111184351D01*
X143757329Y-111198622D01*
X143766540Y-111212691D01*
X143775040Y-111225158D01*
X143792176Y-111251452D01*
X143802322Y-111269037D01*
X143803511Y-111272257D01*
X143792604Y-111273334D01*
X143761411Y-111274335D01*
X143712223Y-111275235D01*
X143647333Y-111276010D01*
X143569030Y-111276637D01*
X143479607Y-111277091D01*
X143381356Y-111277349D01*
X143312445Y-111277400D01*
X143207452Y-111277180D01*
X143110610Y-111276548D01*
X143024107Y-111275549D01*
X142950132Y-111274227D01*
X142890874Y-111272626D01*
X142848520Y-111270791D01*
X142825260Y-111268765D01*
X142821378Y-111267493D01*
X142829076Y-111252591D01*
X142837074Y-111244560D01*
X142850246Y-111227434D01*
X142867485Y-111197183D01*
X142879407Y-111172622D01*
X142906045Y-111113711D01*
X142909120Y-109936845D01*
X142912195Y-108759978D01*
X143357853Y-108759978D01*
X143455670Y-108760142D01*
X143546064Y-108760611D01*
X143626630Y-108761347D01*
X143694962Y-108762316D01*
X143748656Y-108763480D01*
X143785305Y-108764803D01*
X143802504Y-108766249D01*
X143803511Y-108766702D01*
X144814517Y-108766702D01*
X144799270Y-108747722D01*
X144725090Y-108655537D01*
X144653069Y-108566204D01*
X144584569Y-108481424D01*
X144520955Y-108402898D01*
X144463588Y-108332326D01*
X144413833Y-108271409D01*
X144373052Y-108221847D01*
X144355888Y-108201178D01*
X144269596Y-108100516D01*
X144192997Y-108017259D01*
X144124183Y-107949438D01*
X144061248Y-107895089D01*
X144051867Y-107887722D01*
X144012356Y-107857117D01*
X145144116Y-107856867D01*
X145138827Y-107904844D01*
X145142130Y-107962188D01*
X145163661Y-108030463D01*
X145203635Y-108110212D01*
X145248943Y-108182495D01*
X145265161Y-108205140D01*
X145293214Y-108242696D01*
X145331430Y-108293021D01*
X145378137Y-108353973D01*
X145431661Y-108423411D01*
X145490331Y-108499194D01*
X145552475Y-108579180D01*
X145616421Y-108661228D01*
X145680495Y-108743196D01*
X145743027Y-108822943D01*
X145802343Y-108898327D01*
X145856771Y-108967207D01*
X145904639Y-109027442D01*
X145944275Y-109076889D01*
X145974006Y-109113408D01*
X145992161Y-109134858D01*
X145995220Y-109138156D01*
X145998079Y-109130149D01*
X146000293Y-109099855D01*
X146001857Y-109047556D01*
X146002767Y-108973531D01*
X146003020Y-108878063D01*
X146002613Y-108761434D01*
X146001704Y-108641445D01*
X146000382Y-108509333D01*
X145998857Y-108397594D01*
X145996881Y-108304025D01*
X145994206Y-108226419D01*
X145990582Y-108162574D01*
X145985761Y-108110283D01*
X145979494Y-108067344D01*
X145971532Y-108031551D01*
X145961627Y-108000700D01*
X145949531Y-107972586D01*
X145934993Y-107945005D01*
X145920311Y-107919966D01*
X145882314Y-107856867D01*
X146942197Y-107856867D01*
X147245034Y-107856867D01*
X147245001Y-107850617D01*
X147244195Y-107748544D01*
X147243170Y-107659633D01*
X147241900Y-107582941D01*
X147240360Y-107517527D01*
X147238524Y-107462449D01*
X147236367Y-107416765D01*
X147233863Y-107379534D01*
X147230987Y-107349813D01*
X147227713Y-107326662D01*
X147224015Y-107309139D01*
X147219869Y-107296301D01*
X147215247Y-107287208D01*
X147210126Y-107280918D01*
X147204478Y-107276488D01*
X147198279Y-107272978D01*
X147191504Y-107269445D01*
X147185508Y-107265876D01*
X147180275Y-107263300D01*
X147172099Y-107260972D01*
X147159886Y-107258878D01*
X147142541Y-107257007D01*
X147118969Y-107255347D01*
X147088077Y-107253884D01*
X147048768Y-107252608D01*
X146999950Y-107251504D01*
X146940527Y-107250561D01*
X146869404Y-107249767D01*
X146785488Y-107249109D01*
X146687683Y-107248575D01*
X146574894Y-107248153D01*
X146446029Y-107247829D01*
X146299991Y-107247592D01*
X146135686Y-107247430D01*
X145952020Y-107247330D01*
X145747897Y-107247280D01*
X145536753Y-107247267D01*
X143916400Y-107247267D01*
X143916400Y-107344054D01*
G37*
X143916400Y-107344054D02*
X143905535Y-107457993D01*
X143873918Y-107565616D01*
X143823015Y-107664615D01*
X143754293Y-107752684D01*
X143669219Y-107827516D01*
X143572232Y-107885384D01*
X143465964Y-107925005D01*
X143358950Y-107943573D01*
X143253300Y-107942434D01*
X143151125Y-107922930D01*
X143054534Y-107886406D01*
X142965638Y-107834205D01*
X142886546Y-107767673D01*
X142819369Y-107688152D01*
X142766217Y-107596987D01*
X142729199Y-107495523D01*
X142710427Y-107385102D01*
X142708489Y-107335206D01*
X142708489Y-107247267D01*
X142656560Y-107247267D01*
X142620253Y-107250111D01*
X142593355Y-107261911D01*
X142566249Y-107285649D01*
X142527867Y-107324031D01*
X142527867Y-109515602D01*
X142527876Y-109777739D01*
X142527908Y-110018241D01*
X142527972Y-110238048D01*
X142528076Y-110438101D01*
X142528227Y-110619344D01*
X142528434Y-110782716D01*
X142528706Y-110929160D01*
X142529050Y-111059617D01*
X142529474Y-111175029D01*
X142529987Y-111276338D01*
X142530597Y-111364484D01*
X142531312Y-111440410D01*
X142532140Y-111505057D01*
X142533089Y-111559367D01*
X142534167Y-111604280D01*
X142535383Y-111640740D01*
X142536745Y-111669687D01*
X142538261Y-111692063D01*
X142539938Y-111708809D01*
X142541786Y-111720868D01*
X142543813Y-111729180D01*
X142546025Y-111734687D01*
X142547108Y-111736537D01*
X142551271Y-111743549D01*
X142554805Y-111749996D01*
X142558635Y-111755900D01*
X142563682Y-111761286D01*
X142570871Y-111766178D01*
X142581123Y-111770598D01*
X142595364Y-111774572D01*
X142614514Y-111778121D01*
X142639499Y-111781270D01*
X142671240Y-111784042D01*
X142710662Y-111786461D01*
X142758686Y-111788551D01*
X142816237Y-111790335D01*
X142884237Y-111791837D01*
X142963610Y-111793080D01*
X143055279Y-111794089D01*
X143160166Y-111794885D01*
X143279196Y-111795494D01*
X143413290Y-111795939D01*
X143563373Y-111796243D01*
X143730367Y-111796430D01*
X143915196Y-111796524D01*
X144118783Y-111796548D01*
X144342050Y-111796525D01*
X144585922Y-111796480D01*
X144851321Y-111796437D01*
X144889704Y-111796432D01*
X145156682Y-111796389D01*
X145402002Y-111796318D01*
X145626583Y-111796213D01*
X145831345Y-111796066D01*
X146017206Y-111795869D01*
X146185088Y-111795616D01*
X146335908Y-111795300D01*
X146470587Y-111794913D01*
X146590044Y-111794447D01*
X146695199Y-111793897D01*
X146786971Y-111793253D01*
X146866279Y-111792511D01*
X146934043Y-111791661D01*
X146991182Y-111790697D01*
X147038617Y-111789611D01*
X147077266Y-111788397D01*
X147108049Y-111787047D01*
X147131885Y-111785555D01*
X147149694Y-111783911D01*
X147162395Y-111782111D01*
X147170908Y-111780145D01*
X147175266Y-111778477D01*
X147183728Y-111774906D01*
X147191497Y-111772270D01*
X147198602Y-111769634D01*
X147205073Y-111766062D01*
X147210939Y-111760621D01*
X147216229Y-111752375D01*
X147220974Y-111740390D01*
X147225202Y-111723731D01*
X147228943Y-111701463D01*
X147232227Y-111672652D01*
X147235083Y-111636363D01*
X147237540Y-111591661D01*
X147239629Y-111537611D01*
X147241378Y-111473279D01*
X147242817Y-111397730D01*
X147243976Y-111310030D01*
X147244883Y-111209243D01*
X147245569Y-111094434D01*
X147246063Y-110964670D01*
X147246395Y-110819015D01*
X147246593Y-110656535D01*
X147246687Y-110476295D01*
X147246708Y-110277360D01*
X147246685Y-110058796D01*
X147246646Y-109819668D01*
X147246622Y-109559040D01*
X147246622Y-109516889D01*
X147246636Y-109253992D01*
X147246661Y-109012732D01*
X147246671Y-108792165D01*
X147246642Y-108591352D01*
X147246548Y-108409349D01*
X147246362Y-108245216D01*
X147246059Y-108098011D01*
X147245614Y-107966792D01*
X147245034Y-107856867D01*
X146942197Y-107856867D01*
X146902407Y-107914711D01*
X146891236Y-107930479D01*
X146881166Y-107944441D01*
X146872138Y-107957784D01*
X146864097Y-107971693D01*
X146856986Y-107987356D01*
X146850747Y-108005958D01*
X146845325Y-108028686D01*
X146840662Y-108056727D01*
X146836701Y-108091267D01*
X146833385Y-108133492D01*
X146830659Y-108184589D01*
X146828464Y-108245744D01*
X146826745Y-108318144D01*
X146825444Y-108402975D01*
X146824505Y-108501422D01*
X146823870Y-108614674D01*
X146823484Y-108743916D01*
X146823288Y-108890334D01*
X146823227Y-109055116D01*
X146823243Y-109239447D01*
X146823280Y-109444513D01*
X146823289Y-109567133D01*
X146823265Y-109784082D01*
X146823231Y-109979642D01*
X146823243Y-110154999D01*
X146823358Y-110311341D01*
X146823630Y-110449857D01*
X146824118Y-110571734D01*
X146824876Y-110678160D01*
X146825962Y-110770322D01*
X146827431Y-110849409D01*
X146829340Y-110916608D01*
X146831744Y-110973107D01*
X146834701Y-111020093D01*
X146838266Y-111058755D01*
X146842495Y-111090280D01*
X146847446Y-111115855D01*
X146853173Y-111136670D01*
X146859733Y-111153911D01*
X146867183Y-111168765D01*
X146875579Y-111182422D01*
X146884976Y-111196069D01*
X146895432Y-111210893D01*
X146901523Y-111219783D01*
X146940296Y-111277400D01*
X146408732Y-111277400D01*
X146285483Y-111277365D01*
X146182987Y-111277215D01*
X146099420Y-111276878D01*
X146032956Y-111276286D01*
X145981771Y-111275367D01*
X145944041Y-111274051D01*
X145917940Y-111272269D01*
X145901644Y-111269951D01*
X145893328Y-111267026D01*
X145891168Y-111263424D01*
X145893339Y-111259075D01*
X145894535Y-111257645D01*
X145919685Y-111220573D01*
X145945583Y-111167772D01*
X145969192Y-111105770D01*
X145977461Y-111079357D01*
X145982078Y-111061416D01*
X145985979Y-111040355D01*
X145989248Y-111014089D01*
X145991966Y-110980532D01*
X145994215Y-110937599D01*
X145996077Y-110883204D01*
X145997636Y-110815262D01*
X145998972Y-110731688D01*
X146000169Y-110630395D01*
X146001308Y-110509300D01*
X146001685Y-110464600D01*
X146002702Y-110339449D01*
X146003460Y-110235082D01*
X146003903Y-110149707D01*
X146003970Y-110081533D01*
X146003605Y-110028765D01*
X146002748Y-109989614D01*
X146001341Y-109962285D01*
X145999325Y-109944986D01*
X145996643Y-109935926D01*
X145993236Y-109933312D01*
X145989044Y-109935351D01*
X145984571Y-109939667D01*
X145974216Y-109952602D01*
X145952158Y-109981676D01*
X145919957Y-110024759D01*
X145879174Y-110079718D01*
X145831370Y-110144423D01*
X145778105Y-110216742D01*
X145720940Y-110294544D01*
X145661437Y-110375698D01*
X145601155Y-110458072D01*
X145541655Y-110539536D01*
X145484498Y-110617957D01*
X145431245Y-110691204D01*
X145383457Y-110757147D01*
X145342693Y-110813654D01*
X145310516Y-110858593D01*
X145288485Y-110889834D01*
X145283917Y-110896466D01*
X145260996Y-110933369D01*
X145234188Y-110981359D01*
X145208789Y-111030897D01*
X145205568Y-111037577D01*
X145183890Y-111085772D01*
X145171304Y-111123334D01*
X145165574Y-111159160D01*
X145164456Y-111201200D01*
X145165090Y-111277400D01*
X144010651Y-111277400D01*
X144101815Y-111183669D01*
X144148612Y-111133775D01*
X144198899Y-111077295D01*
X144244944Y-111023026D01*
X144265369Y-110997673D01*
X144295807Y-110958128D01*
X144335862Y-110904916D01*
X144384361Y-110839667D01*
X144440135Y-110764011D01*
X144502011Y-110679577D01*
X144568819Y-110587994D01*
X144639387Y-110490892D01*
X144712545Y-110389901D01*
X144787121Y-110286650D01*
X144861944Y-110182768D01*
X144935843Y-110079885D01*
X145007646Y-109979631D01*
X145076184Y-109883636D01*
X145140284Y-109793527D01*
X145198775Y-109710936D01*
X145250486Y-109637492D01*
X145294247Y-109574824D01*
X145328885Y-109524561D01*
X145353230Y-109488334D01*
X145366111Y-109467771D01*
X145367869Y-109463668D01*
X145359910Y-109452342D01*
X145339115Y-109425162D01*
X145306847Y-109383829D01*
X145264470Y-109330044D01*
X145213347Y-109265506D01*
X145154841Y-109191918D01*
X145090314Y-109110978D01*
X145021131Y-109024388D01*
X144948653Y-108933848D01*
X144874246Y-108841060D01*
X144814517Y-108766702D01*
X143803511Y-108766702D01*
X143797602Y-108779659D01*
X143783272Y-108801908D01*
X143782225Y-108803391D01*
X143763438Y-108833544D01*
X143743791Y-108870375D01*
X143739892Y-108878511D01*
X143736356Y-108886940D01*
X143733230Y-108897059D01*
X143730486Y-108910260D01*
X143728092Y-108927938D01*
X143726019Y-108951484D01*
X143724235Y-108982293D01*
X143722712Y-109021757D01*
X143721419Y-109071269D01*
X143720326Y-109132223D01*
X143719403Y-109206011D01*
X143718619Y-109294028D01*
X143717945Y-109397665D01*
X143717350Y-109518316D01*
X143716805Y-109657374D01*
X143716279Y-109816232D01*
X143715745Y-109995089D01*
X143715206Y-110180207D01*
X143714772Y-110344145D01*
X143714509Y-110488303D01*
X143714484Y-110614079D01*
X143714765Y-110722871D01*
X143715419Y-110816077D01*
X143716514Y-110895097D01*
X143718118Y-110961328D01*
X143720297Y-111016170D01*
X143723119Y-111061021D01*
X143726651Y-111097278D01*
X143730961Y-111126341D01*
X143736117Y-111149609D01*
X143742185Y-111168479D01*
X143749233Y-111184351D01*
X143757329Y-111198622D01*
X143766540Y-111212691D01*
X143775040Y-111225158D01*
X143792176Y-111251452D01*
X143802322Y-111269037D01*
X143803511Y-111272257D01*
X143792604Y-111273334D01*
X143761411Y-111274335D01*
X143712223Y-111275235D01*
X143647333Y-111276010D01*
X143569030Y-111276637D01*
X143479607Y-111277091D01*
X143381356Y-111277349D01*
X143312445Y-111277400D01*
X143207452Y-111277180D01*
X143110610Y-111276548D01*
X143024107Y-111275549D01*
X142950132Y-111274227D01*
X142890874Y-111272626D01*
X142848520Y-111270791D01*
X142825260Y-111268765D01*
X142821378Y-111267493D01*
X142829076Y-111252591D01*
X142837074Y-111244560D01*
X142850246Y-111227434D01*
X142867485Y-111197183D01*
X142879407Y-111172622D01*
X142906045Y-111113711D01*
X142909120Y-109936845D01*
X142912195Y-108759978D01*
X143357853Y-108759978D01*
X143455670Y-108760142D01*
X143546064Y-108760611D01*
X143626630Y-108761347D01*
X143694962Y-108762316D01*
X143748656Y-108763480D01*
X143785305Y-108764803D01*
X143802504Y-108766249D01*
X143803511Y-108766702D01*
X144814517Y-108766702D01*
X144799270Y-108747722D01*
X144725090Y-108655537D01*
X144653069Y-108566204D01*
X144584569Y-108481424D01*
X144520955Y-108402898D01*
X144463588Y-108332326D01*
X144413833Y-108271409D01*
X144373052Y-108221847D01*
X144355888Y-108201178D01*
X144269596Y-108100516D01*
X144192997Y-108017259D01*
X144124183Y-107949438D01*
X144061248Y-107895089D01*
X144051867Y-107887722D01*
X144012356Y-107857117D01*
X145144116Y-107856867D01*
X145138827Y-107904844D01*
X145142130Y-107962188D01*
X145163661Y-108030463D01*
X145203635Y-108110212D01*
X145248943Y-108182495D01*
X145265161Y-108205140D01*
X145293214Y-108242696D01*
X145331430Y-108293021D01*
X145378137Y-108353973D01*
X145431661Y-108423411D01*
X145490331Y-108499194D01*
X145552475Y-108579180D01*
X145616421Y-108661228D01*
X145680495Y-108743196D01*
X145743027Y-108822943D01*
X145802343Y-108898327D01*
X145856771Y-108967207D01*
X145904639Y-109027442D01*
X145944275Y-109076889D01*
X145974006Y-109113408D01*
X145992161Y-109134858D01*
X145995220Y-109138156D01*
X145998079Y-109130149D01*
X146000293Y-109099855D01*
X146001857Y-109047556D01*
X146002767Y-108973531D01*
X146003020Y-108878063D01*
X146002613Y-108761434D01*
X146001704Y-108641445D01*
X146000382Y-108509333D01*
X145998857Y-108397594D01*
X145996881Y-108304025D01*
X145994206Y-108226419D01*
X145990582Y-108162574D01*
X145985761Y-108110283D01*
X145979494Y-108067344D01*
X145971532Y-108031551D01*
X145961627Y-108000700D01*
X145949531Y-107972586D01*
X145934993Y-107945005D01*
X145920311Y-107919966D01*
X145882314Y-107856867D01*
X146942197Y-107856867D01*
X147245034Y-107856867D01*
X147245001Y-107850617D01*
X147244195Y-107748544D01*
X147243170Y-107659633D01*
X147241900Y-107582941D01*
X147240360Y-107517527D01*
X147238524Y-107462449D01*
X147236367Y-107416765D01*
X147233863Y-107379534D01*
X147230987Y-107349813D01*
X147227713Y-107326662D01*
X147224015Y-107309139D01*
X147219869Y-107296301D01*
X147215247Y-107287208D01*
X147210126Y-107280918D01*
X147204478Y-107276488D01*
X147198279Y-107272978D01*
X147191504Y-107269445D01*
X147185508Y-107265876D01*
X147180275Y-107263300D01*
X147172099Y-107260972D01*
X147159886Y-107258878D01*
X147142541Y-107257007D01*
X147118969Y-107255347D01*
X147088077Y-107253884D01*
X147048768Y-107252608D01*
X146999950Y-107251504D01*
X146940527Y-107250561D01*
X146869404Y-107249767D01*
X146785488Y-107249109D01*
X146687683Y-107248575D01*
X146574894Y-107248153D01*
X146446029Y-107247829D01*
X146299991Y-107247592D01*
X146135686Y-107247430D01*
X145952020Y-107247330D01*
X145747897Y-107247280D01*
X145536753Y-107247267D01*
X143916400Y-107247267D01*
X143916400Y-107344054D01*
G36*
X140641571Y-107804071D02*
G01*
X140481430Y-107825245D01*
X140317490Y-107865385D01*
X140147687Y-107924889D01*
X139969957Y-108004154D01*
X139958690Y-108009699D01*
X139900995Y-108037725D01*
X139849448Y-108061802D01*
X139807809Y-108080249D01*
X139779838Y-108091386D01*
X139770267Y-108093933D01*
X139751050Y-108098941D01*
X139746439Y-108103147D01*
X139751542Y-108113580D01*
X139767582Y-108139868D01*
X139792712Y-108179257D01*
X139825086Y-108228991D01*
X139862857Y-108286315D01*
X139904178Y-108348476D01*
X139947202Y-108412718D01*
X139990083Y-108476285D01*
X140030974Y-108536425D01*
X140068029Y-108590380D01*
X140099400Y-108635397D01*
X140123241Y-108668721D01*
X140137706Y-108687597D01*
X140139691Y-108689787D01*
X140149809Y-108685138D01*
X140172150Y-108667962D01*
X140202720Y-108641440D01*
X140218464Y-108626964D01*
X140314953Y-108551682D01*
X140421664Y-108496241D01*
X140537168Y-108461141D01*
X140660038Y-108446880D01*
X140729439Y-108448051D01*
X140850577Y-108465212D01*
X140959795Y-108501094D01*
X141057418Y-108555959D01*
X141143772Y-108630070D01*
X141219185Y-108723688D01*
X141283982Y-108837076D01*
X141321399Y-108923667D01*
X141365252Y-109059366D01*
X141397572Y-109206850D01*
X141418443Y-109362314D01*
X141427949Y-109521956D01*
X141426173Y-109681973D01*
X141413197Y-109838561D01*
X141389106Y-109987918D01*
X141353982Y-110126240D01*
X141307908Y-110249724D01*
X141291627Y-110283978D01*
X141223380Y-110398064D01*
X141142921Y-110494557D01*
X141051430Y-110572670D01*
X140950089Y-110631617D01*
X140840080Y-110670612D01*
X140722585Y-110688868D01*
X140681117Y-110690211D01*
X140559559Y-110679290D01*
X140439122Y-110646474D01*
X140321334Y-110592439D01*
X140207723Y-110517865D01*
X140116315Y-110439539D01*
X140069785Y-110395008D01*
X139888517Y-110692271D01*
X139843420Y-110766433D01*
X139802181Y-110834646D01*
X139766265Y-110894459D01*
X139737134Y-110943420D01*
X139716250Y-110979079D01*
X139705076Y-110998984D01*
X139703625Y-111002079D01*
X139711854Y-111011718D01*
X139737433Y-111028999D01*
X139777127Y-111052283D01*
X139827703Y-111079934D01*
X139885926Y-111110315D01*
X139948563Y-111141790D01*
X140012379Y-111172722D01*
X140074140Y-111201473D01*
X140130612Y-111226408D01*
X140178562Y-111245889D01*
X140202014Y-111254318D01*
X140335779Y-111292133D01*
X140473673Y-111317136D01*
X140621378Y-111330140D01*
X140748167Y-111332468D01*
X140816122Y-111331373D01*
X140881723Y-111329275D01*
X140939153Y-111326434D01*
X140982597Y-111323106D01*
X140996702Y-111321422D01*
X141135716Y-111292587D01*
X141277243Y-111247468D01*
X141414725Y-111188750D01*
X141541606Y-111119120D01*
X141619111Y-111066441D01*
X141746519Y-110958239D01*
X141864822Y-110831671D01*
X141971828Y-110689866D01*
X142065348Y-110535951D01*
X142143190Y-110373053D01*
X142187044Y-110255756D01*
X142237292Y-110072128D01*
X142270791Y-109877581D01*
X142287551Y-109676325D01*
X142287584Y-109472568D01*
X142270899Y-109270521D01*
X142237507Y-109074392D01*
X142187420Y-108888391D01*
X142183603Y-108876803D01*
X142120719Y-108714750D01*
X142043972Y-108566832D01*
X141950758Y-108428865D01*
X141838473Y-108296661D01*
X141794608Y-108251399D01*
X141658466Y-108127457D01*
X141518509Y-108024915D01*
X141372589Y-107942656D01*
X141218558Y-107879564D01*
X141054268Y-107834523D01*
X140958711Y-107817033D01*
X140799977Y-107801466D01*
X140641571Y-107804071D01*
G37*
X140641571Y-107804071D02*
X140481430Y-107825245D01*
X140317490Y-107865385D01*
X140147687Y-107924889D01*
X139969957Y-108004154D01*
X139958690Y-108009699D01*
X139900995Y-108037725D01*
X139849448Y-108061802D01*
X139807809Y-108080249D01*
X139779838Y-108091386D01*
X139770267Y-108093933D01*
X139751050Y-108098941D01*
X139746439Y-108103147D01*
X139751542Y-108113580D01*
X139767582Y-108139868D01*
X139792712Y-108179257D01*
X139825086Y-108228991D01*
X139862857Y-108286315D01*
X139904178Y-108348476D01*
X139947202Y-108412718D01*
X139990083Y-108476285D01*
X140030974Y-108536425D01*
X140068029Y-108590380D01*
X140099400Y-108635397D01*
X140123241Y-108668721D01*
X140137706Y-108687597D01*
X140139691Y-108689787D01*
X140149809Y-108685138D01*
X140172150Y-108667962D01*
X140202720Y-108641440D01*
X140218464Y-108626964D01*
X140314953Y-108551682D01*
X140421664Y-108496241D01*
X140537168Y-108461141D01*
X140660038Y-108446880D01*
X140729439Y-108448051D01*
X140850577Y-108465212D01*
X140959795Y-108501094D01*
X141057418Y-108555959D01*
X141143772Y-108630070D01*
X141219185Y-108723688D01*
X141283982Y-108837076D01*
X141321399Y-108923667D01*
X141365252Y-109059366D01*
X141397572Y-109206850D01*
X141418443Y-109362314D01*
X141427949Y-109521956D01*
X141426173Y-109681973D01*
X141413197Y-109838561D01*
X141389106Y-109987918D01*
X141353982Y-110126240D01*
X141307908Y-110249724D01*
X141291627Y-110283978D01*
X141223380Y-110398064D01*
X141142921Y-110494557D01*
X141051430Y-110572670D01*
X140950089Y-110631617D01*
X140840080Y-110670612D01*
X140722585Y-110688868D01*
X140681117Y-110690211D01*
X140559559Y-110679290D01*
X140439122Y-110646474D01*
X140321334Y-110592439D01*
X140207723Y-110517865D01*
X140116315Y-110439539D01*
X140069785Y-110395008D01*
X139888517Y-110692271D01*
X139843420Y-110766433D01*
X139802181Y-110834646D01*
X139766265Y-110894459D01*
X139737134Y-110943420D01*
X139716250Y-110979079D01*
X139705076Y-110998984D01*
X139703625Y-111002079D01*
X139711854Y-111011718D01*
X139737433Y-111028999D01*
X139777127Y-111052283D01*
X139827703Y-111079934D01*
X139885926Y-111110315D01*
X139948563Y-111141790D01*
X140012379Y-111172722D01*
X140074140Y-111201473D01*
X140130612Y-111226408D01*
X140178562Y-111245889D01*
X140202014Y-111254318D01*
X140335779Y-111292133D01*
X140473673Y-111317136D01*
X140621378Y-111330140D01*
X140748167Y-111332468D01*
X140816122Y-111331373D01*
X140881723Y-111329275D01*
X140939153Y-111326434D01*
X140982597Y-111323106D01*
X140996702Y-111321422D01*
X141135716Y-111292587D01*
X141277243Y-111247468D01*
X141414725Y-111188750D01*
X141541606Y-111119120D01*
X141619111Y-111066441D01*
X141746519Y-110958239D01*
X141864822Y-110831671D01*
X141971828Y-110689866D01*
X142065348Y-110535951D01*
X142143190Y-110373053D01*
X142187044Y-110255756D01*
X142237292Y-110072128D01*
X142270791Y-109877581D01*
X142287551Y-109676325D01*
X142287584Y-109472568D01*
X142270899Y-109270521D01*
X142237507Y-109074392D01*
X142187420Y-108888391D01*
X142183603Y-108876803D01*
X142120719Y-108714750D01*
X142043972Y-108566832D01*
X141950758Y-108428865D01*
X141838473Y-108296661D01*
X141794608Y-108251399D01*
X141658466Y-108127457D01*
X141518509Y-108024915D01*
X141372589Y-107942656D01*
X141218558Y-107879564D01*
X141054268Y-107834523D01*
X140958711Y-107817033D01*
X140799977Y-107801466D01*
X140641571Y-107804071D01*
G36*
X138296426Y-108721552D02*
G01*
X138144508Y-108741567D01*
X138009244Y-108775202D01*
X137889761Y-108822725D01*
X137785185Y-108884405D01*
X137707576Y-108947965D01*
X137638735Y-109022099D01*
X137584994Y-109101871D01*
X137542090Y-109194091D01*
X137526616Y-109237161D01*
X137513756Y-109276142D01*
X137502554Y-109312289D01*
X137492880Y-109347434D01*
X137484604Y-109383410D01*
X137477597Y-109422050D01*
X137471728Y-109465185D01*
X137466869Y-109514649D01*
X137462890Y-109572273D01*
X137459660Y-109639891D01*
X137457051Y-109719334D01*
X137454933Y-109812436D01*
X137453176Y-109921027D01*
X137451651Y-110046942D01*
X137450228Y-110192012D01*
X137448975Y-110334778D01*
X137447649Y-110490968D01*
X137446444Y-110626239D01*
X137445234Y-110742246D01*
X137443894Y-110840645D01*
X137442300Y-110923093D01*
X137440325Y-110991246D01*
X137437844Y-111046760D01*
X137434731Y-111091292D01*
X137430862Y-111126498D01*
X137426111Y-111154034D01*
X137420352Y-111175556D01*
X137413461Y-111192722D01*
X137405311Y-111207186D01*
X137395777Y-111220606D01*
X137384734Y-111234638D01*
X137380434Y-111240071D01*
X137364614Y-111262910D01*
X137357578Y-111278463D01*
X137357556Y-111278922D01*
X137368433Y-111281121D01*
X137399418Y-111283147D01*
X137448043Y-111284942D01*
X137511837Y-111286451D01*
X137588331Y-111287616D01*
X137675056Y-111288380D01*
X137769543Y-111288686D01*
X137780450Y-111288689D01*
X138203343Y-111288689D01*
X138206605Y-111192622D01*
X138209867Y-111096556D01*
X138271956Y-111147543D01*
X138369286Y-111215057D01*
X138479187Y-111269749D01*
X138565651Y-111299978D01*
X138634722Y-111314666D01*
X138718075Y-111324659D01*
X138807841Y-111329646D01*
X138896155Y-111329313D01*
X138975149Y-111323351D01*
X139011378Y-111317638D01*
X139151397Y-111279776D01*
X139277822Y-111224932D01*
X139389740Y-111153924D01*
X139486238Y-111067568D01*
X139566400Y-110966679D01*
X139629313Y-110852076D01*
X139673688Y-110725984D01*
X139686022Y-110669401D01*
X139693632Y-110607202D01*
X139697261Y-110532363D01*
X139697755Y-110498467D01*
X139697690Y-110495282D01*
X138937752Y-110495282D01*
X138928459Y-110570333D01*
X138900272Y-110634160D01*
X138851803Y-110689798D01*
X138846746Y-110694211D01*
X138798452Y-110729037D01*
X138746743Y-110751620D01*
X138686011Y-110763540D01*
X138610648Y-110766383D01*
X138592541Y-110765978D01*
X138538722Y-110763325D01*
X138498692Y-110757909D01*
X138463676Y-110747745D01*
X138424897Y-110730850D01*
X138414255Y-110725672D01*
X138353604Y-110689844D01*
X138306785Y-110647212D01*
X138294048Y-110631973D01*
X138249378Y-110575462D01*
X138249378Y-110379586D01*
X138249914Y-110300939D01*
X138251604Y-110242988D01*
X138254572Y-110203875D01*
X138258943Y-110181741D01*
X138263028Y-110175274D01*
X138278953Y-110172111D01*
X138312736Y-110169488D01*
X138359660Y-110167655D01*
X138415007Y-110166857D01*
X138423894Y-110166842D01*
X138544670Y-110172096D01*
X138647340Y-110188263D01*
X138733894Y-110215961D01*
X138806319Y-110255808D01*
X138861249Y-110302758D01*
X138905796Y-110360645D01*
X138930520Y-110423693D01*
X138937752Y-110495282D01*
X139697690Y-110495282D01*
X139695822Y-110404712D01*
X139687478Y-110325812D01*
X139671232Y-110254590D01*
X139645595Y-110183864D01*
X139621599Y-110131493D01*
X139562980Y-110036196D01*
X139484883Y-109948170D01*
X139389685Y-109869017D01*
X139279762Y-109800340D01*
X139157490Y-109743741D01*
X139025245Y-109700821D01*
X138960578Y-109685882D01*
X138824396Y-109663777D01*
X138675951Y-109649194D01*
X138524495Y-109642813D01*
X138397936Y-109644445D01*
X138236050Y-109651224D01*
X138243470Y-109592245D01*
X138262762Y-109493092D01*
X138293896Y-109412372D01*
X138337731Y-109349466D01*
X138395129Y-109303756D01*
X138466952Y-109274622D01*
X138554059Y-109261447D01*
X138657314Y-109263611D01*
X138695289Y-109267612D01*
X138836480Y-109292780D01*
X138973293Y-109333814D01*
X139067822Y-109371815D01*
X139112982Y-109391190D01*
X139151415Y-109406760D01*
X139177766Y-109416405D01*
X139185454Y-109418452D01*
X139195198Y-109409374D01*
X139211917Y-109380405D01*
X139235768Y-109331217D01*
X139266907Y-109261484D01*
X139305493Y-109170879D01*
X139312090Y-109155089D01*
X139342147Y-109082772D01*
X139369126Y-109017425D01*
X139391864Y-108961906D01*
X139409194Y-108919072D01*
X139419952Y-108891781D01*
X139423059Y-108882942D01*
X139413060Y-108878187D01*
X139386783Y-108872910D01*
X139358511Y-108869231D01*
X139328354Y-108864474D01*
X139280567Y-108855028D01*
X139219388Y-108841820D01*
X139149054Y-108825776D01*
X139073806Y-108807820D01*
X139045245Y-108800797D01*
X138940184Y-108775209D01*
X138852520Y-108755147D01*
X138777932Y-108739969D01*
X138712097Y-108729035D01*
X138650693Y-108721704D01*
X138589398Y-108717335D01*
X138523890Y-108715287D01*
X138465872Y-108714889D01*
X138296426Y-108721552D01*
G37*
X138296426Y-108721552D02*
X138144508Y-108741567D01*
X138009244Y-108775202D01*
X137889761Y-108822725D01*
X137785185Y-108884405D01*
X137707576Y-108947965D01*
X137638735Y-109022099D01*
X137584994Y-109101871D01*
X137542090Y-109194091D01*
X137526616Y-109237161D01*
X137513756Y-109276142D01*
X137502554Y-109312289D01*
X137492880Y-109347434D01*
X137484604Y-109383410D01*
X137477597Y-109422050D01*
X137471728Y-109465185D01*
X137466869Y-109514649D01*
X137462890Y-109572273D01*
X137459660Y-109639891D01*
X137457051Y-109719334D01*
X137454933Y-109812436D01*
X137453176Y-109921027D01*
X137451651Y-110046942D01*
X137450228Y-110192012D01*
X137448975Y-110334778D01*
X137447649Y-110490968D01*
X137446444Y-110626239D01*
X137445234Y-110742246D01*
X137443894Y-110840645D01*
X137442300Y-110923093D01*
X137440325Y-110991246D01*
X137437844Y-111046760D01*
X137434731Y-111091292D01*
X137430862Y-111126498D01*
X137426111Y-111154034D01*
X137420352Y-111175556D01*
X137413461Y-111192722D01*
X137405311Y-111207186D01*
X137395777Y-111220606D01*
X137384734Y-111234638D01*
X137380434Y-111240071D01*
X137364614Y-111262910D01*
X137357578Y-111278463D01*
X137357556Y-111278922D01*
X137368433Y-111281121D01*
X137399418Y-111283147D01*
X137448043Y-111284942D01*
X137511837Y-111286451D01*
X137588331Y-111287616D01*
X137675056Y-111288380D01*
X137769543Y-111288686D01*
X137780450Y-111288689D01*
X138203343Y-111288689D01*
X138206605Y-111192622D01*
X138209867Y-111096556D01*
X138271956Y-111147543D01*
X138369286Y-111215057D01*
X138479187Y-111269749D01*
X138565651Y-111299978D01*
X138634722Y-111314666D01*
X138718075Y-111324659D01*
X138807841Y-111329646D01*
X138896155Y-111329313D01*
X138975149Y-111323351D01*
X139011378Y-111317638D01*
X139151397Y-111279776D01*
X139277822Y-111224932D01*
X139389740Y-111153924D01*
X139486238Y-111067568D01*
X139566400Y-110966679D01*
X139629313Y-110852076D01*
X139673688Y-110725984D01*
X139686022Y-110669401D01*
X139693632Y-110607202D01*
X139697261Y-110532363D01*
X139697755Y-110498467D01*
X139697690Y-110495282D01*
X138937752Y-110495282D01*
X138928459Y-110570333D01*
X138900272Y-110634160D01*
X138851803Y-110689798D01*
X138846746Y-110694211D01*
X138798452Y-110729037D01*
X138746743Y-110751620D01*
X138686011Y-110763540D01*
X138610648Y-110766383D01*
X138592541Y-110765978D01*
X138538722Y-110763325D01*
X138498692Y-110757909D01*
X138463676Y-110747745D01*
X138424897Y-110730850D01*
X138414255Y-110725672D01*
X138353604Y-110689844D01*
X138306785Y-110647212D01*
X138294048Y-110631973D01*
X138249378Y-110575462D01*
X138249378Y-110379586D01*
X138249914Y-110300939D01*
X138251604Y-110242988D01*
X138254572Y-110203875D01*
X138258943Y-110181741D01*
X138263028Y-110175274D01*
X138278953Y-110172111D01*
X138312736Y-110169488D01*
X138359660Y-110167655D01*
X138415007Y-110166857D01*
X138423894Y-110166842D01*
X138544670Y-110172096D01*
X138647340Y-110188263D01*
X138733894Y-110215961D01*
X138806319Y-110255808D01*
X138861249Y-110302758D01*
X138905796Y-110360645D01*
X138930520Y-110423693D01*
X138937752Y-110495282D01*
X139697690Y-110495282D01*
X139695822Y-110404712D01*
X139687478Y-110325812D01*
X139671232Y-110254590D01*
X139645595Y-110183864D01*
X139621599Y-110131493D01*
X139562980Y-110036196D01*
X139484883Y-109948170D01*
X139389685Y-109869017D01*
X139279762Y-109800340D01*
X139157490Y-109743741D01*
X139025245Y-109700821D01*
X138960578Y-109685882D01*
X138824396Y-109663777D01*
X138675951Y-109649194D01*
X138524495Y-109642813D01*
X138397936Y-109644445D01*
X138236050Y-109651224D01*
X138243470Y-109592245D01*
X138262762Y-109493092D01*
X138293896Y-109412372D01*
X138337731Y-109349466D01*
X138395129Y-109303756D01*
X138466952Y-109274622D01*
X138554059Y-109261447D01*
X138657314Y-109263611D01*
X138695289Y-109267612D01*
X138836480Y-109292780D01*
X138973293Y-109333814D01*
X139067822Y-109371815D01*
X139112982Y-109391190D01*
X139151415Y-109406760D01*
X139177766Y-109416405D01*
X139185454Y-109418452D01*
X139195198Y-109409374D01*
X139211917Y-109380405D01*
X139235768Y-109331217D01*
X139266907Y-109261484D01*
X139305493Y-109170879D01*
X139312090Y-109155089D01*
X139342147Y-109082772D01*
X139369126Y-109017425D01*
X139391864Y-108961906D01*
X139409194Y-108919072D01*
X139419952Y-108891781D01*
X139423059Y-108882942D01*
X139413060Y-108878187D01*
X139386783Y-108872910D01*
X139358511Y-108869231D01*
X139328354Y-108864474D01*
X139280567Y-108855028D01*
X139219388Y-108841820D01*
X139149054Y-108825776D01*
X139073806Y-108807820D01*
X139045245Y-108800797D01*
X138940184Y-108775209D01*
X138852520Y-108755147D01*
X138777932Y-108739969D01*
X138712097Y-108729035D01*
X138650693Y-108721704D01*
X138589398Y-108717335D01*
X138523890Y-108715287D01*
X138465872Y-108714889D01*
X138296426Y-108721552D01*
G36*
X134783493Y-109327245D02*
G01*
X134783474Y-109561662D01*
X134783448Y-109774603D01*
X134783375Y-109967168D01*
X134783218Y-110140459D01*
X134782936Y-110295576D01*
X134782491Y-110433620D01*
X134781844Y-110555692D01*
X134780955Y-110662894D01*
X134779787Y-110756326D01*
X134778299Y-110837090D01*
X134776454Y-110906286D01*
X134774211Y-110965015D01*
X134771531Y-111014379D01*
X134768377Y-111055478D01*
X134764708Y-111089413D01*
X134760487Y-111117286D01*
X134755673Y-111140198D01*
X134750227Y-111159249D01*
X134744112Y-111175540D01*
X134737288Y-111190173D01*
X134729715Y-111204249D01*
X134721355Y-111218868D01*
X134716161Y-111227974D01*
X134681896Y-111288689D01*
X135540045Y-111288689D01*
X135540045Y-111192733D01*
X135540776Y-111149370D01*
X135542728Y-111116205D01*
X135545537Y-111098424D01*
X135546779Y-111096778D01*
X135558201Y-111103662D01*
X135580916Y-111121505D01*
X135603615Y-111140879D01*
X135658200Y-111181614D01*
X135727679Y-111222617D01*
X135804730Y-111260123D01*
X135882035Y-111290364D01*
X135912887Y-111300012D01*
X135981384Y-111314578D01*
X136064236Y-111324539D01*
X136153629Y-111329583D01*
X136241752Y-111329396D01*
X136320793Y-111323666D01*
X136358489Y-111317858D01*
X136496586Y-111279797D01*
X136623887Y-111222073D01*
X136739708Y-111145211D01*
X136843363Y-111049739D01*
X136934167Y-110936179D01*
X137000969Y-110825381D01*
X137055836Y-110708625D01*
X137097837Y-110589276D01*
X137127833Y-110463283D01*
X137146689Y-110326594D01*
X137155268Y-110175158D01*
X137155994Y-110097711D01*
X137153900Y-110040934D01*
X136324783Y-110040934D01*
X136324576Y-110134002D01*
X136321663Y-110221692D01*
X136316000Y-110298772D01*
X136307545Y-110360009D01*
X136304962Y-110372350D01*
X136273160Y-110479633D01*
X136231502Y-110566658D01*
X136179637Y-110633642D01*
X136117219Y-110680805D01*
X136043900Y-110708365D01*
X135959331Y-110716541D01*
X135863165Y-110705551D01*
X135799689Y-110689829D01*
X135750546Y-110671639D01*
X135696417Y-110645791D01*
X135655756Y-110622089D01*
X135585200Y-110575721D01*
X135585200Y-109425530D01*
X135652608Y-109381962D01*
X135731133Y-109341040D01*
X135815319Y-109314389D01*
X135900443Y-109302465D01*
X135981784Y-109305722D01*
X136054620Y-109324615D01*
X136086574Y-109340184D01*
X136144499Y-109383181D01*
X136193456Y-109439953D01*
X136234610Y-109512575D01*
X136269126Y-109603121D01*
X136298167Y-109713666D01*
X136299448Y-109719533D01*
X136309619Y-109781788D01*
X136317261Y-109859594D01*
X136322330Y-109947720D01*
X136324783Y-110040934D01*
X137153900Y-110040934D01*
X137148143Y-109884895D01*
X137126198Y-109689059D01*
X137090214Y-109510332D01*
X137040241Y-109348845D01*
X136976332Y-109204726D01*
X136898538Y-109078106D01*
X136806911Y-108969115D01*
X136701503Y-108877883D01*
X136656338Y-108846932D01*
X136555389Y-108790785D01*
X136452099Y-108751174D01*
X136342011Y-108727014D01*
X136220670Y-108717219D01*
X136128164Y-108718265D01*
X135998510Y-108729231D01*
X135885916Y-108751046D01*
X135787125Y-108784714D01*
X135698879Y-108831236D01*
X135650014Y-108865448D01*
X135620647Y-108887362D01*
X135598957Y-108902333D01*
X135590747Y-108906733D01*
X135589132Y-108895904D01*
X135587841Y-108865251D01*
X135586862Y-108817526D01*
X135586183Y-108755479D01*
X135585790Y-108681862D01*
X135585670Y-108599427D01*
X135585812Y-108510925D01*
X135586203Y-108419107D01*
X135586829Y-108326724D01*
X135587680Y-108236528D01*
X135588740Y-108151271D01*
X135589999Y-108073703D01*
X135591444Y-108006576D01*
X135593062Y-107952641D01*
X135594839Y-107914650D01*
X135595331Y-107907667D01*
X135602908Y-107837251D01*
X135614469Y-107782102D01*
X135632208Y-107734981D01*
X135658318Y-107688647D01*
X135664585Y-107679067D01*
X135689017Y-107642378D01*
X134783689Y-107642378D01*
X134783493Y-109327245D01*
G37*
X134783493Y-109327245D02*
X134783474Y-109561662D01*
X134783448Y-109774603D01*
X134783375Y-109967168D01*
X134783218Y-110140459D01*
X134782936Y-110295576D01*
X134782491Y-110433620D01*
X134781844Y-110555692D01*
X134780955Y-110662894D01*
X134779787Y-110756326D01*
X134778299Y-110837090D01*
X134776454Y-110906286D01*
X134774211Y-110965015D01*
X134771531Y-111014379D01*
X134768377Y-111055478D01*
X134764708Y-111089413D01*
X134760487Y-111117286D01*
X134755673Y-111140198D01*
X134750227Y-111159249D01*
X134744112Y-111175540D01*
X134737288Y-111190173D01*
X134729715Y-111204249D01*
X134721355Y-111218868D01*
X134716161Y-111227974D01*
X134681896Y-111288689D01*
X135540045Y-111288689D01*
X135540045Y-111192733D01*
X135540776Y-111149370D01*
X135542728Y-111116205D01*
X135545537Y-111098424D01*
X135546779Y-111096778D01*
X135558201Y-111103662D01*
X135580916Y-111121505D01*
X135603615Y-111140879D01*
X135658200Y-111181614D01*
X135727679Y-111222617D01*
X135804730Y-111260123D01*
X135882035Y-111290364D01*
X135912887Y-111300012D01*
X135981384Y-111314578D01*
X136064236Y-111324539D01*
X136153629Y-111329583D01*
X136241752Y-111329396D01*
X136320793Y-111323666D01*
X136358489Y-111317858D01*
X136496586Y-111279797D01*
X136623887Y-111222073D01*
X136739708Y-111145211D01*
X136843363Y-111049739D01*
X136934167Y-110936179D01*
X137000969Y-110825381D01*
X137055836Y-110708625D01*
X137097837Y-110589276D01*
X137127833Y-110463283D01*
X137146689Y-110326594D01*
X137155268Y-110175158D01*
X137155994Y-110097711D01*
X137153900Y-110040934D01*
X136324783Y-110040934D01*
X136324576Y-110134002D01*
X136321663Y-110221692D01*
X136316000Y-110298772D01*
X136307545Y-110360009D01*
X136304962Y-110372350D01*
X136273160Y-110479633D01*
X136231502Y-110566658D01*
X136179637Y-110633642D01*
X136117219Y-110680805D01*
X136043900Y-110708365D01*
X135959331Y-110716541D01*
X135863165Y-110705551D01*
X135799689Y-110689829D01*
X135750546Y-110671639D01*
X135696417Y-110645791D01*
X135655756Y-110622089D01*
X135585200Y-110575721D01*
X135585200Y-109425530D01*
X135652608Y-109381962D01*
X135731133Y-109341040D01*
X135815319Y-109314389D01*
X135900443Y-109302465D01*
X135981784Y-109305722D01*
X136054620Y-109324615D01*
X136086574Y-109340184D01*
X136144499Y-109383181D01*
X136193456Y-109439953D01*
X136234610Y-109512575D01*
X136269126Y-109603121D01*
X136298167Y-109713666D01*
X136299448Y-109719533D01*
X136309619Y-109781788D01*
X136317261Y-109859594D01*
X136322330Y-109947720D01*
X136324783Y-110040934D01*
X137153900Y-110040934D01*
X137148143Y-109884895D01*
X137126198Y-109689059D01*
X137090214Y-109510332D01*
X137040241Y-109348845D01*
X136976332Y-109204726D01*
X136898538Y-109078106D01*
X136806911Y-108969115D01*
X136701503Y-108877883D01*
X136656338Y-108846932D01*
X136555389Y-108790785D01*
X136452099Y-108751174D01*
X136342011Y-108727014D01*
X136220670Y-108717219D01*
X136128164Y-108718265D01*
X135998510Y-108729231D01*
X135885916Y-108751046D01*
X135787125Y-108784714D01*
X135698879Y-108831236D01*
X135650014Y-108865448D01*
X135620647Y-108887362D01*
X135598957Y-108902333D01*
X135590747Y-108906733D01*
X135589132Y-108895904D01*
X135587841Y-108865251D01*
X135586862Y-108817526D01*
X135586183Y-108755479D01*
X135585790Y-108681862D01*
X135585670Y-108599427D01*
X135585812Y-108510925D01*
X135586203Y-108419107D01*
X135586829Y-108326724D01*
X135587680Y-108236528D01*
X135588740Y-108151271D01*
X135589999Y-108073703D01*
X135591444Y-108006576D01*
X135593062Y-107952641D01*
X135594839Y-107914650D01*
X135595331Y-107907667D01*
X135602908Y-107837251D01*
X135614469Y-107782102D01*
X135632208Y-107734981D01*
X135658318Y-107688647D01*
X135664585Y-107679067D01*
X135689017Y-107642378D01*
X134783689Y-107642378D01*
X134783493Y-109327245D01*
G36*
X143243043Y-106881571D02*
G01*
X143146768Y-106905809D01*
X143060184Y-106948641D01*
X142985373Y-107008419D01*
X142924418Y-107083494D01*
X142879399Y-107172220D01*
X142853136Y-107268530D01*
X142847286Y-107365795D01*
X142862140Y-107459654D01*
X142895840Y-107547511D01*
X142946528Y-107626770D01*
X143012345Y-107694836D01*
X143091434Y-107749112D01*
X143181934Y-107787002D01*
X143233200Y-107799426D01*
X143277698Y-107806947D01*
X143311999Y-107809919D01*
X143344960Y-107808094D01*
X143385434Y-107801225D01*
X143418531Y-107794250D01*
X143511947Y-107762741D01*
X143595619Y-107711617D01*
X143667665Y-107642429D01*
X143726200Y-107556728D01*
X143740148Y-107529489D01*
X143756586Y-107493122D01*
X143766894Y-107462582D01*
X143772460Y-107430450D01*
X143774669Y-107389307D01*
X143774948Y-107343222D01*
X143770861Y-107258865D01*
X143757446Y-107189586D01*
X143732256Y-107128961D01*
X143692846Y-107070567D01*
X143654298Y-107026302D01*
X143582406Y-106960484D01*
X143507313Y-106915053D01*
X143424562Y-106887850D01*
X143346928Y-106877576D01*
X143243043Y-106881571D01*
G37*
X143243043Y-106881571D02*
X143146768Y-106905809D01*
X143060184Y-106948641D01*
X142985373Y-107008419D01*
X142924418Y-107083494D01*
X142879399Y-107172220D01*
X142853136Y-107268530D01*
X142847286Y-107365795D01*
X142862140Y-107459654D01*
X142895840Y-107547511D01*
X142946528Y-107626770D01*
X143012345Y-107694836D01*
X143091434Y-107749112D01*
X143181934Y-107787002D01*
X143233200Y-107799426D01*
X143277698Y-107806947D01*
X143311999Y-107809919D01*
X143344960Y-107808094D01*
X143385434Y-107801225D01*
X143418531Y-107794250D01*
X143511947Y-107762741D01*
X143595619Y-107711617D01*
X143667665Y-107642429D01*
X143726200Y-107556728D01*
X143740148Y-107529489D01*
X143756586Y-107493122D01*
X143766894Y-107462582D01*
X143772460Y-107430450D01*
X143774669Y-107389307D01*
X143774948Y-107343222D01*
X143770861Y-107258865D01*
X143757446Y-107189586D01*
X143732256Y-107128961D01*
X143692846Y-107070567D01*
X143654298Y-107026302D01*
X143582406Y-106960484D01*
X143507313Y-106915053D01*
X143424562Y-106887850D01*
X143346928Y-106877576D01*
X143243043Y-106881571D01*
G36*
X147091371Y-112124066D02*
G01*
X147051889Y-112124467D01*
X146936200Y-112127259D01*
X146839311Y-112135550D01*
X146757919Y-112150232D01*
X146688723Y-112172193D01*
X146628420Y-112202322D01*
X146573708Y-112241510D01*
X146554167Y-112258532D01*
X146521750Y-112298363D01*
X146492520Y-112352413D01*
X146469991Y-112412323D01*
X146457679Y-112469739D01*
X146456400Y-112490956D01*
X146464417Y-112549769D01*
X146485899Y-112614013D01*
X146516999Y-112674821D01*
X146553866Y-112723330D01*
X146559854Y-112729182D01*
X146610579Y-112770321D01*
X146666125Y-112802435D01*
X146729696Y-112826365D01*
X146804494Y-112842953D01*
X146893722Y-112853041D01*
X147000582Y-112857469D01*
X147049528Y-112857845D01*
X147111762Y-112857545D01*
X147155528Y-112856292D01*
X147184931Y-112853554D01*
X147204079Y-112848801D01*
X147217077Y-112841501D01*
X147224045Y-112835267D01*
X147230626Y-112827694D01*
X147235788Y-112817924D01*
X147239703Y-112803340D01*
X147242543Y-112781326D01*
X147244480Y-112749264D01*
X147245684Y-112704536D01*
X147246328Y-112644526D01*
X147246583Y-112566617D01*
X147246622Y-112490956D01*
X147246870Y-112390041D01*
X147246817Y-112309427D01*
X147245857Y-112270822D01*
X147099867Y-112270822D01*
X147099867Y-112711089D01*
X147006734Y-112711004D01*
X146950693Y-112709396D01*
X146891999Y-112705256D01*
X146843028Y-112699464D01*
X146841538Y-112699226D01*
X146762392Y-112680090D01*
X146701002Y-112650287D01*
X146654305Y-112607878D01*
X146624635Y-112561961D01*
X146606353Y-112511026D01*
X146607771Y-112463200D01*
X146628988Y-112411933D01*
X146670489Y-112358899D01*
X146727998Y-112319600D01*
X146802750Y-112293331D01*
X146852708Y-112284035D01*
X146909416Y-112277507D01*
X146969519Y-112272782D01*
X147020639Y-112270817D01*
X147023667Y-112270808D01*
X147099867Y-112270822D01*
X147245857Y-112270822D01*
X147245260Y-112246851D01*
X147240998Y-112200055D01*
X147232830Y-112166778D01*
X147219556Y-112144759D01*
X147199974Y-112131739D01*
X147172883Y-112125457D01*
X147137082Y-112123653D01*
X147091371Y-112124066D01*
G37*
X147091371Y-112124066D02*
X147051889Y-112124467D01*
X146936200Y-112127259D01*
X146839311Y-112135550D01*
X146757919Y-112150232D01*
X146688723Y-112172193D01*
X146628420Y-112202322D01*
X146573708Y-112241510D01*
X146554167Y-112258532D01*
X146521750Y-112298363D01*
X146492520Y-112352413D01*
X146469991Y-112412323D01*
X146457679Y-112469739D01*
X146456400Y-112490956D01*
X146464417Y-112549769D01*
X146485899Y-112614013D01*
X146516999Y-112674821D01*
X146553866Y-112723330D01*
X146559854Y-112729182D01*
X146610579Y-112770321D01*
X146666125Y-112802435D01*
X146729696Y-112826365D01*
X146804494Y-112842953D01*
X146893722Y-112853041D01*
X147000582Y-112857469D01*
X147049528Y-112857845D01*
X147111762Y-112857545D01*
X147155528Y-112856292D01*
X147184931Y-112853554D01*
X147204079Y-112848801D01*
X147217077Y-112841501D01*
X147224045Y-112835267D01*
X147230626Y-112827694D01*
X147235788Y-112817924D01*
X147239703Y-112803340D01*
X147242543Y-112781326D01*
X147244480Y-112749264D01*
X147245684Y-112704536D01*
X147246328Y-112644526D01*
X147246583Y-112566617D01*
X147246622Y-112490956D01*
X147246870Y-112390041D01*
X147246817Y-112309427D01*
X147245857Y-112270822D01*
X147099867Y-112270822D01*
X147099867Y-112711089D01*
X147006734Y-112711004D01*
X146950693Y-112709396D01*
X146891999Y-112705256D01*
X146843028Y-112699464D01*
X146841538Y-112699226D01*
X146762392Y-112680090D01*
X146701002Y-112650287D01*
X146654305Y-112607878D01*
X146624635Y-112561961D01*
X146606353Y-112511026D01*
X146607771Y-112463200D01*
X146628988Y-112411933D01*
X146670489Y-112358899D01*
X146727998Y-112319600D01*
X146802750Y-112293331D01*
X146852708Y-112284035D01*
X146909416Y-112277507D01*
X146969519Y-112272782D01*
X147020639Y-112270817D01*
X147023667Y-112270808D01*
X147099867Y-112270822D01*
X147245857Y-112270822D01*
X147245260Y-112246851D01*
X147240998Y-112200055D01*
X147232830Y-112166778D01*
X147219556Y-112144759D01*
X147199974Y-112131739D01*
X147172883Y-112125457D01*
X147137082Y-112123653D01*
X147091371Y-112124066D01*
G36*
X145682794Y-112124146D02*
G01*
X145613386Y-112124518D01*
X145560997Y-112125385D01*
X145522847Y-112126946D01*
X145496159Y-112129403D01*
X145478153Y-112132957D01*
X145466049Y-112137810D01*
X145457069Y-112144161D01*
X145453818Y-112147084D01*
X145434043Y-112178142D01*
X145430482Y-112213828D01*
X145443491Y-112245510D01*
X145449506Y-112251913D01*
X145459235Y-112258121D01*
X145474901Y-112262910D01*
X145499408Y-112266514D01*
X145535661Y-112269164D01*
X145586565Y-112271095D01*
X145655026Y-112272539D01*
X145717617Y-112273418D01*
X145965334Y-112276467D01*
X145968719Y-112341378D01*
X145972105Y-112406289D01*
X145803958Y-112406289D01*
X145730959Y-112406919D01*
X145677517Y-112409553D01*
X145640628Y-112415309D01*
X145617288Y-112425304D01*
X145604494Y-112440656D01*
X145599242Y-112462482D01*
X145598445Y-112482738D01*
X145600923Y-112507592D01*
X145610277Y-112525906D01*
X145629383Y-112538637D01*
X145661118Y-112546741D01*
X145708359Y-112551176D01*
X145773983Y-112552899D01*
X145809801Y-112553045D01*
X145970978Y-112553045D01*
X145970978Y-112711089D01*
X145722622Y-112711089D01*
X145641213Y-112711202D01*
X145579342Y-112711712D01*
X145533968Y-112712870D01*
X145502054Y-112714930D01*
X145480559Y-112718146D01*
X145466443Y-112722772D01*
X145456668Y-112729059D01*
X145451689Y-112733667D01*
X145434610Y-112760560D01*
X145429111Y-112784467D01*
X145436963Y-112813667D01*
X145451689Y-112835267D01*
X145459546Y-112842066D01*
X145469688Y-112847346D01*
X145484844Y-112851298D01*
X145507741Y-112854113D01*
X145541109Y-112855982D01*
X145587675Y-112857098D01*
X145650167Y-112857651D01*
X145731314Y-112857833D01*
X145773422Y-112857845D01*
X145863598Y-112857765D01*
X145933924Y-112857398D01*
X145987129Y-112856552D01*
X146025940Y-112855036D01*
X146053087Y-112852659D01*
X146071298Y-112849229D01*
X146083300Y-112844554D01*
X146091822Y-112838444D01*
X146095156Y-112835267D01*
X146101755Y-112827670D01*
X146106927Y-112817870D01*
X146110846Y-112803239D01*
X146113684Y-112781152D01*
X146115615Y-112748982D01*
X146116812Y-112704103D01*
X146117448Y-112643889D01*
X146117697Y-112565713D01*
X146117734Y-112492923D01*
X146117700Y-112399707D01*
X146117465Y-112326431D01*
X146116830Y-112270458D01*
X146115594Y-112229151D01*
X146113556Y-112199872D01*
X146110517Y-112179984D01*
X146106277Y-112166850D01*
X146100635Y-112157832D01*
X146093391Y-112150293D01*
X146091606Y-112148612D01*
X146082945Y-112141172D01*
X146072882Y-112135409D01*
X146058625Y-112131112D01*
X146037383Y-112128064D01*
X146006364Y-112126051D01*
X145962777Y-112124860D01*
X145903831Y-112124275D01*
X145826734Y-112124083D01*
X145772001Y-112124067D01*
X145682794Y-112124146D01*
G37*
X145682794Y-112124146D02*
X145613386Y-112124518D01*
X145560997Y-112125385D01*
X145522847Y-112126946D01*
X145496159Y-112129403D01*
X145478153Y-112132957D01*
X145466049Y-112137810D01*
X145457069Y-112144161D01*
X145453818Y-112147084D01*
X145434043Y-112178142D01*
X145430482Y-112213828D01*
X145443491Y-112245510D01*
X145449506Y-112251913D01*
X145459235Y-112258121D01*
X145474901Y-112262910D01*
X145499408Y-112266514D01*
X145535661Y-112269164D01*
X145586565Y-112271095D01*
X145655026Y-112272539D01*
X145717617Y-112273418D01*
X145965334Y-112276467D01*
X145968719Y-112341378D01*
X145972105Y-112406289D01*
X145803958Y-112406289D01*
X145730959Y-112406919D01*
X145677517Y-112409553D01*
X145640628Y-112415309D01*
X145617288Y-112425304D01*
X145604494Y-112440656D01*
X145599242Y-112462482D01*
X145598445Y-112482738D01*
X145600923Y-112507592D01*
X145610277Y-112525906D01*
X145629383Y-112538637D01*
X145661118Y-112546741D01*
X145708359Y-112551176D01*
X145773983Y-112552899D01*
X145809801Y-112553045D01*
X145970978Y-112553045D01*
X145970978Y-112711089D01*
X145722622Y-112711089D01*
X145641213Y-112711202D01*
X145579342Y-112711712D01*
X145533968Y-112712870D01*
X145502054Y-112714930D01*
X145480559Y-112718146D01*
X145466443Y-112722772D01*
X145456668Y-112729059D01*
X145451689Y-112733667D01*
X145434610Y-112760560D01*
X145429111Y-112784467D01*
X145436963Y-112813667D01*
X145451689Y-112835267D01*
X145459546Y-112842066D01*
X145469688Y-112847346D01*
X145484844Y-112851298D01*
X145507741Y-112854113D01*
X145541109Y-112855982D01*
X145587675Y-112857098D01*
X145650167Y-112857651D01*
X145731314Y-112857833D01*
X145773422Y-112857845D01*
X145863598Y-112857765D01*
X145933924Y-112857398D01*
X145987129Y-112856552D01*
X146025940Y-112855036D01*
X146053087Y-112852659D01*
X146071298Y-112849229D01*
X146083300Y-112844554D01*
X146091822Y-112838444D01*
X146095156Y-112835267D01*
X146101755Y-112827670D01*
X146106927Y-112817870D01*
X146110846Y-112803239D01*
X146113684Y-112781152D01*
X146115615Y-112748982D01*
X146116812Y-112704103D01*
X146117448Y-112643889D01*
X146117697Y-112565713D01*
X146117734Y-112492923D01*
X146117700Y-112399707D01*
X146117465Y-112326431D01*
X146116830Y-112270458D01*
X146115594Y-112229151D01*
X146113556Y-112199872D01*
X146110517Y-112179984D01*
X146106277Y-112166850D01*
X146100635Y-112157832D01*
X146093391Y-112150293D01*
X146091606Y-112148612D01*
X146082945Y-112141172D01*
X146072882Y-112135409D01*
X146058625Y-112131112D01*
X146037383Y-112128064D01*
X146006364Y-112126051D01*
X145962777Y-112124860D01*
X145903831Y-112124275D01*
X145826734Y-112124083D01*
X145772001Y-112124067D01*
X145682794Y-112124146D01*
G36*
X144661703Y-112125351D02*
G01*
X144586888Y-112130581D01*
X144517306Y-112138750D01*
X144457002Y-112149550D01*
X144410020Y-112162673D01*
X144380406Y-112177813D01*
X144375860Y-112182269D01*
X144360054Y-112216850D01*
X144364847Y-112252351D01*
X144389364Y-112282725D01*
X144390534Y-112283596D01*
X144404954Y-112292954D01*
X144420008Y-112297876D01*
X144441005Y-112298473D01*
X144473257Y-112294861D01*
X144522073Y-112287154D01*
X144526000Y-112286505D01*
X144598739Y-112277569D01*
X144677217Y-112273161D01*
X144755927Y-112273119D01*
X144829361Y-112277279D01*
X144892011Y-112285479D01*
X144938370Y-112297557D01*
X144941416Y-112298771D01*
X144975048Y-112317615D01*
X144986864Y-112336685D01*
X144977614Y-112355439D01*
X144948047Y-112373337D01*
X144898911Y-112389837D01*
X144830957Y-112404396D01*
X144785645Y-112411406D01*
X144691456Y-112424889D01*
X144616544Y-112437214D01*
X144557717Y-112449449D01*
X144511785Y-112462661D01*
X144475555Y-112477917D01*
X144445838Y-112496285D01*
X144419442Y-112518831D01*
X144398230Y-112540971D01*
X144373065Y-112571819D01*
X144360681Y-112598345D01*
X144356808Y-112631026D01*
X144356667Y-112642995D01*
X144359576Y-112682712D01*
X144371202Y-112712259D01*
X144391323Y-112738486D01*
X144432216Y-112778576D01*
X144477817Y-112809149D01*
X144531513Y-112831203D01*
X144596692Y-112845735D01*
X144676744Y-112853741D01*
X144775057Y-112856218D01*
X144791289Y-112856177D01*
X144856849Y-112854818D01*
X144921866Y-112851730D01*
X144979252Y-112847356D01*
X145021922Y-112842140D01*
X145025372Y-112841541D01*
X145067796Y-112831491D01*
X145103780Y-112818796D01*
X145124150Y-112807190D01*
X145143107Y-112776572D01*
X145144427Y-112740918D01*
X145128085Y-112709144D01*
X145124429Y-112705551D01*
X145109315Y-112694876D01*
X145090415Y-112690276D01*
X145061162Y-112691059D01*
X145025651Y-112695127D01*
X144985970Y-112698762D01*
X144930345Y-112701828D01*
X144865406Y-112704053D01*
X144797785Y-112705164D01*
X144780000Y-112705237D01*
X144712128Y-112704964D01*
X144662454Y-112703646D01*
X144626610Y-112700827D01*
X144600224Y-112696050D01*
X144578926Y-112688857D01*
X144566126Y-112682867D01*
X144538000Y-112666233D01*
X144520068Y-112651168D01*
X144517447Y-112646897D01*
X144522976Y-112629263D01*
X144549260Y-112612192D01*
X144594478Y-112596458D01*
X144656808Y-112582838D01*
X144675171Y-112579804D01*
X144771090Y-112564738D01*
X144847641Y-112552146D01*
X144907780Y-112541111D01*
X144954460Y-112530720D01*
X144990637Y-112520056D01*
X145019265Y-112508205D01*
X145043298Y-112494251D01*
X145065692Y-112477281D01*
X145089402Y-112456378D01*
X145097380Y-112449049D01*
X145125353Y-112421699D01*
X145140160Y-112400029D01*
X145145952Y-112375232D01*
X145146889Y-112343983D01*
X145136575Y-112282705D01*
X145105752Y-112230640D01*
X145054595Y-112187958D01*
X144983283Y-112154825D01*
X144932400Y-112139964D01*
X144877100Y-112130366D01*
X144810853Y-112124936D01*
X144737706Y-112123367D01*
X144661703Y-112125351D01*
G37*
X144661703Y-112125351D02*
X144586888Y-112130581D01*
X144517306Y-112138750D01*
X144457002Y-112149550D01*
X144410020Y-112162673D01*
X144380406Y-112177813D01*
X144375860Y-112182269D01*
X144360054Y-112216850D01*
X144364847Y-112252351D01*
X144389364Y-112282725D01*
X144390534Y-112283596D01*
X144404954Y-112292954D01*
X144420008Y-112297876D01*
X144441005Y-112298473D01*
X144473257Y-112294861D01*
X144522073Y-112287154D01*
X144526000Y-112286505D01*
X144598739Y-112277569D01*
X144677217Y-112273161D01*
X144755927Y-112273119D01*
X144829361Y-112277279D01*
X144892011Y-112285479D01*
X144938370Y-112297557D01*
X144941416Y-112298771D01*
X144975048Y-112317615D01*
X144986864Y-112336685D01*
X144977614Y-112355439D01*
X144948047Y-112373337D01*
X144898911Y-112389837D01*
X144830957Y-112404396D01*
X144785645Y-112411406D01*
X144691456Y-112424889D01*
X144616544Y-112437214D01*
X144557717Y-112449449D01*
X144511785Y-112462661D01*
X144475555Y-112477917D01*
X144445838Y-112496285D01*
X144419442Y-112518831D01*
X144398230Y-112540971D01*
X144373065Y-112571819D01*
X144360681Y-112598345D01*
X144356808Y-112631026D01*
X144356667Y-112642995D01*
X144359576Y-112682712D01*
X144371202Y-112712259D01*
X144391323Y-112738486D01*
X144432216Y-112778576D01*
X144477817Y-112809149D01*
X144531513Y-112831203D01*
X144596692Y-112845735D01*
X144676744Y-112853741D01*
X144775057Y-112856218D01*
X144791289Y-112856177D01*
X144856849Y-112854818D01*
X144921866Y-112851730D01*
X144979252Y-112847356D01*
X145021922Y-112842140D01*
X145025372Y-112841541D01*
X145067796Y-112831491D01*
X145103780Y-112818796D01*
X145124150Y-112807190D01*
X145143107Y-112776572D01*
X145144427Y-112740918D01*
X145128085Y-112709144D01*
X145124429Y-112705551D01*
X145109315Y-112694876D01*
X145090415Y-112690276D01*
X145061162Y-112691059D01*
X145025651Y-112695127D01*
X144985970Y-112698762D01*
X144930345Y-112701828D01*
X144865406Y-112704053D01*
X144797785Y-112705164D01*
X144780000Y-112705237D01*
X144712128Y-112704964D01*
X144662454Y-112703646D01*
X144626610Y-112700827D01*
X144600224Y-112696050D01*
X144578926Y-112688857D01*
X144566126Y-112682867D01*
X144538000Y-112666233D01*
X144520068Y-112651168D01*
X144517447Y-112646897D01*
X144522976Y-112629263D01*
X144549260Y-112612192D01*
X144594478Y-112596458D01*
X144656808Y-112582838D01*
X144675171Y-112579804D01*
X144771090Y-112564738D01*
X144847641Y-112552146D01*
X144907780Y-112541111D01*
X144954460Y-112530720D01*
X144990637Y-112520056D01*
X145019265Y-112508205D01*
X145043298Y-112494251D01*
X145065692Y-112477281D01*
X145089402Y-112456378D01*
X145097380Y-112449049D01*
X145125353Y-112421699D01*
X145140160Y-112400029D01*
X145145952Y-112375232D01*
X145146889Y-112343983D01*
X145136575Y-112282705D01*
X145105752Y-112230640D01*
X145054595Y-112187958D01*
X144983283Y-112154825D01*
X144932400Y-112139964D01*
X144877100Y-112130366D01*
X144810853Y-112124936D01*
X144737706Y-112123367D01*
X144661703Y-112125351D01*
G36*
X143893822Y-112146645D02*
G01*
X143887242Y-112154218D01*
X143882079Y-112163987D01*
X143878164Y-112178571D01*
X143875324Y-112200585D01*
X143873387Y-112232648D01*
X143872183Y-112277375D01*
X143871539Y-112337385D01*
X143871284Y-112415294D01*
X143871245Y-112490956D01*
X143871314Y-112584802D01*
X143871638Y-112658689D01*
X143872386Y-112715232D01*
X143873732Y-112757049D01*
X143875846Y-112786757D01*
X143878900Y-112806973D01*
X143883066Y-112820314D01*
X143888516Y-112829398D01*
X143893822Y-112835267D01*
X143926826Y-112854947D01*
X143961991Y-112853181D01*
X143993455Y-112831717D01*
X144000684Y-112823337D01*
X144006334Y-112813614D01*
X144010599Y-112799861D01*
X144013673Y-112779389D01*
X144015752Y-112749512D01*
X144017030Y-112707541D01*
X144017701Y-112650789D01*
X144017959Y-112576567D01*
X144018000Y-112492537D01*
X144018000Y-112179485D01*
X143990291Y-112151776D01*
X143956137Y-112128463D01*
X143923006Y-112127623D01*
X143893822Y-112146645D01*
G37*
X143893822Y-112146645D02*
X143887242Y-112154218D01*
X143882079Y-112163987D01*
X143878164Y-112178571D01*
X143875324Y-112200585D01*
X143873387Y-112232648D01*
X143872183Y-112277375D01*
X143871539Y-112337385D01*
X143871284Y-112415294D01*
X143871245Y-112490956D01*
X143871314Y-112584802D01*
X143871638Y-112658689D01*
X143872386Y-112715232D01*
X143873732Y-112757049D01*
X143875846Y-112786757D01*
X143878900Y-112806973D01*
X143883066Y-112820314D01*
X143888516Y-112829398D01*
X143893822Y-112835267D01*
X143926826Y-112854947D01*
X143961991Y-112853181D01*
X143993455Y-112831717D01*
X144000684Y-112823337D01*
X144006334Y-112813614D01*
X144010599Y-112799861D01*
X144013673Y-112779389D01*
X144015752Y-112749512D01*
X144017030Y-112707541D01*
X144017701Y-112650789D01*
X144017959Y-112576567D01*
X144018000Y-112492537D01*
X144018000Y-112179485D01*
X143990291Y-112151776D01*
X143956137Y-112128463D01*
X143923006Y-112127623D01*
X143893822Y-112146645D01*
G36*
X142920081Y-112129599D02*
G01*
X142851565Y-112141095D01*
X142798943Y-112158967D01*
X142764708Y-112182499D01*
X142755379Y-112195924D01*
X142745893Y-112227148D01*
X142752277Y-112255395D01*
X142772430Y-112282182D01*
X142803745Y-112294713D01*
X142849183Y-112293696D01*
X142884326Y-112286906D01*
X142962419Y-112273971D01*
X143042226Y-112272742D01*
X143131555Y-112283241D01*
X143156229Y-112287690D01*
X143239291Y-112311108D01*
X143304273Y-112345945D01*
X143350461Y-112391604D01*
X143377145Y-112447494D01*
X143382663Y-112476388D01*
X143379051Y-112535012D01*
X143355729Y-112586879D01*
X143314824Y-112630978D01*
X143258459Y-112666299D01*
X143188760Y-112691829D01*
X143107852Y-112706559D01*
X143017860Y-112709478D01*
X142920910Y-112699575D01*
X142915436Y-112698641D01*
X142876875Y-112691459D01*
X142855494Y-112684521D01*
X142846227Y-112674227D01*
X142844006Y-112656976D01*
X142843956Y-112647841D01*
X142843956Y-112609489D01*
X142912431Y-112609489D01*
X142972900Y-112605347D01*
X143014165Y-112592147D01*
X143038175Y-112568730D01*
X143046877Y-112533936D01*
X143046983Y-112529394D01*
X143041892Y-112499654D01*
X143024433Y-112478419D01*
X142991939Y-112464366D01*
X142941743Y-112456173D01*
X142893123Y-112453161D01*
X142822456Y-112451433D01*
X142771198Y-112454070D01*
X142736239Y-112463800D01*
X142714470Y-112483353D01*
X142702780Y-112515456D01*
X142698060Y-112562838D01*
X142697200Y-112625071D01*
X142698609Y-112694535D01*
X142702848Y-112741786D01*
X142709936Y-112767012D01*
X142711311Y-112768988D01*
X142750228Y-112800508D01*
X142807286Y-112825470D01*
X142878869Y-112843340D01*
X142961358Y-112853586D01*
X143051139Y-112855673D01*
X143144592Y-112849068D01*
X143199556Y-112840956D01*
X143285766Y-112816554D01*
X143365892Y-112776662D01*
X143432977Y-112724887D01*
X143443173Y-112714539D01*
X143476302Y-112671035D01*
X143506194Y-112617118D01*
X143529357Y-112560592D01*
X143542298Y-112509259D01*
X143543858Y-112489544D01*
X143537218Y-112448419D01*
X143519568Y-112397252D01*
X143494297Y-112343394D01*
X143464789Y-112294195D01*
X143438719Y-112261334D01*
X143377765Y-112212452D01*
X143298969Y-112173545D01*
X143205157Y-112145494D01*
X143099150Y-112129179D01*
X143002000Y-112125192D01*
X142920081Y-112129599D01*
G37*
X142920081Y-112129599D02*
X142851565Y-112141095D01*
X142798943Y-112158967D01*
X142764708Y-112182499D01*
X142755379Y-112195924D01*
X142745893Y-112227148D01*
X142752277Y-112255395D01*
X142772430Y-112282182D01*
X142803745Y-112294713D01*
X142849183Y-112293696D01*
X142884326Y-112286906D01*
X142962419Y-112273971D01*
X143042226Y-112272742D01*
X143131555Y-112283241D01*
X143156229Y-112287690D01*
X143239291Y-112311108D01*
X143304273Y-112345945D01*
X143350461Y-112391604D01*
X143377145Y-112447494D01*
X143382663Y-112476388D01*
X143379051Y-112535012D01*
X143355729Y-112586879D01*
X143314824Y-112630978D01*
X143258459Y-112666299D01*
X143188760Y-112691829D01*
X143107852Y-112706559D01*
X143017860Y-112709478D01*
X142920910Y-112699575D01*
X142915436Y-112698641D01*
X142876875Y-112691459D01*
X142855494Y-112684521D01*
X142846227Y-112674227D01*
X142844006Y-112656976D01*
X142843956Y-112647841D01*
X142843956Y-112609489D01*
X142912431Y-112609489D01*
X142972900Y-112605347D01*
X143014165Y-112592147D01*
X143038175Y-112568730D01*
X143046877Y-112533936D01*
X143046983Y-112529394D01*
X143041892Y-112499654D01*
X143024433Y-112478419D01*
X142991939Y-112464366D01*
X142941743Y-112456173D01*
X142893123Y-112453161D01*
X142822456Y-112451433D01*
X142771198Y-112454070D01*
X142736239Y-112463800D01*
X142714470Y-112483353D01*
X142702780Y-112515456D01*
X142698060Y-112562838D01*
X142697200Y-112625071D01*
X142698609Y-112694535D01*
X142702848Y-112741786D01*
X142709936Y-112767012D01*
X142711311Y-112768988D01*
X142750228Y-112800508D01*
X142807286Y-112825470D01*
X142878869Y-112843340D01*
X142961358Y-112853586D01*
X143051139Y-112855673D01*
X143144592Y-112849068D01*
X143199556Y-112840956D01*
X143285766Y-112816554D01*
X143365892Y-112776662D01*
X143432977Y-112724887D01*
X143443173Y-112714539D01*
X143476302Y-112671035D01*
X143506194Y-112617118D01*
X143529357Y-112560592D01*
X143542298Y-112509259D01*
X143543858Y-112489544D01*
X143537218Y-112448419D01*
X143519568Y-112397252D01*
X143494297Y-112343394D01*
X143464789Y-112294195D01*
X143438719Y-112261334D01*
X143377765Y-112212452D01*
X143298969Y-112173545D01*
X143205157Y-112145494D01*
X143099150Y-112129179D01*
X143002000Y-112125192D01*
X142920081Y-112129599D01*
G36*
X142270114Y-112128448D02*
G01*
X142246548Y-112142273D01*
X142215735Y-112164881D01*
X142176078Y-112197338D01*
X142125980Y-112240708D01*
X142063843Y-112296058D01*
X141988072Y-112364451D01*
X141901334Y-112443084D01*
X141720711Y-112606878D01*
X141715067Y-112387029D01*
X141713029Y-112311351D01*
X141711063Y-112254994D01*
X141708734Y-112214706D01*
X141705606Y-112187235D01*
X141701245Y-112169329D01*
X141695216Y-112157737D01*
X141687084Y-112149208D01*
X141682772Y-112145623D01*
X141648241Y-112126670D01*
X141615383Y-112129441D01*
X141589318Y-112145633D01*
X141562667Y-112167199D01*
X141559352Y-112482151D01*
X141558435Y-112574779D01*
X141557968Y-112647544D01*
X141558113Y-112703161D01*
X141559032Y-112744342D01*
X141560887Y-112773803D01*
X141563839Y-112794255D01*
X141568050Y-112808413D01*
X141573682Y-112818991D01*
X141579927Y-112827474D01*
X141593439Y-112843207D01*
X141606883Y-112853636D01*
X141622124Y-112857639D01*
X141641026Y-112854094D01*
X141665455Y-112841879D01*
X141697273Y-112819871D01*
X141738348Y-112786949D01*
X141790542Y-112741991D01*
X141855722Y-112683875D01*
X141929556Y-112617099D01*
X142194845Y-112376458D01*
X142200489Y-112595589D01*
X142202531Y-112671128D01*
X142204502Y-112727354D01*
X142206839Y-112767524D01*
X142209981Y-112794896D01*
X142214364Y-112812728D01*
X142220424Y-112824279D01*
X142228600Y-112832807D01*
X142232784Y-112836282D01*
X142269765Y-112855372D01*
X142304708Y-112852493D01*
X142335136Y-112828100D01*
X142342097Y-112818286D01*
X142347523Y-112806826D01*
X142351603Y-112790968D01*
X142354529Y-112767963D01*
X142356492Y-112735062D01*
X142357683Y-112689516D01*
X142358292Y-112628573D01*
X142358511Y-112549486D01*
X142358534Y-112490956D01*
X142358460Y-112399407D01*
X142358113Y-112327687D01*
X142357301Y-112273045D01*
X142355833Y-112232732D01*
X142353519Y-112203998D01*
X142350167Y-112184093D01*
X142345588Y-112170268D01*
X142339589Y-112159772D01*
X142335136Y-112153811D01*
X142323850Y-112139691D01*
X142313301Y-112129029D01*
X142301893Y-112122892D01*
X142288030Y-112122343D01*
X142270114Y-112128448D01*
G37*
X142270114Y-112128448D02*
X142246548Y-112142273D01*
X142215735Y-112164881D01*
X142176078Y-112197338D01*
X142125980Y-112240708D01*
X142063843Y-112296058D01*
X141988072Y-112364451D01*
X141901334Y-112443084D01*
X141720711Y-112606878D01*
X141715067Y-112387029D01*
X141713029Y-112311351D01*
X141711063Y-112254994D01*
X141708734Y-112214706D01*
X141705606Y-112187235D01*
X141701245Y-112169329D01*
X141695216Y-112157737D01*
X141687084Y-112149208D01*
X141682772Y-112145623D01*
X141648241Y-112126670D01*
X141615383Y-112129441D01*
X141589318Y-112145633D01*
X141562667Y-112167199D01*
X141559352Y-112482151D01*
X141558435Y-112574779D01*
X141557968Y-112647544D01*
X141558113Y-112703161D01*
X141559032Y-112744342D01*
X141560887Y-112773803D01*
X141563839Y-112794255D01*
X141568050Y-112808413D01*
X141573682Y-112818991D01*
X141579927Y-112827474D01*
X141593439Y-112843207D01*
X141606883Y-112853636D01*
X141622124Y-112857639D01*
X141641026Y-112854094D01*
X141665455Y-112841879D01*
X141697273Y-112819871D01*
X141738348Y-112786949D01*
X141790542Y-112741991D01*
X141855722Y-112683875D01*
X141929556Y-112617099D01*
X142194845Y-112376458D01*
X142200489Y-112595589D01*
X142202531Y-112671128D01*
X142204502Y-112727354D01*
X142206839Y-112767524D01*
X142209981Y-112794896D01*
X142214364Y-112812728D01*
X142220424Y-112824279D01*
X142228600Y-112832807D01*
X142232784Y-112836282D01*
X142269765Y-112855372D01*
X142304708Y-112852493D01*
X142335136Y-112828100D01*
X142342097Y-112818286D01*
X142347523Y-112806826D01*
X142351603Y-112790968D01*
X142354529Y-112767963D01*
X142356492Y-112735062D01*
X142357683Y-112689516D01*
X142358292Y-112628573D01*
X142358511Y-112549486D01*
X142358534Y-112490956D01*
X142358460Y-112399407D01*
X142358113Y-112327687D01*
X142357301Y-112273045D01*
X142355833Y-112232732D01*
X142353519Y-112203998D01*
X142350167Y-112184093D01*
X142345588Y-112170268D01*
X142339589Y-112159772D01*
X142335136Y-112153811D01*
X142323850Y-112139691D01*
X142313301Y-112129029D01*
X142301893Y-112122892D01*
X142288030Y-112122343D01*
X142270114Y-112128448D01*
G36*
X140739657Y-112124260D02*
G01*
X140663299Y-112125174D01*
X140604783Y-112127311D01*
X140561745Y-112131175D01*
X140531817Y-112137267D01*
X140512632Y-112146090D01*
X140501824Y-112158146D01*
X140497027Y-112173939D01*
X140495873Y-112193970D01*
X140495867Y-112196335D01*
X140496869Y-112218992D01*
X140501604Y-112236503D01*
X140512667Y-112249574D01*
X140532652Y-112258913D01*
X140564154Y-112265227D01*
X140609768Y-112269222D01*
X140672087Y-112271606D01*
X140753707Y-112273086D01*
X140778723Y-112273414D01*
X141020800Y-112276467D01*
X141024186Y-112341378D01*
X141027571Y-112406289D01*
X140859424Y-112406289D01*
X140793734Y-112406531D01*
X140746828Y-112407556D01*
X140714917Y-112409811D01*
X140694209Y-112413742D01*
X140680916Y-112419798D01*
X140671245Y-112428424D01*
X140671183Y-112428493D01*
X140653644Y-112462112D01*
X140654278Y-112498448D01*
X140672686Y-112529423D01*
X140676329Y-112532607D01*
X140689259Y-112540812D01*
X140706976Y-112546521D01*
X140733430Y-112550162D01*
X140772568Y-112552167D01*
X140828338Y-112552964D01*
X140864006Y-112553045D01*
X141026445Y-112553045D01*
X141026445Y-112711089D01*
X140779839Y-112711089D01*
X140698420Y-112711231D01*
X140636590Y-112711814D01*
X140591363Y-112713068D01*
X140559752Y-112715227D01*
X140538769Y-112718523D01*
X140525427Y-112723189D01*
X140516739Y-112729457D01*
X140514550Y-112731733D01*
X140498386Y-112763280D01*
X140497203Y-112799168D01*
X140510464Y-112830285D01*
X140520957Y-112840271D01*
X140531871Y-112845769D01*
X140548783Y-112850022D01*
X140574367Y-112853180D01*
X140611299Y-112855392D01*
X140662254Y-112856806D01*
X140729906Y-112857572D01*
X140816931Y-112857838D01*
X140836606Y-112857845D01*
X140925089Y-112857787D01*
X140993773Y-112857467D01*
X141045436Y-112856667D01*
X141082855Y-112855167D01*
X141108810Y-112852749D01*
X141126078Y-112849194D01*
X141137438Y-112844282D01*
X141145668Y-112837795D01*
X141150183Y-112833138D01*
X141156979Y-112824889D01*
X141162288Y-112814669D01*
X141166294Y-112799800D01*
X141169179Y-112777602D01*
X141171126Y-112745393D01*
X141172319Y-112700496D01*
X141172939Y-112640228D01*
X141173171Y-112561911D01*
X141173200Y-112495994D01*
X141173129Y-112403628D01*
X141172792Y-112331117D01*
X141172002Y-112275737D01*
X141170574Y-112234765D01*
X141168321Y-112205478D01*
X141165057Y-112185153D01*
X141160596Y-112171066D01*
X141154752Y-112160495D01*
X141149803Y-112153811D01*
X141126406Y-112124067D01*
X140836226Y-112124067D01*
X140739657Y-112124260D01*
G37*
X140739657Y-112124260D02*
X140663299Y-112125174D01*
X140604783Y-112127311D01*
X140561745Y-112131175D01*
X140531817Y-112137267D01*
X140512632Y-112146090D01*
X140501824Y-112158146D01*
X140497027Y-112173939D01*
X140495873Y-112193970D01*
X140495867Y-112196335D01*
X140496869Y-112218992D01*
X140501604Y-112236503D01*
X140512667Y-112249574D01*
X140532652Y-112258913D01*
X140564154Y-112265227D01*
X140609768Y-112269222D01*
X140672087Y-112271606D01*
X140753707Y-112273086D01*
X140778723Y-112273414D01*
X141020800Y-112276467D01*
X141024186Y-112341378D01*
X141027571Y-112406289D01*
X140859424Y-112406289D01*
X140793734Y-112406531D01*
X140746828Y-112407556D01*
X140714917Y-112409811D01*
X140694209Y-112413742D01*
X140680916Y-112419798D01*
X140671245Y-112428424D01*
X140671183Y-112428493D01*
X140653644Y-112462112D01*
X140654278Y-112498448D01*
X140672686Y-112529423D01*
X140676329Y-112532607D01*
X140689259Y-112540812D01*
X140706976Y-112546521D01*
X140733430Y-112550162D01*
X140772568Y-112552167D01*
X140828338Y-112552964D01*
X140864006Y-112553045D01*
X141026445Y-112553045D01*
X141026445Y-112711089D01*
X140779839Y-112711089D01*
X140698420Y-112711231D01*
X140636590Y-112711814D01*
X140591363Y-112713068D01*
X140559752Y-112715227D01*
X140538769Y-112718523D01*
X140525427Y-112723189D01*
X140516739Y-112729457D01*
X140514550Y-112731733D01*
X140498386Y-112763280D01*
X140497203Y-112799168D01*
X140510464Y-112830285D01*
X140520957Y-112840271D01*
X140531871Y-112845769D01*
X140548783Y-112850022D01*
X140574367Y-112853180D01*
X140611299Y-112855392D01*
X140662254Y-112856806D01*
X140729906Y-112857572D01*
X140816931Y-112857838D01*
X140836606Y-112857845D01*
X140925089Y-112857787D01*
X140993773Y-112857467D01*
X141045436Y-112856667D01*
X141082855Y-112855167D01*
X141108810Y-112852749D01*
X141126078Y-112849194D01*
X141137438Y-112844282D01*
X141145668Y-112837795D01*
X141150183Y-112833138D01*
X141156979Y-112824889D01*
X141162288Y-112814669D01*
X141166294Y-112799800D01*
X141169179Y-112777602D01*
X141171126Y-112745393D01*
X141172319Y-112700496D01*
X141172939Y-112640228D01*
X141173171Y-112561911D01*
X141173200Y-112495994D01*
X141173129Y-112403628D01*
X141172792Y-112331117D01*
X141172002Y-112275737D01*
X141170574Y-112234765D01*
X141168321Y-112205478D01*
X141165057Y-112185153D01*
X141160596Y-112171066D01*
X141154752Y-112160495D01*
X141149803Y-112153811D01*
X141126406Y-112124067D01*
X140836226Y-112124067D01*
X140739657Y-112124260D01*
G36*
X139951691Y-112124275D02*
G01*
X139822712Y-112128636D01*
X139713009Y-112141861D01*
X139620774Y-112164741D01*
X139544198Y-112198070D01*
X139481473Y-112242638D01*
X139430788Y-112299236D01*
X139390337Y-112368658D01*
X139389541Y-112370351D01*
X139365399Y-112432483D01*
X139356797Y-112487509D01*
X139363769Y-112542887D01*
X139386346Y-112606073D01*
X139390628Y-112615689D01*
X139419828Y-112671966D01*
X139452644Y-112715451D01*
X139494998Y-112752417D01*
X139552810Y-112789135D01*
X139556169Y-112791052D01*
X139606496Y-112815227D01*
X139663379Y-112833282D01*
X139730473Y-112845839D01*
X139811435Y-112853522D01*
X139909918Y-112856953D01*
X139944714Y-112857251D01*
X140110406Y-112857845D01*
X140133803Y-112828100D01*
X140140743Y-112818319D01*
X140146158Y-112806897D01*
X140150235Y-112791095D01*
X140153163Y-112768175D01*
X140155133Y-112735396D01*
X140155775Y-112711089D01*
X139999156Y-112711089D01*
X139905274Y-112711089D01*
X139850336Y-112709483D01*
X139793940Y-112705255D01*
X139747655Y-112699292D01*
X139744861Y-112698790D01*
X139662652Y-112676736D01*
X139598886Y-112643600D01*
X139551548Y-112597847D01*
X139518618Y-112537939D01*
X139512892Y-112522061D01*
X139507279Y-112497333D01*
X139509709Y-112472902D01*
X139521533Y-112440400D01*
X139528660Y-112424434D01*
X139552000Y-112382006D01*
X139580120Y-112352240D01*
X139611060Y-112331511D01*
X139673034Y-112304537D01*
X139752349Y-112284998D01*
X139844747Y-112273746D01*
X139911667Y-112271270D01*
X139999156Y-112270822D01*
X139999156Y-112711089D01*
X140155775Y-112711089D01*
X140156332Y-112690021D01*
X140156950Y-112629311D01*
X140157175Y-112550526D01*
X140157200Y-112488920D01*
X140157200Y-112179485D01*
X140129491Y-112151776D01*
X140117194Y-112140544D01*
X140103897Y-112132853D01*
X140085328Y-112128040D01*
X140057214Y-112125446D01*
X140015283Y-112124410D01*
X139955263Y-112124270D01*
X139951691Y-112124275D01*
G37*
X139951691Y-112124275D02*
X139822712Y-112128636D01*
X139713009Y-112141861D01*
X139620774Y-112164741D01*
X139544198Y-112198070D01*
X139481473Y-112242638D01*
X139430788Y-112299236D01*
X139390337Y-112368658D01*
X139389541Y-112370351D01*
X139365399Y-112432483D01*
X139356797Y-112487509D01*
X139363769Y-112542887D01*
X139386346Y-112606073D01*
X139390628Y-112615689D01*
X139419828Y-112671966D01*
X139452644Y-112715451D01*
X139494998Y-112752417D01*
X139552810Y-112789135D01*
X139556169Y-112791052D01*
X139606496Y-112815227D01*
X139663379Y-112833282D01*
X139730473Y-112845839D01*
X139811435Y-112853522D01*
X139909918Y-112856953D01*
X139944714Y-112857251D01*
X140110406Y-112857845D01*
X140133803Y-112828100D01*
X140140743Y-112818319D01*
X140146158Y-112806897D01*
X140150235Y-112791095D01*
X140153163Y-112768175D01*
X140155133Y-112735396D01*
X140155775Y-112711089D01*
X139999156Y-112711089D01*
X139905274Y-112711089D01*
X139850336Y-112709483D01*
X139793940Y-112705255D01*
X139747655Y-112699292D01*
X139744861Y-112698790D01*
X139662652Y-112676736D01*
X139598886Y-112643600D01*
X139551548Y-112597847D01*
X139518618Y-112537939D01*
X139512892Y-112522061D01*
X139507279Y-112497333D01*
X139509709Y-112472902D01*
X139521533Y-112440400D01*
X139528660Y-112424434D01*
X139552000Y-112382006D01*
X139580120Y-112352240D01*
X139611060Y-112331511D01*
X139673034Y-112304537D01*
X139752349Y-112284998D01*
X139844747Y-112273746D01*
X139911667Y-112271270D01*
X139999156Y-112270822D01*
X139999156Y-112711089D01*
X140155775Y-112711089D01*
X140156332Y-112690021D01*
X140156950Y-112629311D01*
X140157175Y-112550526D01*
X140157200Y-112488920D01*
X140157200Y-112179485D01*
X140129491Y-112151776D01*
X140117194Y-112140544D01*
X140103897Y-112132853D01*
X140085328Y-112128040D01*
X140057214Y-112125446D01*
X140015283Y-112124410D01*
X139955263Y-112124270D01*
X139951691Y-112124275D01*
G36*
X137225335Y-112126034D02*
G01*
X137205745Y-112133035D01*
X137204990Y-112133377D01*
X137178387Y-112153678D01*
X137163730Y-112174561D01*
X137160862Y-112184352D01*
X137161004Y-112197361D01*
X137165039Y-112215895D01*
X137173854Y-112242257D01*
X137188331Y-112278752D01*
X137209355Y-112327687D01*
X137237812Y-112391365D01*
X137274585Y-112472093D01*
X137294825Y-112516216D01*
X137331375Y-112594985D01*
X137365685Y-112667423D01*
X137396448Y-112730880D01*
X137422352Y-112782708D01*
X137442090Y-112820259D01*
X137454350Y-112840884D01*
X137456776Y-112843733D01*
X137487817Y-112856302D01*
X137522879Y-112854619D01*
X137551000Y-112839332D01*
X137552146Y-112838089D01*
X137563332Y-112821154D01*
X137582096Y-112788170D01*
X137606125Y-112743380D01*
X137633103Y-112691032D01*
X137642799Y-112671742D01*
X137715986Y-112525150D01*
X137795760Y-112684393D01*
X137824233Y-112739415D01*
X137850650Y-112787132D01*
X137872852Y-112823893D01*
X137888681Y-112846044D01*
X137894046Y-112850741D01*
X137935743Y-112857102D01*
X137970151Y-112843733D01*
X137980272Y-112829446D01*
X137997786Y-112797692D01*
X138021265Y-112751597D01*
X138049280Y-112694285D01*
X138080401Y-112628880D01*
X138113201Y-112558507D01*
X138146250Y-112486291D01*
X138178119Y-112415355D01*
X138207381Y-112348825D01*
X138232605Y-112289826D01*
X138252364Y-112241481D01*
X138265228Y-112206915D01*
X138269769Y-112189253D01*
X138269723Y-112188613D01*
X138258674Y-112166388D01*
X138236590Y-112143753D01*
X138235290Y-112142768D01*
X138208147Y-112127425D01*
X138183042Y-112127574D01*
X138173632Y-112130466D01*
X138162166Y-112136718D01*
X138149990Y-112149014D01*
X138135643Y-112169908D01*
X138117664Y-112201949D01*
X138094593Y-112247688D01*
X138064970Y-112309677D01*
X138038255Y-112366898D01*
X138007520Y-112433226D01*
X137979979Y-112492874D01*
X137957062Y-112542725D01*
X137940202Y-112579664D01*
X137930827Y-112600573D01*
X137929460Y-112603845D01*
X137923311Y-112598497D01*
X137909178Y-112576109D01*
X137888943Y-112539946D01*
X137864485Y-112493277D01*
X137854752Y-112474022D01*
X137821783Y-112409004D01*
X137796357Y-112361654D01*
X137776388Y-112329219D01*
X137759790Y-112308946D01*
X137744476Y-112298082D01*
X137728360Y-112293875D01*
X137717857Y-112293400D01*
X137699330Y-112295042D01*
X137683096Y-112301831D01*
X137666965Y-112316566D01*
X137648749Y-112342044D01*
X137626261Y-112381061D01*
X137597311Y-112436414D01*
X137581338Y-112467903D01*
X137555430Y-112518087D01*
X137532833Y-112559704D01*
X137515542Y-112589242D01*
X137505550Y-112603189D01*
X137504191Y-112603770D01*
X137497739Y-112592793D01*
X137483292Y-112564290D01*
X137462297Y-112521244D01*
X137436203Y-112466638D01*
X137406454Y-112403454D01*
X137391820Y-112372071D01*
X137353750Y-112291078D01*
X137323095Y-112228756D01*
X137298263Y-112183071D01*
X137277663Y-112151989D01*
X137259702Y-112133478D01*
X137242790Y-112125504D01*
X137225335Y-112126034D01*
G37*
X137225335Y-112126034D02*
X137205745Y-112133035D01*
X137204990Y-112133377D01*
X137178387Y-112153678D01*
X137163730Y-112174561D01*
X137160862Y-112184352D01*
X137161004Y-112197361D01*
X137165039Y-112215895D01*
X137173854Y-112242257D01*
X137188331Y-112278752D01*
X137209355Y-112327687D01*
X137237812Y-112391365D01*
X137274585Y-112472093D01*
X137294825Y-112516216D01*
X137331375Y-112594985D01*
X137365685Y-112667423D01*
X137396448Y-112730880D01*
X137422352Y-112782708D01*
X137442090Y-112820259D01*
X137454350Y-112840884D01*
X137456776Y-112843733D01*
X137487817Y-112856302D01*
X137522879Y-112854619D01*
X137551000Y-112839332D01*
X137552146Y-112838089D01*
X137563332Y-112821154D01*
X137582096Y-112788170D01*
X137606125Y-112743380D01*
X137633103Y-112691032D01*
X137642799Y-112671742D01*
X137715986Y-112525150D01*
X137795760Y-112684393D01*
X137824233Y-112739415D01*
X137850650Y-112787132D01*
X137872852Y-112823893D01*
X137888681Y-112846044D01*
X137894046Y-112850741D01*
X137935743Y-112857102D01*
X137970151Y-112843733D01*
X137980272Y-112829446D01*
X137997786Y-112797692D01*
X138021265Y-112751597D01*
X138049280Y-112694285D01*
X138080401Y-112628880D01*
X138113201Y-112558507D01*
X138146250Y-112486291D01*
X138178119Y-112415355D01*
X138207381Y-112348825D01*
X138232605Y-112289826D01*
X138252364Y-112241481D01*
X138265228Y-112206915D01*
X138269769Y-112189253D01*
X138269723Y-112188613D01*
X138258674Y-112166388D01*
X138236590Y-112143753D01*
X138235290Y-112142768D01*
X138208147Y-112127425D01*
X138183042Y-112127574D01*
X138173632Y-112130466D01*
X138162166Y-112136718D01*
X138149990Y-112149014D01*
X138135643Y-112169908D01*
X138117664Y-112201949D01*
X138094593Y-112247688D01*
X138064970Y-112309677D01*
X138038255Y-112366898D01*
X138007520Y-112433226D01*
X137979979Y-112492874D01*
X137957062Y-112542725D01*
X137940202Y-112579664D01*
X137930827Y-112600573D01*
X137929460Y-112603845D01*
X137923311Y-112598497D01*
X137909178Y-112576109D01*
X137888943Y-112539946D01*
X137864485Y-112493277D01*
X137854752Y-112474022D01*
X137821783Y-112409004D01*
X137796357Y-112361654D01*
X137776388Y-112329219D01*
X137759790Y-112308946D01*
X137744476Y-112298082D01*
X137728360Y-112293875D01*
X137717857Y-112293400D01*
X137699330Y-112295042D01*
X137683096Y-112301831D01*
X137666965Y-112316566D01*
X137648749Y-112342044D01*
X137626261Y-112381061D01*
X137597311Y-112436414D01*
X137581338Y-112467903D01*
X137555430Y-112518087D01*
X137532833Y-112559704D01*
X137515542Y-112589242D01*
X137505550Y-112603189D01*
X137504191Y-112603770D01*
X137497739Y-112592793D01*
X137483292Y-112564290D01*
X137462297Y-112521244D01*
X137436203Y-112466638D01*
X137406454Y-112403454D01*
X137391820Y-112372071D01*
X137353750Y-112291078D01*
X137323095Y-112228756D01*
X137298263Y-112183071D01*
X137277663Y-112151989D01*
X137259702Y-112133478D01*
X137242790Y-112125504D01*
X137225335Y-112126034D01*
G36*
X136781386Y-112130877D02*
G01*
X136757673Y-112145647D01*
X136731022Y-112167227D01*
X136731022Y-112488773D01*
X136731107Y-112582830D01*
X136731471Y-112656932D01*
X136732276Y-112713704D01*
X136733687Y-112755768D01*
X136735867Y-112785748D01*
X136738979Y-112806267D01*
X136743186Y-112819949D01*
X136748652Y-112829416D01*
X136752528Y-112834082D01*
X136783966Y-112854575D01*
X136819767Y-112853739D01*
X136851127Y-112836264D01*
X136877778Y-112814684D01*
X136877778Y-112167227D01*
X136851127Y-112145647D01*
X136825406Y-112129949D01*
X136804400Y-112124067D01*
X136781386Y-112130877D01*
G37*
X136781386Y-112130877D02*
X136757673Y-112145647D01*
X136731022Y-112167227D01*
X136731022Y-112488773D01*
X136731107Y-112582830D01*
X136731471Y-112656932D01*
X136732276Y-112713704D01*
X136733687Y-112755768D01*
X136735867Y-112785748D01*
X136738979Y-112806267D01*
X136743186Y-112819949D01*
X136748652Y-112829416D01*
X136752528Y-112834082D01*
X136783966Y-112854575D01*
X136819767Y-112853739D01*
X136851127Y-112836264D01*
X136877778Y-112814684D01*
X136877778Y-112167227D01*
X136851127Y-112145647D01*
X136825406Y-112129949D01*
X136804400Y-112124067D01*
X136781386Y-112130877D01*
G36*
X136006935Y-112124163D02*
G01*
X135928228Y-112124542D01*
X135867137Y-112125333D01*
X135821183Y-112126670D01*
X135787886Y-112128683D01*
X135764764Y-112131506D01*
X135749338Y-112135269D01*
X135739129Y-112140105D01*
X135734187Y-112143822D01*
X135708543Y-112176358D01*
X135705441Y-112210138D01*
X135721289Y-112240826D01*
X135731652Y-112253089D01*
X135742804Y-112261450D01*
X135758965Y-112266657D01*
X135784358Y-112269457D01*
X135823202Y-112270596D01*
X135879720Y-112270821D01*
X135890820Y-112270822D01*
X136036756Y-112270822D01*
X136036756Y-112541756D01*
X136036852Y-112627154D01*
X136037289Y-112692864D01*
X136038288Y-112741774D01*
X136040072Y-112776773D01*
X136042863Y-112800749D01*
X136046883Y-112816593D01*
X136052355Y-112827191D01*
X136059334Y-112835267D01*
X136092266Y-112855112D01*
X136126646Y-112853548D01*
X136157824Y-112830906D01*
X136160114Y-112828100D01*
X136167571Y-112817492D01*
X136173253Y-112805081D01*
X136177399Y-112787850D01*
X136180250Y-112762784D01*
X136182046Y-112726867D01*
X136183028Y-112677083D01*
X136183436Y-112610417D01*
X136183511Y-112534589D01*
X136183511Y-112270822D01*
X136322873Y-112270822D01*
X136382678Y-112270418D01*
X136424082Y-112268840D01*
X136451252Y-112265547D01*
X136468354Y-112259992D01*
X136479557Y-112251631D01*
X136480917Y-112250178D01*
X136497275Y-112216939D01*
X136495828Y-112179362D01*
X136477022Y-112146645D01*
X136469750Y-112140298D01*
X136460373Y-112135266D01*
X136446391Y-112131396D01*
X136425304Y-112128537D01*
X136394611Y-112126535D01*
X136351811Y-112125239D01*
X136294405Y-112124498D01*
X136219890Y-112124158D01*
X136125767Y-112124068D01*
X136105740Y-112124067D01*
X136006935Y-112124163D01*
G37*
X136006935Y-112124163D02*
X135928228Y-112124542D01*
X135867137Y-112125333D01*
X135821183Y-112126670D01*
X135787886Y-112128683D01*
X135764764Y-112131506D01*
X135749338Y-112135269D01*
X135739129Y-112140105D01*
X135734187Y-112143822D01*
X135708543Y-112176358D01*
X135705441Y-112210138D01*
X135721289Y-112240826D01*
X135731652Y-112253089D01*
X135742804Y-112261450D01*
X135758965Y-112266657D01*
X135784358Y-112269457D01*
X135823202Y-112270596D01*
X135879720Y-112270821D01*
X135890820Y-112270822D01*
X136036756Y-112270822D01*
X136036756Y-112541756D01*
X136036852Y-112627154D01*
X136037289Y-112692864D01*
X136038288Y-112741774D01*
X136040072Y-112776773D01*
X136042863Y-112800749D01*
X136046883Y-112816593D01*
X136052355Y-112827191D01*
X136059334Y-112835267D01*
X136092266Y-112855112D01*
X136126646Y-112853548D01*
X136157824Y-112830906D01*
X136160114Y-112828100D01*
X136167571Y-112817492D01*
X136173253Y-112805081D01*
X136177399Y-112787850D01*
X136180250Y-112762784D01*
X136182046Y-112726867D01*
X136183028Y-112677083D01*
X136183436Y-112610417D01*
X136183511Y-112534589D01*
X136183511Y-112270822D01*
X136322873Y-112270822D01*
X136382678Y-112270418D01*
X136424082Y-112268840D01*
X136451252Y-112265547D01*
X136468354Y-112259992D01*
X136479557Y-112251631D01*
X136480917Y-112250178D01*
X136497275Y-112216939D01*
X136495828Y-112179362D01*
X136477022Y-112146645D01*
X136469750Y-112140298D01*
X136460373Y-112135266D01*
X136446391Y-112131396D01*
X136425304Y-112128537D01*
X136394611Y-112126535D01*
X136351811Y-112125239D01*
X136294405Y-112124498D01*
X136219890Y-112124158D01*
X136125767Y-112124068D01*
X136105740Y-112124067D01*
X136006935Y-112124163D01*
G36*
X134741177Y-112129533D02*
G01*
X134709798Y-112151776D01*
X134682089Y-112179485D01*
X134682089Y-112488920D01*
X134682162Y-112580799D01*
X134682505Y-112652840D01*
X134683308Y-112707780D01*
X134684759Y-112748360D01*
X134687048Y-112777317D01*
X134690364Y-112797391D01*
X134694895Y-112811321D01*
X134700831Y-112821845D01*
X134705486Y-112828100D01*
X134736217Y-112852673D01*
X134771504Y-112855341D01*
X134803755Y-112840271D01*
X134814412Y-112831374D01*
X134821536Y-112819557D01*
X134825833Y-112800526D01*
X134828009Y-112769992D01*
X134828772Y-112723662D01*
X134828845Y-112687871D01*
X134828845Y-112553045D01*
X135325556Y-112553045D01*
X135325556Y-112675700D01*
X135326069Y-112731787D01*
X135328124Y-112770333D01*
X135332492Y-112796361D01*
X135339944Y-112814897D01*
X135348953Y-112828100D01*
X135379856Y-112852604D01*
X135414804Y-112855506D01*
X135448262Y-112838089D01*
X135457396Y-112828959D01*
X135463848Y-112816855D01*
X135468103Y-112798001D01*
X135470648Y-112768620D01*
X135471971Y-112724937D01*
X135472557Y-112663175D01*
X135472625Y-112649000D01*
X135473109Y-112532631D01*
X135473359Y-112436727D01*
X135473277Y-112359177D01*
X135472769Y-112297869D01*
X135471738Y-112250690D01*
X135470087Y-112215530D01*
X135467721Y-112190276D01*
X135464543Y-112172817D01*
X135460456Y-112161041D01*
X135455366Y-112152835D01*
X135449734Y-112146645D01*
X135417872Y-112126844D01*
X135384643Y-112129533D01*
X135353265Y-112151776D01*
X135340567Y-112166126D01*
X135332474Y-112181978D01*
X135327958Y-112204554D01*
X135325994Y-112239078D01*
X135325556Y-112290776D01*
X135325556Y-112406289D01*
X134828845Y-112406289D01*
X134828845Y-112287756D01*
X134828338Y-112233148D01*
X134826302Y-112196275D01*
X134821965Y-112172307D01*
X134814553Y-112156415D01*
X134806267Y-112146645D01*
X134774406Y-112126844D01*
X134741177Y-112129533D01*
G37*
X134741177Y-112129533D02*
X134709798Y-112151776D01*
X134682089Y-112179485D01*
X134682089Y-112488920D01*
X134682162Y-112580799D01*
X134682505Y-112652840D01*
X134683308Y-112707780D01*
X134684759Y-112748360D01*
X134687048Y-112777317D01*
X134690364Y-112797391D01*
X134694895Y-112811321D01*
X134700831Y-112821845D01*
X134705486Y-112828100D01*
X134736217Y-112852673D01*
X134771504Y-112855341D01*
X134803755Y-112840271D01*
X134814412Y-112831374D01*
X134821536Y-112819557D01*
X134825833Y-112800526D01*
X134828009Y-112769992D01*
X134828772Y-112723662D01*
X134828845Y-112687871D01*
X134828845Y-112553045D01*
X135325556Y-112553045D01*
X135325556Y-112675700D01*
X135326069Y-112731787D01*
X135328124Y-112770333D01*
X135332492Y-112796361D01*
X135339944Y-112814897D01*
X135348953Y-112828100D01*
X135379856Y-112852604D01*
X135414804Y-112855506D01*
X135448262Y-112838089D01*
X135457396Y-112828959D01*
X135463848Y-112816855D01*
X135468103Y-112798001D01*
X135470648Y-112768620D01*
X135471971Y-112724937D01*
X135472557Y-112663175D01*
X135472625Y-112649000D01*
X135473109Y-112532631D01*
X135473359Y-112436727D01*
X135473277Y-112359177D01*
X135472769Y-112297869D01*
X135471738Y-112250690D01*
X135470087Y-112215530D01*
X135467721Y-112190276D01*
X135464543Y-112172817D01*
X135460456Y-112161041D01*
X135455366Y-112152835D01*
X135449734Y-112146645D01*
X135417872Y-112126844D01*
X135384643Y-112129533D01*
X135353265Y-112151776D01*
X135340567Y-112166126D01*
X135332474Y-112181978D01*
X135327958Y-112204554D01*
X135325994Y-112239078D01*
X135325556Y-112290776D01*
X135325556Y-112406289D01*
X134828845Y-112406289D01*
X134828845Y-112287756D01*
X134828338Y-112233148D01*
X134826302Y-112196275D01*
X134821965Y-112172307D01*
X134814553Y-112156415D01*
X134806267Y-112146645D01*
X134774406Y-112126844D01*
X134741177Y-112129533D01*
%TO.C,G\u002A\u002A\u002A*%
G36*
X147033010Y-98890950D02*
G01*
X146848949Y-98891031D01*
X146681735Y-98891194D01*
X146530504Y-98891462D01*
X146394392Y-98891858D01*
X146272534Y-98892407D01*
X146164068Y-98893130D01*
X146068128Y-98894052D01*
X145983852Y-98895195D01*
X145910375Y-98896584D01*
X145846832Y-98898241D01*
X145792361Y-98900190D01*
X145746097Y-98902454D01*
X145707176Y-98905056D01*
X145674734Y-98908020D01*
X145647908Y-98911369D01*
X145625833Y-98915126D01*
X145607645Y-98919315D01*
X145592480Y-98923959D01*
X145579475Y-98929081D01*
X145567766Y-98934705D01*
X145556487Y-98940853D01*
X145544777Y-98947550D01*
X145531769Y-98954818D01*
X145528716Y-98956460D01*
X145467201Y-98997184D01*
X145406005Y-99051557D01*
X145351686Y-99113004D01*
X145310809Y-99174938D01*
X145303488Y-99188208D01*
X145296738Y-99200021D01*
X145290536Y-99211244D01*
X145284859Y-99222738D01*
X145279683Y-99235368D01*
X145274986Y-99249997D01*
X145270744Y-99267490D01*
X145266934Y-99288711D01*
X145263534Y-99314521D01*
X145260520Y-99345787D01*
X145257869Y-99383371D01*
X145255557Y-99428137D01*
X145253563Y-99480948D01*
X145251862Y-99542669D01*
X145250432Y-99614164D01*
X145249250Y-99696296D01*
X145248292Y-99789928D01*
X145247535Y-99895925D01*
X145246957Y-100015150D01*
X145246534Y-100148467D01*
X145246243Y-100296740D01*
X145246061Y-100460833D01*
X145245965Y-100641609D01*
X145245932Y-100839932D01*
X145245939Y-101056665D01*
X145245962Y-101292673D01*
X145245979Y-101548820D01*
X145245980Y-101600000D01*
X145245993Y-101858935D01*
X145246038Y-102097546D01*
X145246120Y-102316673D01*
X145246245Y-102517159D01*
X145246419Y-102699846D01*
X145246647Y-102865574D01*
X145246936Y-103015186D01*
X145247291Y-103149524D01*
X145247719Y-103269429D01*
X145248224Y-103375743D01*
X145248814Y-103469308D01*
X145249493Y-103550965D01*
X145250268Y-103621557D01*
X145251145Y-103681925D01*
X145252129Y-103732910D01*
X145253226Y-103775355D01*
X145254443Y-103810101D01*
X145255784Y-103837990D01*
X145257257Y-103859864D01*
X145258866Y-103876564D01*
X145260617Y-103888933D01*
X145261963Y-103895598D01*
X145295136Y-103991607D01*
X145346162Y-104079332D01*
X145412527Y-104156261D01*
X145491720Y-104219882D01*
X145581227Y-104267681D01*
X145659402Y-104293037D01*
X145678284Y-104294984D01*
X145717108Y-104296813D01*
X145774663Y-104298526D01*
X145849738Y-104300122D01*
X145941120Y-104301602D01*
X146047598Y-104302964D01*
X146167960Y-104304211D01*
X146300995Y-104305341D01*
X146445491Y-104306356D01*
X146600237Y-104307254D01*
X146764021Y-104308036D01*
X146935630Y-104308703D01*
X147113855Y-104309254D01*
X147297483Y-104309690D01*
X147485302Y-104310010D01*
X147676100Y-104310215D01*
X147868667Y-104310305D01*
X148061791Y-104310280D01*
X148254260Y-104310141D01*
X148444861Y-104309886D01*
X148632385Y-104309518D01*
X148815619Y-104309034D01*
X148993351Y-104308437D01*
X149164370Y-104307725D01*
X149327464Y-104306899D01*
X149481422Y-104305960D01*
X149625033Y-104304906D01*
X149757083Y-104303740D01*
X149876362Y-104302459D01*
X149981659Y-104301065D01*
X150071761Y-104299558D01*
X150145457Y-104297938D01*
X150201535Y-104296205D01*
X150238784Y-104294359D01*
X150255456Y-104292543D01*
X150349347Y-104259269D01*
X150435648Y-104208097D01*
X150511701Y-104141714D01*
X150574849Y-104062807D01*
X150622436Y-103974062D01*
X150648037Y-103895598D01*
X150649895Y-103885815D01*
X150651605Y-103872304D01*
X150653175Y-103854221D01*
X150654609Y-103830727D01*
X150655915Y-103800978D01*
X150657097Y-103764134D01*
X150658162Y-103719352D01*
X150659115Y-103665791D01*
X150659962Y-103602609D01*
X150660709Y-103528964D01*
X150661362Y-103444014D01*
X150661928Y-103346919D01*
X150662410Y-103236835D01*
X150662817Y-103112922D01*
X150663153Y-102974337D01*
X150663424Y-102820238D01*
X150663612Y-102668917D01*
X150484417Y-102668917D01*
X150475693Y-102738018D01*
X150451286Y-102802653D01*
X150413839Y-102858284D01*
X150365998Y-102900377D01*
X150341633Y-102913762D01*
X150280916Y-102931050D01*
X150213115Y-102933514D01*
X150145934Y-102921470D01*
X150102022Y-102903865D01*
X150045959Y-102864632D01*
X149627167Y-102864632D01*
X149617204Y-102869052D01*
X149589741Y-102874286D01*
X149548413Y-102880022D01*
X149496857Y-102885951D01*
X149438707Y-102891761D01*
X149377601Y-102897142D01*
X149317174Y-102901784D01*
X149261062Y-102905375D01*
X149212901Y-102907605D01*
X149176328Y-102908163D01*
X149154978Y-102906739D01*
X149151230Y-102905290D01*
X149146614Y-102893292D01*
X149137150Y-102863350D01*
X149123561Y-102817944D01*
X149106571Y-102759550D01*
X149086905Y-102690645D01*
X149065286Y-102613708D01*
X149051226Y-102563083D01*
X149028772Y-102481897D01*
X149007967Y-102406716D01*
X148989524Y-102340113D01*
X148974155Y-102284656D01*
X148962572Y-102242916D01*
X148955488Y-102217464D01*
X148953691Y-102211075D01*
X148951333Y-102206572D01*
X148945845Y-102202879D01*
X148935353Y-102199933D01*
X148917986Y-102197667D01*
X148891872Y-102196019D01*
X148855137Y-102194924D01*
X148805910Y-102194316D01*
X148742319Y-102194133D01*
X148662490Y-102194309D01*
X148564551Y-102194780D01*
X148492437Y-102195200D01*
X148036537Y-102197958D01*
X147943239Y-102563083D01*
X147921683Y-102647507D01*
X147901864Y-102725244D01*
X147884375Y-102793963D01*
X147869808Y-102851332D01*
X147858755Y-102895017D01*
X147851809Y-102922688D01*
X147849554Y-102932001D01*
X147840516Y-102932831D01*
X147825354Y-102930069D01*
X147808226Y-102926911D01*
X147773519Y-102921256D01*
X147724602Y-102913624D01*
X147664846Y-102904540D01*
X147597623Y-102894524D01*
X147566122Y-102889895D01*
X147497430Y-102879576D01*
X147435448Y-102869755D01*
X147383363Y-102860979D01*
X147344362Y-102853795D01*
X147321629Y-102848749D01*
X147317463Y-102847265D01*
X147316020Y-102840012D01*
X147318836Y-102821735D01*
X147326264Y-102791257D01*
X147338658Y-102747399D01*
X147356371Y-102688981D01*
X147379758Y-102614825D01*
X147393129Y-102573422D01*
X147182816Y-102573422D01*
X147182591Y-102583799D01*
X147182126Y-102584793D01*
X147165559Y-102605756D01*
X147135046Y-102635352D01*
X147094284Y-102670519D01*
X147046969Y-102708194D01*
X146996798Y-102745316D01*
X146949583Y-102777455D01*
X146868812Y-102827426D01*
X146797583Y-102865782D01*
X146729778Y-102895141D01*
X146659276Y-102918126D01*
X146579958Y-102937356D01*
X146572469Y-102938931D01*
X146514315Y-102947026D01*
X146442553Y-102950955D01*
X146363616Y-102950928D01*
X146283934Y-102947155D01*
X146209938Y-102939846D01*
X146148059Y-102929212D01*
X146129375Y-102924435D01*
X145997419Y-102875974D01*
X145873879Y-102810042D01*
X145760957Y-102728478D01*
X145660852Y-102633121D01*
X145575768Y-102525809D01*
X145507905Y-102408380D01*
X145505531Y-102403394D01*
X145471896Y-102324625D01*
X145449646Y-102251936D01*
X145437026Y-102177259D01*
X145432282Y-102092525D01*
X145432127Y-102065667D01*
X145438304Y-101959864D01*
X145457378Y-101867658D01*
X145491104Y-101784646D01*
X145541238Y-101706428D01*
X145604283Y-101633967D01*
X145641945Y-101597031D01*
X145680204Y-101563909D01*
X145721507Y-101533270D01*
X145768300Y-101503785D01*
X145823029Y-101474123D01*
X145888140Y-101442954D01*
X145966080Y-101408948D01*
X146059294Y-101370776D01*
X146164756Y-101329235D01*
X146282062Y-101280683D01*
X146379393Y-101233732D01*
X146457794Y-101187517D01*
X146518314Y-101141169D01*
X146561997Y-101093822D01*
X146589891Y-101044609D01*
X146603043Y-100992662D01*
X146604413Y-100965000D01*
X146597948Y-100908217D01*
X146578051Y-100860937D01*
X146541628Y-100816613D01*
X146528376Y-100804138D01*
X146484411Y-100771257D01*
X146435334Y-100749256D01*
X146376890Y-100737017D01*
X146304819Y-100733425D01*
X146262950Y-100734495D01*
X146202827Y-100738409D01*
X146152478Y-100745367D01*
X146102459Y-100757175D01*
X146043327Y-100775635D01*
X146037722Y-100777520D01*
X145942276Y-100813023D01*
X145852192Y-100852776D01*
X145773189Y-100894100D01*
X145726089Y-100923520D01*
X145682636Y-100953333D01*
X145558264Y-100686646D01*
X145525630Y-100616609D01*
X145495847Y-100552580D01*
X145470115Y-100497144D01*
X145449630Y-100452884D01*
X145435591Y-100422385D01*
X145429195Y-100408231D01*
X145429027Y-100407826D01*
X145436246Y-100399304D01*
X145459862Y-100385936D01*
X145496094Y-100369283D01*
X145541166Y-100350906D01*
X145591299Y-100332367D01*
X145642715Y-100315225D01*
X145679583Y-100304299D01*
X145765927Y-100284329D01*
X145862212Y-100268810D01*
X145963135Y-100258082D01*
X146063395Y-100252483D01*
X146157690Y-100252353D01*
X146240717Y-100258030D01*
X146288125Y-100265399D01*
X146421273Y-100301796D01*
X146547755Y-100354121D01*
X146665121Y-100420663D01*
X146770922Y-100499710D01*
X146862708Y-100589552D01*
X146938031Y-100688478D01*
X146968785Y-100740872D01*
X147003117Y-100811738D01*
X147026742Y-100877481D01*
X147041273Y-100944999D01*
X147048324Y-101021192D01*
X147049675Y-101086708D01*
X147047103Y-101172273D01*
X147038465Y-101242779D01*
X147022302Y-101303826D01*
X146997156Y-101361014D01*
X146963679Y-101416774D01*
X146921043Y-101475228D01*
X146873524Y-101528204D01*
X146818858Y-101577203D01*
X146754781Y-101623724D01*
X146679031Y-101669266D01*
X146589342Y-101715328D01*
X146483452Y-101763409D01*
X146367500Y-101811634D01*
X146254729Y-101858537D01*
X146160743Y-101901165D01*
X146083845Y-101940582D01*
X146022336Y-101977851D01*
X145974520Y-102014037D01*
X145938699Y-102050204D01*
X145913176Y-102087415D01*
X145906505Y-102100573D01*
X145884984Y-102169204D01*
X145883637Y-102236399D01*
X145901490Y-102299873D01*
X145937566Y-102357339D01*
X145990890Y-102406513D01*
X146051922Y-102441386D01*
X146128638Y-102466002D01*
X146216550Y-102477520D01*
X146310008Y-102475658D01*
X146403363Y-102460134D01*
X146407317Y-102459149D01*
X146523862Y-102419560D01*
X146640432Y-102360205D01*
X146754790Y-102282367D01*
X146837789Y-102212604D01*
X146868282Y-102185291D01*
X146887405Y-102170669D01*
X146899152Y-102166869D01*
X146907519Y-102172022D01*
X146912037Y-102177871D01*
X146922314Y-102192211D01*
X146942923Y-102220861D01*
X146971806Y-102260969D01*
X147006909Y-102309678D01*
X147046177Y-102364137D01*
X147059159Y-102382136D01*
X147104670Y-102445804D01*
X147138549Y-102494720D01*
X147162038Y-102530929D01*
X147176380Y-102556481D01*
X147182816Y-102573422D01*
X147393129Y-102573422D01*
X147409171Y-102523752D01*
X147444965Y-102414584D01*
X147470083Y-102338604D01*
X147501861Y-102241630D01*
X147538629Y-102127544D01*
X147579392Y-101999538D01*
X147623154Y-101860803D01*
X147668917Y-101714530D01*
X147715684Y-101563910D01*
X147762460Y-101412133D01*
X147808248Y-101262392D01*
X147852051Y-101117876D01*
X147870982Y-101054958D01*
X147908259Y-100930827D01*
X147943787Y-100812671D01*
X147977097Y-100702043D01*
X148007718Y-100600497D01*
X148035181Y-100509585D01*
X148059016Y-100430861D01*
X148078753Y-100365878D01*
X148093922Y-100316190D01*
X148104054Y-100283350D01*
X148108679Y-100268911D01*
X148108905Y-100268363D01*
X148119762Y-100268249D01*
X148149211Y-100269524D01*
X148194729Y-100272037D01*
X148253797Y-100275638D01*
X148323896Y-100280174D01*
X148402504Y-100285494D01*
X148451254Y-100288898D01*
X148790720Y-100312861D01*
X148806233Y-100361118D01*
X148811813Y-100378783D01*
X148823165Y-100414993D01*
X148839772Y-100468080D01*
X148861112Y-100536382D01*
X148886665Y-100618230D01*
X148915913Y-100711962D01*
X148948336Y-100815910D01*
X148983412Y-100928409D01*
X149020624Y-101047794D01*
X149059450Y-101172400D01*
X149065725Y-101192542D01*
X149142971Y-101438673D01*
X149215204Y-101665028D01*
X149282664Y-101872337D01*
X149345591Y-102061328D01*
X149404226Y-102232729D01*
X149458808Y-102387270D01*
X149468435Y-102413943D01*
X149501570Y-102505697D01*
X149532360Y-102591490D01*
X149560073Y-102669241D01*
X149583975Y-102736867D01*
X149603333Y-102792287D01*
X149617414Y-102833419D01*
X149625485Y-102858181D01*
X149627167Y-102864632D01*
X150045959Y-102864632D01*
X150037707Y-102858858D01*
X149988058Y-102799753D01*
X149954208Y-102728726D01*
X149937288Y-102647951D01*
X149936218Y-102585073D01*
X149946113Y-102512869D01*
X149967435Y-102456417D01*
X150001713Y-102412756D01*
X150039727Y-102384908D01*
X150068208Y-102370137D01*
X150095821Y-102361613D01*
X150130195Y-102357721D01*
X150172133Y-102356842D01*
X150217947Y-102357736D01*
X150250881Y-102361848D01*
X150279178Y-102371062D01*
X150311081Y-102387260D01*
X150315083Y-102389504D01*
X150375930Y-102434645D01*
X150425897Y-102493298D01*
X150462119Y-102560738D01*
X150481732Y-102632239D01*
X150484417Y-102668917D01*
X150663612Y-102668917D01*
X150663636Y-102649785D01*
X150663795Y-102462136D01*
X150663908Y-102256447D01*
X150663978Y-102031879D01*
X150664014Y-101787589D01*
X150664021Y-101600000D01*
X150664034Y-101339917D01*
X150664058Y-101100137D01*
X150664069Y-100879796D01*
X150664046Y-100678031D01*
X150663963Y-100493977D01*
X150663817Y-100343967D01*
X150346833Y-100343967D01*
X150346833Y-101987946D01*
X150169563Y-101962538D01*
X150110669Y-101953742D01*
X150059312Y-101945400D01*
X150019068Y-101938146D01*
X149993511Y-101932616D01*
X149986115Y-101929960D01*
X149984110Y-101918912D01*
X149979753Y-101888791D01*
X149973289Y-101841533D01*
X149964963Y-101779072D01*
X149955018Y-101703342D01*
X149943699Y-101616279D01*
X149931252Y-101519817D01*
X149917920Y-101415890D01*
X149903948Y-101306434D01*
X149889581Y-101193382D01*
X149875063Y-101078670D01*
X149860639Y-100964231D01*
X149846554Y-100852002D01*
X149833051Y-100743915D01*
X149820376Y-100641907D01*
X149808773Y-100547911D01*
X149798486Y-100463862D01*
X149789761Y-100391695D01*
X149782841Y-100333345D01*
X149777972Y-100290745D01*
X149775398Y-100265831D01*
X149775050Y-100260342D01*
X149785397Y-100258331D01*
X149815703Y-100260332D01*
X149865161Y-100266244D01*
X149932966Y-100275966D01*
X150018313Y-100289395D01*
X150061083Y-100296430D01*
X150346833Y-100343967D01*
X150663817Y-100343967D01*
X150663800Y-100326771D01*
X150663531Y-100175549D01*
X150663135Y-100039448D01*
X150662588Y-99917603D01*
X150661868Y-99809152D01*
X150660950Y-99713229D01*
X150659812Y-99628972D01*
X150658431Y-99555517D01*
X150656784Y-99491999D01*
X150654847Y-99437556D01*
X150652598Y-99391323D01*
X150650013Y-99352437D01*
X150647070Y-99320034D01*
X150643745Y-99293250D01*
X150640015Y-99271221D01*
X150635857Y-99253084D01*
X150631249Y-99237976D01*
X150626166Y-99225031D01*
X150620586Y-99213387D01*
X150614486Y-99202180D01*
X150607842Y-99190545D01*
X150600632Y-99177620D01*
X150599192Y-99174938D01*
X150558307Y-99112994D01*
X150503987Y-99051548D01*
X150442790Y-98997176D01*
X150381284Y-98956460D01*
X150367885Y-98949066D01*
X150355968Y-98942248D01*
X150344670Y-98935983D01*
X150333126Y-98930249D01*
X150320473Y-98925021D01*
X150305846Y-98920276D01*
X150288382Y-98915991D01*
X150267217Y-98912143D01*
X150241486Y-98908708D01*
X150210326Y-98905663D01*
X150172873Y-98902985D01*
X150128263Y-98900650D01*
X150075632Y-98898635D01*
X150014115Y-98896917D01*
X149942850Y-98895473D01*
X149860971Y-98894279D01*
X149767616Y-98893311D01*
X149661919Y-98892547D01*
X149543018Y-98891963D01*
X149410047Y-98891536D01*
X149262144Y-98891242D01*
X149098444Y-98891059D01*
X148918083Y-98890962D01*
X148720197Y-98890929D01*
X148503923Y-98890936D01*
X148268396Y-98890961D01*
X148012752Y-98890979D01*
X147955000Y-98890979D01*
X147694912Y-98890966D01*
X147455128Y-98890941D01*
X147234781Y-98890928D01*
X147033010Y-98890950D01*
G37*
X147033010Y-98890950D02*
X146848949Y-98891031D01*
X146681735Y-98891194D01*
X146530504Y-98891462D01*
X146394392Y-98891858D01*
X146272534Y-98892407D01*
X146164068Y-98893130D01*
X146068128Y-98894052D01*
X145983852Y-98895195D01*
X145910375Y-98896584D01*
X145846832Y-98898241D01*
X145792361Y-98900190D01*
X145746097Y-98902454D01*
X145707176Y-98905056D01*
X145674734Y-98908020D01*
X145647908Y-98911369D01*
X145625833Y-98915126D01*
X145607645Y-98919315D01*
X145592480Y-98923959D01*
X145579475Y-98929081D01*
X145567766Y-98934705D01*
X145556487Y-98940853D01*
X145544777Y-98947550D01*
X145531769Y-98954818D01*
X145528716Y-98956460D01*
X145467201Y-98997184D01*
X145406005Y-99051557D01*
X145351686Y-99113004D01*
X145310809Y-99174938D01*
X145303488Y-99188208D01*
X145296738Y-99200021D01*
X145290536Y-99211244D01*
X145284859Y-99222738D01*
X145279683Y-99235368D01*
X145274986Y-99249997D01*
X145270744Y-99267490D01*
X145266934Y-99288711D01*
X145263534Y-99314521D01*
X145260520Y-99345787D01*
X145257869Y-99383371D01*
X145255557Y-99428137D01*
X145253563Y-99480948D01*
X145251862Y-99542669D01*
X145250432Y-99614164D01*
X145249250Y-99696296D01*
X145248292Y-99789928D01*
X145247535Y-99895925D01*
X145246957Y-100015150D01*
X145246534Y-100148467D01*
X145246243Y-100296740D01*
X145246061Y-100460833D01*
X145245965Y-100641609D01*
X145245932Y-100839932D01*
X145245939Y-101056665D01*
X145245962Y-101292673D01*
X145245979Y-101548820D01*
X145245980Y-101600000D01*
X145245993Y-101858935D01*
X145246038Y-102097546D01*
X145246120Y-102316673D01*
X145246245Y-102517159D01*
X145246419Y-102699846D01*
X145246647Y-102865574D01*
X145246936Y-103015186D01*
X145247291Y-103149524D01*
X145247719Y-103269429D01*
X145248224Y-103375743D01*
X145248814Y-103469308D01*
X145249493Y-103550965D01*
X145250268Y-103621557D01*
X145251145Y-103681925D01*
X145252129Y-103732910D01*
X145253226Y-103775355D01*
X145254443Y-103810101D01*
X145255784Y-103837990D01*
X145257257Y-103859864D01*
X145258866Y-103876564D01*
X145260617Y-103888933D01*
X145261963Y-103895598D01*
X145295136Y-103991607D01*
X145346162Y-104079332D01*
X145412527Y-104156261D01*
X145491720Y-104219882D01*
X145581227Y-104267681D01*
X145659402Y-104293037D01*
X145678284Y-104294984D01*
X145717108Y-104296813D01*
X145774663Y-104298526D01*
X145849738Y-104300122D01*
X145941120Y-104301602D01*
X146047598Y-104302964D01*
X146167960Y-104304211D01*
X146300995Y-104305341D01*
X146445491Y-104306356D01*
X146600237Y-104307254D01*
X146764021Y-104308036D01*
X146935630Y-104308703D01*
X147113855Y-104309254D01*
X147297483Y-104309690D01*
X147485302Y-104310010D01*
X147676100Y-104310215D01*
X147868667Y-104310305D01*
X148061791Y-104310280D01*
X148254260Y-104310141D01*
X148444861Y-104309886D01*
X148632385Y-104309518D01*
X148815619Y-104309034D01*
X148993351Y-104308437D01*
X149164370Y-104307725D01*
X149327464Y-104306899D01*
X149481422Y-104305960D01*
X149625033Y-104304906D01*
X149757083Y-104303740D01*
X149876362Y-104302459D01*
X149981659Y-104301065D01*
X150071761Y-104299558D01*
X150145457Y-104297938D01*
X150201535Y-104296205D01*
X150238784Y-104294359D01*
X150255456Y-104292543D01*
X150349347Y-104259269D01*
X150435648Y-104208097D01*
X150511701Y-104141714D01*
X150574849Y-104062807D01*
X150622436Y-103974062D01*
X150648037Y-103895598D01*
X150649895Y-103885815D01*
X150651605Y-103872304D01*
X150653175Y-103854221D01*
X150654609Y-103830727D01*
X150655915Y-103800978D01*
X150657097Y-103764134D01*
X150658162Y-103719352D01*
X150659115Y-103665791D01*
X150659962Y-103602609D01*
X150660709Y-103528964D01*
X150661362Y-103444014D01*
X150661928Y-103346919D01*
X150662410Y-103236835D01*
X150662817Y-103112922D01*
X150663153Y-102974337D01*
X150663424Y-102820238D01*
X150663612Y-102668917D01*
X150484417Y-102668917D01*
X150475693Y-102738018D01*
X150451286Y-102802653D01*
X150413839Y-102858284D01*
X150365998Y-102900377D01*
X150341633Y-102913762D01*
X150280916Y-102931050D01*
X150213115Y-102933514D01*
X150145934Y-102921470D01*
X150102022Y-102903865D01*
X150045959Y-102864632D01*
X149627167Y-102864632D01*
X149617204Y-102869052D01*
X149589741Y-102874286D01*
X149548413Y-102880022D01*
X149496857Y-102885951D01*
X149438707Y-102891761D01*
X149377601Y-102897142D01*
X149317174Y-102901784D01*
X149261062Y-102905375D01*
X149212901Y-102907605D01*
X149176328Y-102908163D01*
X149154978Y-102906739D01*
X149151230Y-102905290D01*
X149146614Y-102893292D01*
X149137150Y-102863350D01*
X149123561Y-102817944D01*
X149106571Y-102759550D01*
X149086905Y-102690645D01*
X149065286Y-102613708D01*
X149051226Y-102563083D01*
X149028772Y-102481897D01*
X149007967Y-102406716D01*
X148989524Y-102340113D01*
X148974155Y-102284656D01*
X148962572Y-102242916D01*
X148955488Y-102217464D01*
X148953691Y-102211075D01*
X148951333Y-102206572D01*
X148945845Y-102202879D01*
X148935353Y-102199933D01*
X148917986Y-102197667D01*
X148891872Y-102196019D01*
X148855137Y-102194924D01*
X148805910Y-102194316D01*
X148742319Y-102194133D01*
X148662490Y-102194309D01*
X148564551Y-102194780D01*
X148492437Y-102195200D01*
X148036537Y-102197958D01*
X147943239Y-102563083D01*
X147921683Y-102647507D01*
X147901864Y-102725244D01*
X147884375Y-102793963D01*
X147869808Y-102851332D01*
X147858755Y-102895017D01*
X147851809Y-102922688D01*
X147849554Y-102932001D01*
X147840516Y-102932831D01*
X147825354Y-102930069D01*
X147808226Y-102926911D01*
X147773519Y-102921256D01*
X147724602Y-102913624D01*
X147664846Y-102904540D01*
X147597623Y-102894524D01*
X147566122Y-102889895D01*
X147497430Y-102879576D01*
X147435448Y-102869755D01*
X147383363Y-102860979D01*
X147344362Y-102853795D01*
X147321629Y-102848749D01*
X147317463Y-102847265D01*
X147316020Y-102840012D01*
X147318836Y-102821735D01*
X147326264Y-102791257D01*
X147338658Y-102747399D01*
X147356371Y-102688981D01*
X147379758Y-102614825D01*
X147393129Y-102573422D01*
X147182816Y-102573422D01*
X147182591Y-102583799D01*
X147182126Y-102584793D01*
X147165559Y-102605756D01*
X147135046Y-102635352D01*
X147094284Y-102670519D01*
X147046969Y-102708194D01*
X146996798Y-102745316D01*
X146949583Y-102777455D01*
X146868812Y-102827426D01*
X146797583Y-102865782D01*
X146729778Y-102895141D01*
X146659276Y-102918126D01*
X146579958Y-102937356D01*
X146572469Y-102938931D01*
X146514315Y-102947026D01*
X146442553Y-102950955D01*
X146363616Y-102950928D01*
X146283934Y-102947155D01*
X146209938Y-102939846D01*
X146148059Y-102929212D01*
X146129375Y-102924435D01*
X145997419Y-102875974D01*
X145873879Y-102810042D01*
X145760957Y-102728478D01*
X145660852Y-102633121D01*
X145575768Y-102525809D01*
X145507905Y-102408380D01*
X145505531Y-102403394D01*
X145471896Y-102324625D01*
X145449646Y-102251936D01*
X145437026Y-102177259D01*
X145432282Y-102092525D01*
X145432127Y-102065667D01*
X145438304Y-101959864D01*
X145457378Y-101867658D01*
X145491104Y-101784646D01*
X145541238Y-101706428D01*
X145604283Y-101633967D01*
X145641945Y-101597031D01*
X145680204Y-101563909D01*
X145721507Y-101533270D01*
X145768300Y-101503785D01*
X145823029Y-101474123D01*
X145888140Y-101442954D01*
X145966080Y-101408948D01*
X146059294Y-101370776D01*
X146164756Y-101329235D01*
X146282062Y-101280683D01*
X146379393Y-101233732D01*
X146457794Y-101187517D01*
X146518314Y-101141169D01*
X146561997Y-101093822D01*
X146589891Y-101044609D01*
X146603043Y-100992662D01*
X146604413Y-100965000D01*
X146597948Y-100908217D01*
X146578051Y-100860937D01*
X146541628Y-100816613D01*
X146528376Y-100804138D01*
X146484411Y-100771257D01*
X146435334Y-100749256D01*
X146376890Y-100737017D01*
X146304819Y-100733425D01*
X146262950Y-100734495D01*
X146202827Y-100738409D01*
X146152478Y-100745367D01*
X146102459Y-100757175D01*
X146043327Y-100775635D01*
X146037722Y-100777520D01*
X145942276Y-100813023D01*
X145852192Y-100852776D01*
X145773189Y-100894100D01*
X145726089Y-100923520D01*
X145682636Y-100953333D01*
X145558264Y-100686646D01*
X145525630Y-100616609D01*
X145495847Y-100552580D01*
X145470115Y-100497144D01*
X145449630Y-100452884D01*
X145435591Y-100422385D01*
X145429195Y-100408231D01*
X145429027Y-100407826D01*
X145436246Y-100399304D01*
X145459862Y-100385936D01*
X145496094Y-100369283D01*
X145541166Y-100350906D01*
X145591299Y-100332367D01*
X145642715Y-100315225D01*
X145679583Y-100304299D01*
X145765927Y-100284329D01*
X145862212Y-100268810D01*
X145963135Y-100258082D01*
X146063395Y-100252483D01*
X146157690Y-100252353D01*
X146240717Y-100258030D01*
X146288125Y-100265399D01*
X146421273Y-100301796D01*
X146547755Y-100354121D01*
X146665121Y-100420663D01*
X146770922Y-100499710D01*
X146862708Y-100589552D01*
X146938031Y-100688478D01*
X146968785Y-100740872D01*
X147003117Y-100811738D01*
X147026742Y-100877481D01*
X147041273Y-100944999D01*
X147048324Y-101021192D01*
X147049675Y-101086708D01*
X147047103Y-101172273D01*
X147038465Y-101242779D01*
X147022302Y-101303826D01*
X146997156Y-101361014D01*
X146963679Y-101416774D01*
X146921043Y-101475228D01*
X146873524Y-101528204D01*
X146818858Y-101577203D01*
X146754781Y-101623724D01*
X146679031Y-101669266D01*
X146589342Y-101715328D01*
X146483452Y-101763409D01*
X146367500Y-101811634D01*
X146254729Y-101858537D01*
X146160743Y-101901165D01*
X146083845Y-101940582D01*
X146022336Y-101977851D01*
X145974520Y-102014037D01*
X145938699Y-102050204D01*
X145913176Y-102087415D01*
X145906505Y-102100573D01*
X145884984Y-102169204D01*
X145883637Y-102236399D01*
X145901490Y-102299873D01*
X145937566Y-102357339D01*
X145990890Y-102406513D01*
X146051922Y-102441386D01*
X146128638Y-102466002D01*
X146216550Y-102477520D01*
X146310008Y-102475658D01*
X146403363Y-102460134D01*
X146407317Y-102459149D01*
X146523862Y-102419560D01*
X146640432Y-102360205D01*
X146754790Y-102282367D01*
X146837789Y-102212604D01*
X146868282Y-102185291D01*
X146887405Y-102170669D01*
X146899152Y-102166869D01*
X146907519Y-102172022D01*
X146912037Y-102177871D01*
X146922314Y-102192211D01*
X146942923Y-102220861D01*
X146971806Y-102260969D01*
X147006909Y-102309678D01*
X147046177Y-102364137D01*
X147059159Y-102382136D01*
X147104670Y-102445804D01*
X147138549Y-102494720D01*
X147162038Y-102530929D01*
X147176380Y-102556481D01*
X147182816Y-102573422D01*
X147393129Y-102573422D01*
X147409171Y-102523752D01*
X147444965Y-102414584D01*
X147470083Y-102338604D01*
X147501861Y-102241630D01*
X147538629Y-102127544D01*
X147579392Y-101999538D01*
X147623154Y-101860803D01*
X147668917Y-101714530D01*
X147715684Y-101563910D01*
X147762460Y-101412133D01*
X147808248Y-101262392D01*
X147852051Y-101117876D01*
X147870982Y-101054958D01*
X147908259Y-100930827D01*
X147943787Y-100812671D01*
X147977097Y-100702043D01*
X148007718Y-100600497D01*
X148035181Y-100509585D01*
X148059016Y-100430861D01*
X148078753Y-100365878D01*
X148093922Y-100316190D01*
X148104054Y-100283350D01*
X148108679Y-100268911D01*
X148108905Y-100268363D01*
X148119762Y-100268249D01*
X148149211Y-100269524D01*
X148194729Y-100272037D01*
X148253797Y-100275638D01*
X148323896Y-100280174D01*
X148402504Y-100285494D01*
X148451254Y-100288898D01*
X148790720Y-100312861D01*
X148806233Y-100361118D01*
X148811813Y-100378783D01*
X148823165Y-100414993D01*
X148839772Y-100468080D01*
X148861112Y-100536382D01*
X148886665Y-100618230D01*
X148915913Y-100711962D01*
X148948336Y-100815910D01*
X148983412Y-100928409D01*
X149020624Y-101047794D01*
X149059450Y-101172400D01*
X149065725Y-101192542D01*
X149142971Y-101438673D01*
X149215204Y-101665028D01*
X149282664Y-101872337D01*
X149345591Y-102061328D01*
X149404226Y-102232729D01*
X149458808Y-102387270D01*
X149468435Y-102413943D01*
X149501570Y-102505697D01*
X149532360Y-102591490D01*
X149560073Y-102669241D01*
X149583975Y-102736867D01*
X149603333Y-102792287D01*
X149617414Y-102833419D01*
X149625485Y-102858181D01*
X149627167Y-102864632D01*
X150045959Y-102864632D01*
X150037707Y-102858858D01*
X149988058Y-102799753D01*
X149954208Y-102728726D01*
X149937288Y-102647951D01*
X149936218Y-102585073D01*
X149946113Y-102512869D01*
X149967435Y-102456417D01*
X150001713Y-102412756D01*
X150039727Y-102384908D01*
X150068208Y-102370137D01*
X150095821Y-102361613D01*
X150130195Y-102357721D01*
X150172133Y-102356842D01*
X150217947Y-102357736D01*
X150250881Y-102361848D01*
X150279178Y-102371062D01*
X150311081Y-102387260D01*
X150315083Y-102389504D01*
X150375930Y-102434645D01*
X150425897Y-102493298D01*
X150462119Y-102560738D01*
X150481732Y-102632239D01*
X150484417Y-102668917D01*
X150663612Y-102668917D01*
X150663636Y-102649785D01*
X150663795Y-102462136D01*
X150663908Y-102256447D01*
X150663978Y-102031879D01*
X150664014Y-101787589D01*
X150664021Y-101600000D01*
X150664034Y-101339917D01*
X150664058Y-101100137D01*
X150664069Y-100879796D01*
X150664046Y-100678031D01*
X150663963Y-100493977D01*
X150663817Y-100343967D01*
X150346833Y-100343967D01*
X150346833Y-101987946D01*
X150169563Y-101962538D01*
X150110669Y-101953742D01*
X150059312Y-101945400D01*
X150019068Y-101938146D01*
X149993511Y-101932616D01*
X149986115Y-101929960D01*
X149984110Y-101918912D01*
X149979753Y-101888791D01*
X149973289Y-101841533D01*
X149964963Y-101779072D01*
X149955018Y-101703342D01*
X149943699Y-101616279D01*
X149931252Y-101519817D01*
X149917920Y-101415890D01*
X149903948Y-101306434D01*
X149889581Y-101193382D01*
X149875063Y-101078670D01*
X149860639Y-100964231D01*
X149846554Y-100852002D01*
X149833051Y-100743915D01*
X149820376Y-100641907D01*
X149808773Y-100547911D01*
X149798486Y-100463862D01*
X149789761Y-100391695D01*
X149782841Y-100333345D01*
X149777972Y-100290745D01*
X149775398Y-100265831D01*
X149775050Y-100260342D01*
X149785397Y-100258331D01*
X149815703Y-100260332D01*
X149865161Y-100266244D01*
X149932966Y-100275966D01*
X150018313Y-100289395D01*
X150061083Y-100296430D01*
X150346833Y-100343967D01*
X150663817Y-100343967D01*
X150663800Y-100326771D01*
X150663531Y-100175549D01*
X150663135Y-100039448D01*
X150662588Y-99917603D01*
X150661868Y-99809152D01*
X150660950Y-99713229D01*
X150659812Y-99628972D01*
X150658431Y-99555517D01*
X150656784Y-99491999D01*
X150654847Y-99437556D01*
X150652598Y-99391323D01*
X150650013Y-99352437D01*
X150647070Y-99320034D01*
X150643745Y-99293250D01*
X150640015Y-99271221D01*
X150635857Y-99253084D01*
X150631249Y-99237976D01*
X150626166Y-99225031D01*
X150620586Y-99213387D01*
X150614486Y-99202180D01*
X150607842Y-99190545D01*
X150600632Y-99177620D01*
X150599192Y-99174938D01*
X150558307Y-99112994D01*
X150503987Y-99051548D01*
X150442790Y-98997176D01*
X150381284Y-98956460D01*
X150367885Y-98949066D01*
X150355968Y-98942248D01*
X150344670Y-98935983D01*
X150333126Y-98930249D01*
X150320473Y-98925021D01*
X150305846Y-98920276D01*
X150288382Y-98915991D01*
X150267217Y-98912143D01*
X150241486Y-98908708D01*
X150210326Y-98905663D01*
X150172873Y-98902985D01*
X150128263Y-98900650D01*
X150075632Y-98898635D01*
X150014115Y-98896917D01*
X149942850Y-98895473D01*
X149860971Y-98894279D01*
X149767616Y-98893311D01*
X149661919Y-98892547D01*
X149543018Y-98891963D01*
X149410047Y-98891536D01*
X149262144Y-98891242D01*
X149098444Y-98891059D01*
X148918083Y-98890962D01*
X148720197Y-98890929D01*
X148503923Y-98890936D01*
X148268396Y-98890961D01*
X148012752Y-98890979D01*
X147955000Y-98890979D01*
X147694912Y-98890966D01*
X147455128Y-98890941D01*
X147234781Y-98890928D01*
X147033010Y-98890950D01*
G36*
X148460935Y-100758033D02*
G01*
X148449780Y-100774617D01*
X148437800Y-100806812D01*
X148432335Y-100824771D01*
X148380171Y-101002509D01*
X148333880Y-101160478D01*
X148293308Y-101299199D01*
X148258305Y-101419194D01*
X148228720Y-101520986D01*
X148204401Y-101605096D01*
X148185198Y-101672047D01*
X148170960Y-101722360D01*
X148161534Y-101756558D01*
X148156771Y-101775163D01*
X148156083Y-101778953D01*
X148164091Y-101782530D01*
X148188703Y-101785405D01*
X148230800Y-101787608D01*
X148291264Y-101789170D01*
X148370977Y-101790121D01*
X148470821Y-101790492D01*
X148489458Y-101790500D01*
X148586452Y-101790322D01*
X148664041Y-101789741D01*
X148723984Y-101788688D01*
X148768041Y-101787093D01*
X148797970Y-101784886D01*
X148815531Y-101781996D01*
X148822483Y-101778356D01*
X148822770Y-101777271D01*
X148819626Y-101764851D01*
X148810725Y-101734666D01*
X148796823Y-101689088D01*
X148778674Y-101630493D01*
X148757036Y-101561254D01*
X148732664Y-101483744D01*
X148706313Y-101400338D01*
X148678739Y-101313410D01*
X148650698Y-101225334D01*
X148622946Y-101138483D01*
X148596238Y-101055231D01*
X148571330Y-100977953D01*
X148548978Y-100909022D01*
X148529938Y-100850813D01*
X148514965Y-100805698D01*
X148504815Y-100776053D01*
X148500308Y-100764347D01*
X148485098Y-100755019D01*
X148473407Y-100753333D01*
X148460935Y-100758033D01*
G37*
X148460935Y-100758033D02*
X148449780Y-100774617D01*
X148437800Y-100806812D01*
X148432335Y-100824771D01*
X148380171Y-101002509D01*
X148333880Y-101160478D01*
X148293308Y-101299199D01*
X148258305Y-101419194D01*
X148228720Y-101520986D01*
X148204401Y-101605096D01*
X148185198Y-101672047D01*
X148170960Y-101722360D01*
X148161534Y-101756558D01*
X148156771Y-101775163D01*
X148156083Y-101778953D01*
X148164091Y-101782530D01*
X148188703Y-101785405D01*
X148230800Y-101787608D01*
X148291264Y-101789170D01*
X148370977Y-101790121D01*
X148470821Y-101790492D01*
X148489458Y-101790500D01*
X148586452Y-101790322D01*
X148664041Y-101789741D01*
X148723984Y-101788688D01*
X148768041Y-101787093D01*
X148797970Y-101784886D01*
X148815531Y-101781996D01*
X148822483Y-101778356D01*
X148822770Y-101777271D01*
X148819626Y-101764851D01*
X148810725Y-101734666D01*
X148796823Y-101689088D01*
X148778674Y-101630493D01*
X148757036Y-101561254D01*
X148732664Y-101483744D01*
X148706313Y-101400338D01*
X148678739Y-101313410D01*
X148650698Y-101225334D01*
X148622946Y-101138483D01*
X148596238Y-101055231D01*
X148571330Y-100977953D01*
X148548978Y-100909022D01*
X148529938Y-100850813D01*
X148514965Y-100805698D01*
X148504815Y-100776053D01*
X148500308Y-100764347D01*
X148485098Y-100755019D01*
X148473407Y-100753333D01*
X148460935Y-100758033D01*
%TD*%
M02*
